<svg width="443" height="626" xmlns="http://www.w3.org/2000/svg" version="1.1" style="">

 <g>
  <title>Layer 1</title>
  <path stroke="#000101" id="svg_1" fill-rule="evenodd" fill="none" d="m135.722,18.669l-5.492,5.669l-6.081,-5.289c-6.142,-5.343 -9.149,-6.075 -9.149,-2.226c0,2.127 13.285,14.177 15.63,14.177c0.818,0 1.21,0.45 0.87,1c-1.111,1.797 -2.543,1.072 -7.906,-4c-5.771,-5.458 -9.661,-6.584 -9.499,-2.75c0.059,1.428 2.425,4.351 6.472,8c8.532,7.692 10.112,7.646 18.212,-0.527c6.51,-6.569 8.134,-10.723 4.191,-10.723c-2.004,0 -2.002,-0.037 0.157,-2.958c1.815,-2.454 1.969,-3.221 0.908,-4.5c-0.704,-0.848 -1.627,-1.542 -2.051,-1.542c-0.424,0 -3.242,2.551 -6.262,5.669m200.778,-5.071c-1.1,0.264 -2.978,0.687 -4.173,0.941c-8,1.696 -13.002,13.611 -12.028,28.651c0.914,14.105 4.223,18.002 17.256,20.325c17.885,3.186 23.225,1.298 25.536,-9.033c1.766,-7.889 0.004,-19.841 -3.43,-23.276c-4.885,-4.884 -19.003,-4.678 -23.411,0.343c-1.899,2.163 -2.25,3.715 -2.25,9.951c0,6.369 0.333,7.776 2.413,10.194c2.117,2.461 3.111,2.806 8.087,2.806c5.034,0 5.957,-0.33 8.194,-2.931c2.069,-2.404 2.425,-3.642 1.989,-6.894c-0.662,-4.94 -1.899,-5.762 -8.183,-5.435c-4.597,0.239 -5,0.461 -5,2.76c0,2.174 0.496,2.541 3.811,2.814c2.946,0.243 3.737,0.697 3.486,2c-0.239,1.245 -1.367,1.686 -4.311,1.686l-3.986,0l-0.296,-6.757c-0.288,-6.586 -0.225,-6.785 2.5,-7.837c3.452,-1.333 11.234,-0.396 13.222,1.592c1.08,1.08 1.487,3.973 1.524,10.831c0.068,12.708 -0.313,13.119 -11.433,12.34c-17.073,-1.195 -19.176,-2.965 -19.832,-16.685c-0.311,-6.503 0.022,-10.091 1.291,-13.911c2.634,-7.93 4.224,-8.573 21.202,-8.573c13.043,0 14.442,0.176 16.314,2.047c2.815,2.816 3.995,11.098 4.002,28.092c0.009,20.296 2.044,18.861 -26.752,18.861c-17.197,0 -23.322,-0.321 -24.481,-1.283c-1.268,-1.053 -1.615,-4.657 -1.924,-20c-0.521,-25.913 -1.941,-28.427 -17.985,-31.851c-5.244,-1.119 -10.219,-1.411 -17.352,-1.017c-23.06,1.272 -29.009,6.55 -28.915,25.651c0.055,11.093 1.609,19.059 4.513,23.138c4.444,6.241 15.938,9.289 32.838,8.707c9.202,-0.317 10.233,-0.556 12.594,-2.919c3.253,-3.255 4.422,-10.66 4.45,-28.176c0.018,-11.25 -0.206,-12.976 -1.898,-14.668c-2.457,-2.457 -9.749,-3.372 -23.347,-2.928c-9.537,0.312 -10.83,0.582 -13.132,2.747c-5.892,5.541 -7.385,19.819 -2.996,28.659c3.152,6.346 6.22,7.888 16.491,8.29c10.363,0.406 11.112,0.028 14.551,-7.35c3.697,-7.928 2.658,-17.54 -2.318,-21.455c-2.148,-1.689 -4.053,-2.045 -10.943,-2.045c-7.964,0 -8.422,0.123 -10.115,2.706c-1.229,1.876 -1.773,4.662 -1.773,9.087c0,5.751 0.277,6.618 2.806,8.794c3.992,3.433 9.827,3.331 12.621,-0.222c1.165,-1.48 2.073,-4.11 2.073,-6c0,-2.893 -0.339,-3.365 -2.421,-3.365c-1.874,0 -2.568,0.674 -3.076,2.989c-0.812,3.695 -1.88,4.415 -4.482,3.022c-2.718,-1.454 -2.967,-10.434 -0.318,-11.451c3.106,-1.191 12.271,0.523 13.325,2.493c2.3,4.298 -0.17,16.728 -3.392,17.066c-4.43,0.466 -13.509,-0.523 -15.297,-1.666c-3.11,-1.99 -4.613,-7.6 -4.164,-15.55c0.585,-10.349 1.44,-10.922 16.387,-10.975c6.587,-0.023 12.709,0.239 13.604,0.582c0.975,0.375 1.878,2.3 2.254,4.807c0.8,5.342 -1.2,28.714 -2.603,30.403c-1.59,1.917 -22.011,1.709 -28.751,-0.293c-8.897,-2.642 -10.561,-5.551 -11.74,-20.524c-0.678,-8.606 0.861,-16.857 3.609,-19.344c3.191,-2.888 15.517,-4.809 27.065,-4.218c5.775,0.295 12.236,1.105 14.359,1.799c6.612,2.163 7.073,3.734 7.639,26.042c0.494,19.479 0.54,19.814 3.014,22.287c3.573,3.57 15.061,4.948 35.63,4.273c17.414,-0.571 20.23,-1.289 23.768,-6.061c1.833,-2.473 2.131,-4.5 2.422,-16.478c0.354,-14.572 -1.067,-27.823 -3.485,-32.499c-2.341,-4.526 -7.225,-6.006 -20.847,-6.314c-6.6,-0.15 -12.9,-0.056 -14,0.208m-179.793,3.418c-3.537,2.782 -5.055,8.061 -4.458,15.503c0.384,4.774 1.67,8.654 5.507,16.605c4.619,9.574 6.934,15.876 5.831,15.876c-0.248,0 -3.149,-3.738 -6.448,-8.307c-7.492,-10.379 -14.185,-16.693 -17.694,-16.693c-1.563,0 -3.812,1.213 -5.643,3.044c-2.732,2.732 -2.976,3.468 -2.38,7.193c1.109,6.938 5.513,13.554 14.413,21.65c8.275,7.53 13.628,14.502 9.393,12.235c-1.041,-0.557 -2.5,-1.745 -3.243,-2.64c-1.91,-2.301 -8.461,-5.482 -11.29,-5.482c-3.141,0 -5.802,3.063 -5.908,6.799c-0.126,4.41 5.775,10.997 16.318,18.218c16.112,11.036 24.554,21.817 29.544,37.733c2.289,7.301 2.861,8.25 4.969,8.25c3.225,0 3.13,-2.741 -0.445,-12.843c-5.44,-15.373 -14.738,-27.13 -29.173,-36.89c-8.067,-5.454 -16.816,-13.784 -15.675,-14.925c0.933,-0.933 6.177,1.875 11.456,6.133c3.732,3.011 4.591,3.312 6.7,2.352c1.331,-0.607 2.855,-2.351 3.387,-3.878c1.512,-4.338 -1.914,-9.895 -11.422,-18.527c-10.725,-9.736 -16.436,-20.338 -11.895,-22.08c2.115,-0.811 5.449,2.453 13.438,13.158c3.694,4.95 7.643,9.821 8.775,10.825c2.466,2.186 7.079,1.902 8.601,-0.529c1.736,-2.774 -0.731,-11.76 -6.438,-23.445c-3.881,-7.948 -5.174,-11.72 -5.212,-15.21c-0.065,-5.925 0.915,-8.873 3.39,-10.197c2.81,-1.504 5.488,-0.338 7.792,3.39c3.68,5.953 4.341,11.884 3.05,27.336c-1.443,17.265 -0.383,24.33 3.653,24.33c1.43,0 2.4,-0.586 2.4,-1.45c0,-0.798 0.641,-1.81 1.425,-2.25c0.784,-0.44 3.72,-3.832 6.524,-7.537c6.45,-8.523 10.991,-9.976 14.381,-4.601c1.89,2.995 -0.552,7.194 -9.814,16.872c-6.83,7.138 -9.734,10.96 -10.651,14.021c-1.221,4.077 -1.171,4.285 1.589,6.659c2.336,2.01 3.492,2.331 6.413,1.783c1.96,-0.368 4.795,-1.305 6.299,-2.083c3.438,-1.778 5.278,-1.789 6.729,-0.041c1.815,2.188 0.424,4.079 -6.411,8.714c-7.121,4.829 -10.022,9.058 -9.258,13.497c0.423,2.464 3.925,15.455 6.581,24.416c0.466,1.573 1.474,2.5 2.717,2.5c1.734,0 1.951,-0.62 1.775,-5.056c-0.11,-2.781 -1.342,-8.631 -2.737,-13c-1.395,-4.369 -2.542,-8.872 -2.549,-10.007c-0.015,-2.315 3.381,-5.709 9.816,-9.81c7.608,-4.85 8.694,-11.71 2.611,-16.496c-3.386,-2.663 -4.877,-2.661 -11.871,0.015c-3.085,1.181 -5.862,1.895 -6.17,1.586c-1.094,-1.094 2.003,-5.26 10.688,-14.377c9.922,-10.415 12.145,-14.967 9.926,-20.323c-1.649,-3.983 -6.501,-8.032 -9.622,-8.032c-4.823,0 -9.261,2.831 -13.994,8.925c-2.595,3.341 -4.809,6.075 -4.92,6.075c-0.111,0 -0.152,-8.662 -0.09,-19.25l0.113,-19.25l-2.765,-4.704c-1.521,-2.587 -3.759,-5.4 -4.973,-6.25c-3.17,-2.221 -9.944,-1.977 -13.055,0.47m-127.952,1.962c-3.828,3.012 -6.737,10.284 -7.893,19.735c-0.905,7.394 -0.832,8.746 0.547,10.125c2.596,2.596 4.226,-0.3 5.355,-9.515c1.157,-9.447 3.824,-15.823 6.619,-15.823c1.445,0 2.425,1.632 4.204,7c1.88,5.674 2.328,9.226 2.366,18.75c0.047,11.737 0.05,11.75 2.457,11.75c2.303,0 2.442,-0.38 3.118,-8.495c0.389,-4.673 0.456,-9.46 0.147,-10.639c-0.672,-2.57 5.622,-15.659 7.961,-16.557c3.412,-1.309 5.581,6.13 6.293,21.586c0.476,10.322 0.864,12.579 2.321,13.495c1.273,0.8 2.227,0.8 3.5,0c1.459,-0.917 1.841,-3.159 2.3,-13.495c0.365,-8.217 1.144,-13.962 2.31,-17.044c1.89,-4.996 4.897,-8.428 6.51,-7.432c1.973,1.22 3.568,12.332 3.599,25.064c0.028,11.546 0.224,13.021 1.778,13.323c2.77,0.538 3.753,-3.828 3.753,-16.661c0,-12.391 -1.813,-22.176 -4.7,-25.366c-1.001,-1.106 -3.036,-1.779 -5.382,-1.779c-3.13,0 -4.289,0.626 -6.805,3.679c-1.668,2.024 -3.312,4.949 -3.652,6.5c-0.79,3.595 -2.052,3.615 -2.766,0.044c-0.939,-4.695 -4.411,-8.223 -8.093,-8.223c-3.48,0 -5.91,2.024 -9.366,7.799l-1.974,3.299l-1.126,-4.473c-1.925,-7.644 -8.169,-10.747 -13.381,-6.647m188.745,0.244c-9.236,3.274 -12.452,9.022 -12.464,22.278c-0.011,11.465 0.525,13.5 3.558,13.5c2.348,0 2.36,-0.061 2.156,-10.75c-0.166,-8.71 0.135,-11.382 1.589,-14.079c2.461,-4.566 7.406,-6.484 15.405,-5.975c5.488,0.35 6.732,0.818 9.486,3.573c2.346,2.345 3.17,4.075 3.17,6.65c0,6.022 -5.487,10.073 -17.846,13.178c-7.833,1.967 -10.334,4.554 -8.819,9.121c1.328,4.004 4.635,5.241 14.265,5.338c4.675,0.046 9.4,0.451 10.5,0.9c1.877,0.765 1.847,0.851 -0.5,1.407c-1.375,0.325 -6.1,1.059 -10.5,1.63c-13.759,1.785 -18.5,4.083 -18.5,8.971c0,5.438 1.664,6.261 14.597,7.215c12.903,0.953 14.403,1.241 14.403,2.764c0,1.533 -4.972,3.777 -12.611,5.691c-12.24,3.068 -15.085,9.086 -10.317,21.828c1.731,4.628 2.471,5.538 4.5,5.538c3.001,0 3.048,-1.224 0.354,-9.221c-2.642,-7.841 -1.776,-10.225 4.28,-11.784c15,-3.862 18.794,-6.267 18.794,-11.913c0,-5.744 -2.373,-7.264 -12.759,-8.174c-4.808,-0.421 -10.204,-0.798 -11.991,-0.837c-1.787,-0.039 -3.25,-0.476 -3.25,-0.971c0,-1.099 6.818,-2.698 17.453,-4.093c11.064,-1.452 15.323,-4.819 12.579,-9.946c-1.806,-3.375 -5.086,-4.386 -15.782,-4.865c-5.637,-0.252 -10.25,-0.812 -10.25,-1.244c0,-0.433 2.286,-1.277 5.08,-1.876c8.069,-1.73 14.623,-5.005 18.412,-9.198c2.939,-3.253 3.508,-4.63 3.508,-8.48c0,-8.08 -3.968,-13.49 -11.899,-16.226c-4.131,-1.424 -12.514,-1.399 -16.601,0.05m170.067,2.664c-3.875,2.635 -5.488,5.737 -5.532,10.641c-0.037,4.285 1.56,7.231 6.179,11.396l2.857,2.577l-4.785,3.51c-6.379,4.678 -6.814,7.972 -1.838,13.928c1.954,2.338 3.552,4.682 3.552,5.208c0,0.526 -1.658,2.475 -3.684,4.331c-3.149,2.885 -3.494,3.603 -2.377,4.949c1.932,2.329 3.522,1.948 7.49,-1.794c4.801,-4.528 5.007,-9.927 0.571,-14.979c-3.698,-4.212 -3.73,-5.154 -0.25,-7.315c4.644,-2.884 7.25,-5.599 7.25,-7.555c0,-1.028 -1.967,-3.987 -4.372,-6.576c-6.089,-6.557 -6.505,-8.484 -2.658,-12.331c2.593,-2.593 3.628,-3.006 6.225,-2.487c1.713,0.343 3.72,1.125 4.46,1.739c1.77,1.47 1.711,5.005 -0.123,7.431c-1.958,2.588 -1.92,7.91 0.071,9.901c0.881,0.881 3.534,2.119 5.895,2.751l4.293,1.148l-2.476,3.741c-3.111,4.701 -2.703,7.805 1.364,10.384c1.911,1.212 3.307,3.013 3.5,4.516c0.246,1.914 0.907,2.5 2.821,2.5c2.293,0 2.5,-0.369 2.5,-4.462c0,-4.431 -0.577,-5.134 -6.299,-7.671c-0.165,-0.073 0.847,-1.823 2.25,-3.889c1.402,-2.067 2.549,-4.39 2.549,-5.163c0,-2.142 -4.639,-6.315 -7.02,-6.315c-1.161,0 -2.963,-0.456 -4.004,-1.013c-1.845,-0.987 -1.84,-1.103 0.189,-4.543c2.607,-4.417 1.969,-9.765 -1.59,-13.323c-3.466,-3.467 -12.734,-4.139 -17.008,-1.235m-200.29,3.087c-3.747,2.284 -4.709,5.183 -4.038,12.165c0.668,6.951 3.322,9.579 8.378,8.297c5.3,-1.343 7.526,-4.844 7.526,-11.836c0,-9.931 -4.437,-13.156 -11.866,-8.626m-87.244,2.653c-4.632,3.897 -6.916,9.275 -8.553,20.135c-2.497,16.564 -1.883,23.239 2.137,23.239c2.315,0 2.384,-0.234 2.418,-8.25c0.043,-10.216 2.206,-22.773 4.635,-26.906c2.294,-3.904 5.401,-6.036 7.186,-4.933c1.113,0.688 0.983,3.301 -0.762,15.21c-3.69,25.197 -3.215,29.32 3.305,28.68c2.666,-0.261 3.571,-1.222 6.882,-7.301c4.994,-9.17 5.951,-10.125 8.043,-8.033c2.728,2.727 1.607,6.4 -6.67,21.856c-2.083,3.889 -3.654,8.237 -3.654,10.113c0,4.371 3.686,7.968 9.759,9.523c18.577,4.759 19.933,12.09 3.241,17.525c-11.659,3.795 -16.35,7.537 -17.564,14.006c-1.038,5.534 1.324,8.357 11.694,13.973c12.002,6.501 12.146,7.192 3.436,16.467c-7.353,7.829 -8.071,10.563 -4.93,18.787c1.289,3.375 2.137,4.283 4,4.283c2.825,0 3.03,-1.861 0.877,-7.964c-1.759,-4.986 -1.394,-5.867 4.99,-12.036c5.976,-5.774 7.845,-9.332 7.07,-13.462c-0.776,-4.136 -3.415,-6.496 -12.131,-10.846c-8.344,-4.166 -9.896,-5.749 -9.027,-9.21c0.799,-3.184 5.1,-5.86 14.047,-8.741c9.381,-3.02 14.538,-7.791 14.538,-13.451c0,-6.879 -5.344,-11.487 -16.487,-14.216c-9.101,-2.23 -9.491,-4.152 -3.112,-15.346c5.422,-9.514 6.599,-12.799 6.599,-18.423c0,-5.612 -3.286,-9.305 -8.28,-9.305c-3.945,0 -6.066,2.003 -10.59,10c-1.711,3.025 -3.113,5.05 -3.116,4.5c-0.003,-0.55 0.9,-7.075 2.005,-14.5c2.891,-19.412 2.9,-23.838 0.051,-26.145c-3.319,-2.687 -8.307,-2.368 -12.037,0.771m89.634,2.041c-1.026,1.025 -0.79,10.333 0.262,10.333c1.743,0 4.071,-3.139 4.071,-5.49c0,-4.538 -2.19,-6.986 -4.333,-4.843m208.333,31.238c0,1.598 0.697,8.883 1.548,16.19c1.755,15.057 1.304,21.445 -2.174,30.774c-2.759,7.403 -2.949,10.82 -0.874,15.785c0.825,1.975 1.5,5.396 1.5,7.602c0,2.207 0.489,5.643 1.086,7.635c1.605,5.358 -1.906,18.728 -6.653,25.335c-3.735,5.198 -3.891,7.774 -0.471,7.774c2.143,0 6.836,-5.684 8.994,-10.894c0.756,-1.825 2.394,-3.381 4.236,-4.023c5.908,-2.06 16.606,-13.562 15.439,-16.601c-1.068,-2.785 -3.681,-1.482 -9.564,4.768c-3.235,3.438 -6.109,6.025 -6.387,5.75c-1.402,-1.392 1.042,-6.508 4.836,-10.124c5.093,-4.854 8.461,-10.841 11.531,-20.499c2.378,-7.478 2.128,-10.75 -0.778,-10.19c-1.17,0.225 -2.74,3.129 -4.807,8.887c-3.462,9.65 -6.736,15.467 -9.551,16.974c-1.739,0.93 -1.911,0.648 -1.911,-3.131c0,-3.173 0.696,-4.946 2.949,-7.512c4.707,-5.361 8.222,-17.794 8.809,-31.155l0.494,-11.25l-2.536,0c-2.47,0 -2.554,0.229 -3.215,8.75c-1.186,15.29 -6.093,32.058 -8.637,29.514c-1.423,-1.423 -0.589,-7.349 2.006,-14.264c3.019,-8.042 2.853,-25.741 -0.428,-45.75c-0.432,-2.639 -0.994,-3.25 -2.987,-3.25c-2.043,0 -2.455,0.487 -2.455,2.905m-361.37,4.345c-0.331,1.237 -0.609,5.775 -0.616,10.083c-0.01,5.77 -0.34,7.725 -1.25,7.422c-0.679,-0.227 -1.571,-2.377 -1.981,-4.779c-0.41,-2.402 -1.429,-5.05 -2.264,-5.886c-1.359,-1.358 -1.682,-1.356 -3.062,0.025c-1.263,1.263 -1.359,2.347 -0.525,5.964c1.634,7.088 1.156,8.979 -1.054,4.171c-1.345,-2.925 -2.575,-4.25 -3.947,-4.25c-2.855,0 -3.437,2.538 -1.56,6.804c1.264,2.873 1.598,6.703 1.5,17.196c-0.151,16.142 1.325,21.348 6.683,23.587c2.758,1.152 4.09,1.136 8.872,-0.11c11.439,-2.979 13.574,-6.351 13.574,-21.435c0,-5.586 -0.524,-12.236 -1.164,-14.778c-1.087,-4.319 -0.975,-4.969 1.715,-9.942c2.759,-5.1 2.804,-5.394 1.095,-7.072c-1.701,-1.67 -1.893,-1.613 -4.191,1.238c-1.325,1.643 -2.924,4.231 -3.553,5.75c-2.045,4.936 -2.902,2.946 -2.902,-6.738c0,-9.343 -0.039,-9.5 -2.383,-9.5c-1.627,0 -2.575,0.715 -2.987,2.25m30.603,4.365c-2.402,0.88 -5.294,2.944 -6.616,4.724c-3.19,4.292 -5.849,11.744 -5.447,15.266c0.266,2.333 0.815,2.895 2.83,2.895c2.153,0 2.58,-0.555 3.08,-4c1.498,-10.341 5.862,-14.5 15.214,-14.5c3.351,0 4.898,0.575 6.698,2.492c5.645,6.008 -0.509,17.101 -8.389,15.123c-3.744,-0.94 -5.147,-4.136 -3.151,-7.182c2.191,-3.344 5.438,-3.307 4.795,0.055c-0.624,3.265 2.117,4.398 4.79,1.978c2.66,-2.407 2.469,-5.642 -0.498,-8.429c-3.171,-2.98 -8.625,-2.287 -12.695,1.613c-2.284,2.187 -2.844,3.593 -2.844,7.136c0,3.635 0.541,4.917 3.072,7.281c3.268,3.053 8.403,4.552 11.846,3.459c1.151,-0.365 3.457,-1.812 5.123,-3.214c7.99,-6.723 8.069,-17.881 0.17,-23.763c-3.434,-2.557 -12.294,-3.017 -17.978,-0.934m188.155,8.314c-1.161,0.497 -3.118,2.179 -4.347,3.738c-4.363,5.529 -0.679,15.37 6.959,18.587c1.551,0.654 21.477,1.338 52.5,1.803c27.5,0.412 53.702,1.082 58.227,1.488c7.254,0.651 8.304,0.537 8.883,-0.97c0.36,-0.94 0.199,-2.166 -0.359,-2.724c-2.057,-2.057 -16.989,-2.872 -66.49,-3.632l-50.663,-0.778l-2.549,-2.395c-2.722,-2.557 -3.372,-6.823 -1.349,-8.846c2.166,-2.166 6.313,-1.308 10.37,2.145c8.444,7.187 12.684,7.542 19.807,1.655c2.663,-2.2 5.015,-4 5.229,-4c0.214,0 2.256,1.688 4.539,3.75c5.644,5.099 10.545,5.204 16.575,0.356l4.22,-3.393l4.033,3.644c5.077,4.586 8.438,4.699 15.73,0.527l5.446,-3.116l2.704,2.591c4.413,4.228 7.992,4.995 14.925,3.198c7.445,-1.929 12.538,-1.953 17.722,-0.086c2.2,0.793 7.038,1.461 10.75,1.485c6.448,0.042 6.75,-0.062 6.75,-2.327c0,-2.204 -0.495,-2.419 -7.03,-3.063c-3.866,-0.381 -8.577,-1.339 -10.468,-2.129c-4.459,-1.864 -8.732,-1.813 -17.94,0.21l-7.495,1.647l-4.036,-3.647c-2.22,-2.006 -4.78,-3.647 -5.688,-3.647c-0.908,0 -4.498,1.592 -7.978,3.538l-6.327,3.538l-4.381,-4.038c-2.409,-2.221 -5.308,-4.038 -6.442,-4.038c-1.134,0 -4.125,1.575 -6.647,3.5c-2.522,1.925 -5.314,3.5 -6.205,3.5c-0.892,0 -3.364,-1.575 -5.495,-3.5c-5.395,-4.875 -9.133,-4.754 -15.491,0.5c-2.662,2.2 -5.074,3.998 -5.359,3.995c-0.753,-0.008 -5.277,-3.062 -9.381,-6.335c-3.804,-3.033 -9.704,-4.249 -13.249,-2.731m-150.419,5.821c-0.39,9.481 -5.209,26.25 -7.542,26.25c-0.377,0 -2.477,-1.62 -4.669,-3.599c-8.166,-7.378 -16.015,-9.078 -23.788,-5.151c-11.791,5.957 -12.199,21.566 -0.699,26.786c7.021,3.188 14.272,2.065 22.42,-3.472c3.32,-2.256 3.843,-2.361 4.644,-0.93c1.768,3.159 0.226,17.472 -2.53,23.486c-3.616,7.891 -8.363,12.759 -23.448,24.047c-19.84,14.845 -26.561,22.838 -29.862,35.513c-5.228,20.071 4.608,43.058 22.177,51.829c6.4,3.194 16.751,4.321 25.328,2.757c3.899,-0.712 4.5,-1.152 4.5,-3.294c0,-2.195 -0.392,-2.45 -3.5,-2.278c-14.111,0.781 -17.639,0.547 -22.17,-1.472c-13.987,-6.236 -22.541,-21.507 -21.637,-38.631c0.802,-15.205 6.628,-23.367 28.189,-39.487c19.123,-14.297 24.242,-20.336 28.008,-33.036c1.9,-6.411 2.051,-13.54 0.453,-21.495c-0.76,-3.783 -0.816,-5.986 -0.163,-6.417c4.091,-2.701 9.32,-17.774 9.32,-26.866c0,-4.976 -0.148,-5.29 -2.5,-5.29c-1.375,0 -2.514,0.338 -2.531,0.75m-71.968,6.083c-4.469,1.712 -4.505,1.764 -5.306,7.695c-1.412,10.451 0.308,22.021 3.42,23.009c2.534,0.804 8.819,-1.267 11.635,-3.834c2.052,-1.871 2.25,-2.948 2.25,-12.252c0,-5.611 -0.281,-11.607 -0.625,-13.326c-0.543,-2.717 -1.033,-3.118 -3.75,-3.071c-1.719,0.03 -5.15,0.83 -7.624,1.779m37.38,17.077c-6.117,3.729 -6.298,12.53 -0.322,15.62c5.537,2.864 13.403,0.999 20.436,-4.844l2.994,-2.488l-1.994,-2.25c-1.097,-1.238 -3.996,-3.533 -6.441,-5.099c-5.248,-3.363 -10.181,-3.679 -14.673,-0.939m176.119,0.194c-6.801,3.943 -12.071,13.074 -11.32,19.613c0.254,2.213 0.83,2.783 2.808,2.783c2.196,0 2.565,-0.542 3.149,-4.628c0.808,-5.649 2.048,-8.086 5.492,-10.794c3.45,-2.715 8.497,-2.702 10.966,0.027c2.792,3.086 2.275,8.618 -2.043,21.895c-4.319,13.277 -4.426,19.064 -0.413,22.314c1.876,1.519 3.228,1.758 6.849,1.213c11.442,-1.725 11.602,-1.726 12.972,-0.076c1.135,1.368 1.101,2.514 -0.215,7.242c-0.86,3.089 -1.345,6.187 -1.077,6.884c0.267,0.697 2.219,1.961 4.337,2.808c3.167,1.268 4.941,1.348 10.007,0.456c7.359,-1.296 10.601,-0.23 11.617,3.819c0.47,1.869 0.101,3.69 -1.17,5.784c-6.748,11.115 -8.634,16.02 -8.21,21.347c0.885,11.092 11.638,18.201 22.931,15.16c4.812,-1.295 12.894,-8.48 15.341,-13.637c5.685,-11.98 -9.558,-25.044 -19.48,-16.695c-3.714,3.125 -6.041,7.315 -6.041,10.877c0,3.281 4.145,7.504 7.366,7.504c3.029,0 7.634,-5.173 7.634,-8.577c0,-3.433 -4.244,-3.377 -5.818,0.077c-0.627,1.375 -1.599,2.5 -2.161,2.5c-2.093,0 -0.92,-4.255 1.972,-7.147c3.449,-3.449 6.103,-3.236 9.757,0.784c3.405,3.745 2.888,7.357 -1.817,12.702c-5.039,5.724 -10.033,7.547 -15.879,5.795c-8.504,-2.548 -10.415,-10.415 -4.892,-20.134c7.878,-13.863 8.2,-15.254 4.812,-20.81c-3.073,-5.041 -7.793,-6.601 -15.77,-5.212c-7.83,1.364 -8.747,0.754 -7.248,-4.813c1.359,-5.048 0.617,-8.278 -2.595,-11.295c-2.69,-2.528 -6.943,-2.914 -15.611,-1.418l-4.75,0.82l0,-3.649c0,-2.007 1.575,-8.457 3.5,-14.333c2.375,-7.249 3.5,-12.553 3.5,-16.501c0,-5.193 -0.356,-6.207 -3.312,-9.432c-2.777,-3.031 -4.109,-3.679 -8.25,-4.014c-2.716,-0.219 -5.838,0.123 -6.938,0.761m26.596,0.161c-1.322,0.679 -3.337,2.493 -4.479,4.031c-1.917,2.581 -1.96,3.003 -0.56,5.5c3.134,5.591 11.772,7.126 40.361,7.173c19.092,0.031 33.072,1.472 30.444,3.138c-2.008,1.272 -9.7,1.084 -29.064,-0.709c-24.129,-2.236 -35.985,-1.118 -41.548,3.915c-1.272,1.15 -2.25,3.206 -2.25,4.726c0,3.098 3.157,7.559 5.984,8.456c1.063,0.337 8.515,-0.135 16.56,-1.051c14.774,-1.68 46.964,-1.629 52.291,0.083c5.304,1.705 -1.225,2.446 -22.335,2.534c-23.881,0.099 -27.497,0.715 -30.889,5.258c-2.47,3.309 -1.491,6.949 2.712,10.079c2.617,1.949 4.21,2.113 21.837,2.257c20.76,0.169 24.426,0.583 29.891,3.371c4.209,2.147 6.645,5.42 7.117,9.564c0.268,2.349 0.814,2.91 2.832,2.91c2.281,0 2.493,-0.366 2.419,-4.185c-0.113,-5.763 -4.151,-10.828 -11.312,-14.186c-5.413,-2.538 -6.302,-2.636 -25.656,-2.827c-19.175,-0.19 -25.451,-1.004 -25.451,-3.302c0,-2.449 6.23,-3.156 27,-3.066c23.234,0.101 26.439,-0.508 29.77,-5.657c1.322,-2.044 1.207,-2.454 -1.433,-5.094c-2.35,-2.349 -4.282,-3.08 -10.645,-4.027c-9.957,-1.481 -29.304,-1.479 -43.268,0.004c-6.008,0.638 -13.174,1.201 -15.924,1.25c-4.363,0.079 -5,-0.165 -5,-1.91c0,-4.408 15.085,-5.525 40.5,-3c7.975,0.792 16.75,1.453 19.5,1.469c5.537,0.031 11.082,-2.308 13.183,-5.562c1.178,-1.822 1.095,-2.419 -0.637,-4.621c-3.194,-4.061 -8.625,-4.868 -38.546,-5.729c-28.66,-0.825 -34.882,-1.687 -32.539,-4.51c2.191,-2.64 10.794,-2.827 24.039,-0.524c9.319,1.62 17.081,2.212 30.5,2.325l18,0.152l0,-2.5l0,-2.5l-19,-0.667c-10.45,-0.366 -22.6,-1.379 -27,-2.249c-9.528,-1.886 -24.027,-2.055 -27.404,-0.319m-46.387,0.359c-0.39,0.39 -0.709,8.276 -0.709,17.524l0,16.814l-2.547,0.639c-1.4,0.352 -2.667,0.473 -2.814,0.269c-0.966,-1.337 -8.083,-19.807 -8.594,-22.302c-0.495,-2.422 -1.145,-3.068 -3.086,-3.068c-3.904,0 -3.482,3.701 1.93,16.959c4.54,11.121 4.778,12.12 3.382,14.25c-2.065,3.152 -2.854,2.912 -5.811,-1.772c-1.649,-2.613 -3.171,-3.948 -4.262,-3.74c-2.793,0.532 -2.475,4.12 0.76,8.586c1.673,2.31 3.042,4.668 3.042,5.24c0,0.572 -0.952,3.838 -2.117,7.259c-1.558,4.577 -2.253,9.679 -2.636,19.331c-0.72,18.164 -2.365,17.014 24.091,16.838c13.198,-0.087 21.137,-0.526 21.816,-1.205c0.702,-0.702 0.919,-6.152 0.633,-15.907c-0.46,-15.699 -2.389,-24.163 -6.975,-30.603l-2.025,-2.844l3.175,-9.092c2.839,-8.13 3.014,-9.252 1.657,-10.61c-2.309,-2.309 -4.205,-0.117 -6.76,7.815c-2.09,6.491 -2.296,6.753 -4.502,5.748c-2.273,-1.036 -2.317,-1.355 -2.585,-18.653c-0.26,-16.853 -0.359,-17.612 -2.313,-17.892c-1.123,-0.161 -2.36,0.027 -2.75,0.416m136.109,4.276c-6.666,4.228 -10.086,11.64 -10.622,23.019c-0.344,7.29 0.138,10.852 3.2,23.671c4.002,16.753 4.482,24.84 1.826,30.749l-1.725,3.84l-2.79,-2.195c-1.535,-1.207 -4.521,-5.635 -6.635,-9.84c-7.015,-13.951 -15.421,-18.886 -21.617,-12.689c-1.961,1.96 -2.455,3.475 -2.455,7.522c0,4.924 0.212,5.294 7.446,13.03c12.482,13.347 19.327,27.407 16.672,34.243c-0.588,1.512 -1.522,2.75 -2.076,2.75c-0.555,0 -2.191,-2.363 -3.635,-5.25c-4.97,-9.931 -9.301,-12.242 -13.334,-7.115c-2.708,3.442 -2.616,6.418 0.579,18.684c1.629,6.254 2.701,13.162 2.78,17.911c0.143,8.547 1.468,11.298 4.151,8.616c2.475,-2.475 1.971,-14.796 -1.1,-26.912c-1.424,-5.618 -2.445,-11.388 -2.269,-12.824c0.298,-2.432 0.48,-2.303 2.667,1.89c5.877,11.266 10.228,13.706 15.132,8.486c2.862,-3.047 3.869,-12.191 1.996,-18.13c-2.11,-6.689 -8.993,-17.332 -15.99,-24.723c-3.714,-3.923 -7.047,-8.082 -7.408,-9.242c-0.96,-3.085 0.277,-5.391 2.892,-5.391c3.168,0 7.53,5.279 11.943,14.454c3.931,8.173 7.661,11.535 12.804,11.542c3.746,0.005 6.343,-2.885 8.195,-9.122c2.33,-7.847 1.916,-14.116 -1.945,-29.445c-3.687,-14.64 -4.491,-25.321 -2.456,-32.648c1.336,-4.809 5.475,-9.682 9.736,-11.463c3.011,-1.257 3.77,-1.216 7.047,0.386c5.74,2.807 7.686,7.741 7.611,19.296c-0.055,8.504 -0.553,11.012 -4.75,23.932c-5.349,16.468 -5.755,20.716 -2.355,24.669c4.182,4.862 7.942,3.751 23.448,-6.928c5.168,-3.559 7.758,-4.74 9.864,-4.5c2.62,0.3 2.877,0.697 3.127,4.827c0.189,3.134 -0.339,5.489 -1.741,7.759c-3.507,5.68 -8.715,7.992 -26.531,11.783c-7.037,1.497 -8.512,2.213 -12.25,5.948c-3.594,3.591 -4.25,4.869 -4.25,8.275c0,4.293 1.243,5.736 10.973,12.729c5.142,3.696 8.267,8.569 7.845,12.235c-0.442,3.847 -4.261,4.107 -12.409,0.845c-3.641,-1.457 -8.421,-2.574 -11.02,-2.574c-3.886,0 -5.11,0.521 -7.989,3.4c-2.951,2.951 -3.4,4.053 -3.4,8.353l0,4.953l-4.839,-0.465c-4.359,-0.418 -5.055,-0.191 -7,2.282c-1.189,1.511 -2.161,4.036 -2.161,5.612c0,2.363 0.423,2.865 2.417,2.865c1.726,0 2.669,-0.758 3.301,-2.654c0.806,-2.417 1.366,-2.662 6.299,-2.75c4.723,-0.084 5.577,-0.416 6.684,-2.596c0.698,-1.375 1.276,-4.402 1.284,-6.727c0.012,-3.362 0.512,-4.552 2.442,-5.817c2.681,-1.757 4.821,-1.395 14.36,2.426c6.656,2.667 11.216,2.69 14.541,0.075c7.506,-5.904 2.999,-17.617 -10.328,-26.841c-6.193,-4.286 -6.574,-6.06 -2.181,-10.146c2.062,-1.918 5.36,-3.084 13.615,-4.817c12.514,-2.625 18.936,-5.532 23.364,-10.576c8.244,-9.389 5.842,-24.577 -3.887,-24.577c-3.565,0 -10.874,3.562 -17.171,8.369c-5.814,4.437 -10.523,6.883 -11.769,6.113c-1.91,-1.18 -0.883,-7.201 3.663,-21.482c3.319,-10.428 4.75,-16.747 5.095,-22.5c1.277,-21.259 -12.426,-33.786 -26.911,-24.6m-210.068,7c-5.925,10.879 -4.992,13.577 5.75,16.621c3.3,0.935 6.352,2.025 6.783,2.422c1.894,1.748 -1.191,4.606 -8.733,8.09c-8.743,4.04 -10.912,5.851 -10.37,8.661c0.467,2.427 4.739,4.315 12.859,5.683l6.777,1.142l-9.658,2.397c-12.354,3.067 -17.324,5.208 -20.006,8.618c-2.718,3.455 -2.725,5.893 -0.025,8.593c3.171,3.171 11.654,2.142 25.266,-3.063c5.991,-2.291 11.841,-4.03 13,-3.865c3.878,0.554 -4.092,5.235 -14.893,8.748c-18.621,6.055 -39.095,17.727 -38.303,21.837c0.59,3.062 3.523,2.395 10.462,-2.38c8.388,-5.771 17.608,-10.059 31.202,-14.51c12.669,-4.148 18.139,-8.204 18.139,-13.449c0,-2.52 -0.645,-3.822 -2.496,-5.034c-3.197,-2.095 -6.759,-1.448 -20.23,3.675c-9.932,3.777 -19.219,5.251 -17.711,2.812c1.074,-1.738 6.68,-3.761 19.151,-6.91c15.217,-3.843 18.011,-6.354 12.831,-11.533c-1.94,-1.941 -3.484,-2.455 -7.375,-2.455c-2.706,0 -6.374,-0.291 -8.151,-0.646c-3.211,-0.642 -3.187,-0.667 3.726,-3.869c7.874,-3.647 10.255,-6.329 10.255,-11.553c0,-4.639 -1.889,-6.279 -9.75,-8.461c-3.437,-0.954 -6.242,-2.238 -6.233,-2.853c0.009,-0.615 1.352,-3.368 2.983,-6.118c3.665,-6.178 3.927,-9.503 0.75,-9.493c-1.75,0.005 -3.084,1.537 -6,6.893m-102.357,8.078c-4.051,1.637 -8.178,8.033 -10.27,15.913c-3.021,11.384 -6.123,28.586 -6.123,33.96c0,8.59 3.159,9.137 15.978,2.767c10.662,-5.298 16.161,-8.997 21.946,-14.763c7.508,-7.483 9.319,-15.703 4.517,-20.505c-2.252,-2.251 -3.094,-2.479 -7,-1.893l-4.441,0.666l-0.032,-5.812c-0.017,-3.196 -0.58,-6.525 -1.25,-7.398c-2.763,-3.599 -8.535,-4.87 -13.325,-2.935m-31.393,2.803c0,3.537 10.926,14.845 13.419,13.889c2.824,-1.084 1.683,-4.145 -3.419,-9.17c-2.75,-2.709 -5,-5.504 -5,-6.212c0,-0.709 -1.125,-1.288 -2.5,-1.288c-2.067,0 -2.5,0.481 -2.5,2.781m111,1.119c-3.973,0.53 -4.5,0.893 -4.5,3.1c0,2.453 0.131,2.495 7,2.24c11.608,-0.431 13.5,-0.962 13.5,-3.785c0,-2.339 -0.271,-2.448 -5.75,-2.305c-3.162,0.083 -7.775,0.42 -10.25,0.75m-80.315,4.062c-1.702,2.024 -3.307,6.382 -5.06,13.75c-2.474,10.391 -5.707,28.508 -5.185,29.051c0.559,0.581 11.978,-4.996 17.946,-8.765c3.495,-2.208 8.438,-6.241 10.985,-8.963c3.758,-4.018 4.629,-5.637 4.629,-8.603l0,-3.655l-3.75,0.675c-3.442,0.618 -6.25,2.748 -6.25,4.739c0,0.445 -1.184,0.809 -2.631,0.809c-2.492,0 -2.595,-0.197 -1.962,-3.75c2.5,-14.005 1.719,-18.25 -3.353,-18.25c-1.96,0 -3.67,0.944 -5.369,2.962m-31.008,6.751c-0.281,0.455 -0.661,11.488 -0.844,24.518c-0.323,22.969 -0.269,23.755 1.77,25.805c1.157,1.163 3.943,2.362 6.191,2.663c4.703,0.631 4.998,1.131 4.432,7.493l-0.418,4.691l-4.877,-0.578c-4.671,-0.553 -4.924,-0.455 -5.982,2.309c-0.638,1.669 -0.966,7.243 -0.777,13.218c0.376,11.847 1.547,13.794 7.619,12.671l3.292,-0.609l-0.292,8.303l-0.291,8.303l-3.5,0.328c-5.797,0.544 -7,2.418 -7,10.904c0,6.87 0.217,7.639 2.923,10.345c2.141,2.141 3.88,2.923 6.5,2.923l3.577,0l0,6.5l0,6.5l-4.545,0c-3.493,0 -5.114,0.568 -7,2.455c-2.273,2.272 -2.455,3.181 -2.455,12.277c0,12.898 0.87,14.268 9.057,14.268l5.943,0l0,8.611l0,8.612l-3.377,-0.634c-4.801,-0.901 -8.178,0.695 -9.5,4.489c-0.618,1.771 -1.123,7.878 -1.123,13.571c0,12.257 1.177,14.351 8.066,14.351c7.144,0 7.934,0.98 7.934,9.844c0,9.424 -0.993,11.039 -7.54,12.262c-7.778,1.453 -8.96,3.285 -8.96,13.886c0,11.354 0.765,12.288 10.513,12.839c8.045,0.454 8.329,0.827 7.796,10.222l-0.309,5.447l-6.462,0.303c-3.554,0.167 -7.041,0.785 -7.75,1.373c-1.668,1.384 -1.78,21.02 -0.138,24.14c1.675,3.183 2.773,3.652 8.6,3.669l5.25,0.015l-0.014,6.25c-0.023,10.502 -0.198,10.75 -7.603,10.75c-6.066,0 -6.383,0.119 -6.383,2.393c0,1.316 0.712,2.666 1.582,3c3.026,1.161 12.891,0.564 14.822,-0.898c2.152,-1.628 3.446,-7.871 3.536,-17.054c0.082,-8.268 -1.135,-9.683 -8.806,-10.238c-6.109,-0.442 -6.134,-0.456 -6.143,-3.573c-0.004,-1.722 -0.292,-5.492 -0.639,-8.38l-0.631,-5.25l5.093,0c9.34,0 12.191,-2.878 12.18,-12.297c-0.007,-6.991 -1.606,-12.318 -4.255,-14.174c-1.401,-0.981 -4.451,-1.529 -8.505,-1.529l-6.322,0l0.294,-7.225l0.294,-7.226l4.38,-0.744c5.743,-0.977 8.965,-3.189 10.704,-7.351c1.748,-4.185 1.835,-17.056 0.137,-20.454c-1.601,-3.205 -7.172,-5.996 -11.971,-5.998l-3.75,-0.002l0.074,-5.75c0.041,-3.163 0.385,-7.775 0.765,-10.25l0.691,-4.5l4.215,0.315c3.454,0.259 4.687,-0.156 6.827,-2.297c2.525,-2.524 2.601,-2.948 2.27,-12.655c-0.316,-9.29 -0.529,-10.194 -2.831,-12.057c-1.95,-1.577 -3.512,-1.916 -7.199,-1.562c-4.462,0.429 -4.724,0.317 -5.01,-2.146c-0.166,-1.429 -0.151,-5.41 0.033,-8.848l0.336,-6.25l4.46,0c3.451,0 5.039,-0.579 7.018,-2.558c2.389,-2.389 2.534,-3.079 2.198,-10.47c-0.42,-9.246 -1.629,-11.039 -8.024,-11.9c-3.95,-0.532 -4.314,-0.843 -5.157,-4.41c-1.322,-5.596 0.327,-8.662 4.658,-8.662c5.314,0 6.355,-2.086 6.536,-13.104c0.14,-8.472 -0.097,-9.927 -2.006,-12.355c-1.814,-2.305 -2.709,-2.664 -5.51,-2.209l-3.344,0.542l0,-8.418l0,-8.418l4.318,0.592c6.431,0.882 7.682,-0.843 7.682,-10.591c0,-9.487 -1.393,-11.723 -8,-12.847l-4.5,-0.765l0,-23.463c0,-23.267 -0.018,-23.467 -2.156,-23.771c-1.185,-0.169 -2.385,0.065 -2.667,0.52m200.53,10.703c-6.874,6.448 -9.471,14.306 -10.025,30.334l-0.423,12.25l3.495,0c1.923,0 4.902,-0.281 6.621,-0.625c2.615,-0.523 3.125,-1.086 3.125,-3.451c0,-14.832 9.632,-24.445 17.614,-17.58c2.514,2.163 2.777,3.11 3.402,12.25l0.676,9.906l0.13,-11.5c0.146,-12.973 -0.725,-17.886 -4.559,-25.716c-3.371,-6.884 -7.3,-10.284 -11.883,-10.284c-2.72,0 -4.478,0.949 -8.173,4.416m-30.094,-1.052c-0.847,1.021 -0.753,3.343 0.378,9.25c2.564,13.403 1.503,23.421 -3.012,28.409c-0.941,1.04 -4.791,3.068 -8.555,4.506c-11.397,4.355 -14.608,9.835 -16.974,28.971c-1.452,11.744 -1.42,42.395 0.054,50.52c1.472,8.117 3.825,12.689 8.882,17.258c8.248,7.452 20.242,8.398 30.265,2.387c11.095,-6.654 14.494,-18.38 13.525,-46.665c-0.408,-11.898 -1.138,-18.705 -2.62,-24.406c-3.848,-14.809 -7.131,-17.924 -19.439,-18.439c-7.748,-0.324 -8.43,-0.183 -11.464,2.37c-4.344,3.655 -5.803,7.569 -7.75,20.786c-2.105,14.293 -1.511,42.678 1.041,49.689c4.299,11.813 13.997,15.594 22.134,8.629c8.206,-7.024 11.957,-20.099 11.081,-38.629c-0.961,-20.337 -5.193,-30 -13.138,-30c-5.157,0 -8.891,3.77 -11.116,11.221c-2.735,9.163 -2.802,41.999 -0.093,46.132c1.439,2.196 2.446,2.701 4.901,2.456c6.426,-0.642 9.795,-10.56 9.773,-28.769c-0.016,-14.127 -0.446,-16.04 -3.603,-16.04l-2.383,0l0,14.318c0,10.58 -0.438,15.737 -1.678,19.75c-1.63,5.274 -1.699,5.345 -2.382,2.432c-1.064,-4.54 -1.055,-27.229 0.014,-33.757c1.398,-8.532 2.97,-11.243 6.518,-11.243c2.724,0 3.088,0.452 4.834,6c2.79,8.867 3.423,27.124 1.275,36.779c-1.876,8.434 -6.01,15.173 -10.31,16.808c-3.42,1.3 -6.952,-1.104 -9.771,-6.652c-1.82,-3.581 -2,-5.913 -2,-25.935c0,-17.644 0.355,-23.511 1.792,-29.633c2.307,-9.825 3.983,-11.424 11.736,-11.196c6.819,0.2 9.429,1.379 11.372,5.137c3.381,6.537 4.751,14.864 5.302,32.214c0.893,28.153 -1.513,36.924 -11.57,42.178c-11.104,5.8 -22.927,1.714 -27.634,-9.551c-4.369,-10.456 -3.963,-54.962 0.633,-69.424c1.516,-4.77 5.452,-8.976 9.146,-9.774c8.76,-1.89 14.716,-7.32 17.198,-15.68c1.923,-6.474 1.92,-11.244 -0.014,-22.335c-1.872,-10.736 -3.566,-13.424 -6.348,-10.072m-87.648,3.588c-3.766,1.526 -4.93,4.031 -4.948,10.651c-0.014,5.193 0.377,6.731 2.165,8.521c2.575,2.578 7.061,2.746 10.644,0.398c2.843,-1.863 3.641,-4.183 3.66,-10.637c0.024,-7.934 -4.786,-11.663 -11.521,-8.933m1.202,5.715c-0.848,0.847 -0.877,8.79 -0.036,9.631c0.348,0.347 1.473,0.182 2.5,-0.368c2.692,-1.441 2.722,-9.93 0.036,-9.93c-1.009,0 -2.134,0.3 -2.5,0.667m156.9,13.225c-0.342,0.553 -0.152,3.948 0.423,7.545c2.007,12.564 -1.281,18.355 -14.235,25.072c-3.99,2.068 -8.718,4.849 -10.506,6.178c-8.514,6.329 -8.287,17.018 0.477,22.466c3.13,1.947 5.054,2.333 11.274,2.265c9.142,-0.101 13.833,-1.363 20.965,-5.64c9.456,-5.671 15.393,-15.588 16.696,-27.889c0.458,-4.323 0.076,-7.191 -1.666,-12.5c-2.775,-8.455 -3.483,-9.389 -7.117,-9.389c-2.403,0 -2.878,0.413 -2.878,2.5c0,1.402 0.579,2.5 1.317,2.5c1.673,0 4.683,9.421 4.683,14.656c0,6.066 -2.603,13.536 -6.49,18.627c-10.183,13.336 -37.51,15.982 -37.51,3.633c0,-3.945 3.071,-6.915 11.633,-11.25c15.518,-7.856 19.456,-13.156 19.249,-25.905c-0.167,-10.215 -0.945,-13.197 -3.544,-13.568c-1.182,-0.169 -2.429,0.145 -2.771,0.699m-29.119,5.547c-0.923,1.409 -1.913,5.486 -2.2,9.061l-0.522,6.5l4.578,0c2.518,0 4.74,-0.338 4.938,-0.75c0.199,-0.412 0.113,-4.35 -0.191,-8.75c-0.5,-7.265 -0.752,-8.029 -2.738,-8.311c-1.46,-0.208 -2.745,0.54 -3.865,2.25m-129.781,2.228c-1.435,1.434 -0.507,3.708 3.258,7.985c16.685,18.955 2.336,51.972 -22.423,51.596c-12.482,-0.189 -20.613,-6.146 -24.012,-17.593c-2.706,-9.113 -1.395,-16.07 4.278,-22.697c4.684,-5.472 10.328,-8.163 18.232,-8.695c8.744,-0.587 14.198,2.207 18.62,9.541c5.065,8.398 5.128,16.51 0.182,23.469c-5.748,8.087 -20.985,9.002 -29.105,1.747c-2.701,-2.413 -3.197,-3.556 -3.197,-7.365c0,-5.133 2.249,-8.831 7.592,-12.486c4.494,-3.074 9.357,-2.405 13.158,1.812c3.486,3.867 3.526,7.264 0.115,9.946c-3.126,2.459 -4.682,2.601 -6.361,0.578c-1.001,-1.206 -0.913,-1.995 0.454,-4.081c2.016,-3.077 1.393,-5.424 -1.441,-5.424c-2.19,0 -6.007,5.227 -6.013,8.234c-0.002,0.954 1.233,3.068 2.746,4.697c6.021,6.488 17.104,2.696 18.817,-6.437c0.891,-4.748 -2.598,-11.732 -7.317,-14.649c-13.758,-8.502 -33.034,8.552 -26.461,23.411c4.805,10.862 20.867,15.952 32.711,10.367c8.91,-4.202 13.44,-11.693 13.478,-22.286c0.018,-5.027 -0.578,-7.321 -3.235,-12.454c-5.58,-10.779 -14.444,-15.707 -26.086,-14.5c-19.3,2.001 -31.987,19.104 -27.348,36.869c4.263,16.325 15.624,24.53 32.603,23.547c9.506,-0.55 16.086,-3.828 23.107,-11.51c12.557,-13.74 13.19,-36.054 1.394,-49.174c-4.373,-4.864 -6.252,-5.943 -7.746,-4.448m307.495,24.083c0.336,5.855 1.167,8.285 6.265,18.325c6.378,12.56 6.606,14.474 2.316,19.411l-2.243,2.581l-3.961,-2.033c-9.272,-4.76 -19.939,-0.821 -19.939,7.362c0,8.056 8.182,10.441 18.426,5.371l5.14,-2.543l1.913,3.138c2.043,3.351 2.357,5.404 1.123,7.345c-0.592,0.932 -1.67,0.885 -4.734,-0.206c-5.151,-1.835 -8.961,-1.841 -15.077,-0.025c-5.634,1.674 -9.543,5.248 -11.895,10.878c-2.065,4.945 -1.206,8.871 2.654,12.119c2.535,2.133 4.012,2.527 9.476,2.527c7.85,0 10.465,-1.252 16.832,-8.058l4.895,-5.233l2.289,2.661c3.765,4.377 5.083,12.507 2.721,16.783c-0.198,0.358 -2.499,-0.012 -5.112,-0.824c-14.863,-4.619 -31.251,3.947 -31.251,16.335c0,13.392 19.981,15.45 32.123,3.308c3.857,-3.857 4.877,-4.466 4.877,-2.913c0,3.351 -4.022,10.723 -8.198,15.026c-5.912,6.092 -12.632,8.743 -26.474,10.443c-15.71,1.929 -16.882,2.226 -20.352,5.146c-3.92,3.298 -4.248,8.326 -0.543,8.326c1.554,0 2.661,-0.722 3.067,-2.001c0.973,-3.065 3.158,-3.773 16.828,-5.458c21.677,-2.672 30.977,-7.951 38.004,-21.572c3.352,-6.496 3.754,-7.996 3.202,-11.949c-0.832,-5.958 -0.831,-10.22 0.003,-17.664c0.859,-7.667 -0.429,-11.813 -5.443,-17.522c-2.921,-3.326 -3.624,-4.799 -3.021,-6.334c1.688,-4.293 1,-11.113 -1.489,-14.781l-2.416,-3.561l2.057,-1.829c2.454,-2.181 5.722,-8.974 5.753,-11.955c0.012,-1.169 -2.707,-7.55 -6.043,-14.18c-4.433,-8.811 -6.22,-13.553 -6.64,-17.624c-0.527,-5.103 -0.782,-5.57 -3.048,-5.57c-2.424,0 -2.465,0.132 -2.085,6.75m-267.821,-1.711c-7.094,3.44 -18.147,13.839 -24.227,22.793c-2.184,3.216 -6.291,10.374 -9.126,15.905c-5.184,10.116 -6.014,14.452 -2.881,15.049c1.149,0.218 2.967,-2.435 6.378,-9.309c6.834,-13.77 13.222,-23.017 21.12,-30.575c6.469,-6.19 13.395,-10.931 13.395,-9.169c0,0.431 -6.067,9.105 -13.481,19.276c-7.415,10.17 -13.49,19.278 -13.5,20.241c-0.011,0.963 -0.469,1.75 -1.019,1.75c-0.55,0 -1,1.125 -1,2.5c0,2.295 0.368,2.5 4.485,2.5c3.445,0 6.696,-1.16 14.015,-5c10.224,-5.364 12.85,-6.058 12.31,-3.253c-0.199,1.032 -4.37,3.902 -10.194,7.013c-14.645,7.823 -21.616,14.516 -21.616,20.755c0,6.275 3.5,7.06 13.5,3.025c7.985,-3.221 16.296,-4.638 15.011,-2.558c-0.434,0.702 -4.078,2.796 -8.097,4.653c-7.613,3.518 -10.414,6.231 -10.414,10.088c0,3.01 4.286,3.192 5.605,0.237c0.5,-1.122 4.267,-3.709 8.37,-5.75c8.835,-4.394 11.881,-7.874 10.451,-11.94c-1.909,-5.429 -9.829,-5.418 -23.324,0.033c-6.907,2.79 -7.004,1.791 -0.431,-4.424c3.755,-3.55 17.204,-11.879 19.182,-11.879c0.553,0 2.612,-1.516 4.576,-3.368c4.544,-4.286 4.85,-8.481 0.848,-11.629c-3.641,-2.864 -7.457,-2.108 -18.027,3.573c-4.537,2.439 -8.25,4.225 -8.25,3.97c0,-0.256 5.689,-8.246 12.642,-17.755c13.8,-18.875 15.8,-22.501 14.835,-26.895c-0.828,-3.769 -3.133,-3.74 -11.136,0.143m78.281,4.141c-1.014,3.63 -2.622,13.814 -2.622,16.61c0,4.734 2.858,10.972 6.075,13.263c1.566,1.116 5.421,2.914 8.567,3.996c6.013,2.069 9.358,4.404 9.358,6.533c0,1.954 -4.579,5.117 -10.026,6.927c-7.028,2.334 -10.974,6.312 -10.974,11.063c0,5.106 2.093,7.073 10.044,9.441c11.133,3.316 11.682,6.203 2.008,10.544c-11.047,4.958 -16.802,14.236 -15.785,25.45c1.009,11.132 6.901,17.661 19.907,22.06c9.687,3.277 20.082,3.668 28.454,1.069c15.408,-4.783 23.83,-15.223 27.805,-34.466c4.24,-20.527 -0.318,-36.915 -11.747,-42.236c-12.193,-5.677 -21.401,-1.429 -28.324,13.066c-7.412,15.52 -4.633,33.668 5.951,38.856c11.404,5.59 24.651,-6.108 24.677,-21.79c0.021,-12.89 -8.274,-20.295 -15.899,-14.194c-2.081,1.665 -6.07,10.719 -6.081,13.801c-0.013,3.577 4.495,8.827 7.579,8.827c3.074,0 3.354,-3.93 0.411,-5.768c-1.1,-0.687 -1.978,-2.258 -1.952,-3.49c0.071,-3.335 3.216,-9.169 5.142,-9.54c4.878,-0.939 6.843,11.893 2.981,19.463c-5.882,11.529 -17.004,11.097 -20.203,-0.784c-2.72,-10.099 1.509,-25.581 8.715,-31.908c6.648,-5.836 16.796,-3.161 21.317,5.618c2.244,4.358 2.499,6.038 2.491,16.382c-0.016,18.876 -4.801,31.016 -14.988,38.025c-7.175,4.936 -12.415,6.319 -21.833,5.759c-19.969,-1.186 -29.639,-9.053 -28.47,-23.159c0.634,-7.639 4.046,-11.805 13.33,-16.273c7.875,-3.791 10.286,-6.939 9.058,-11.831c-1.017,-4.05 -3.998,-6.257 -11.548,-8.551c-7.476,-2.27 -8.377,-2.9 -7.485,-5.227c0.564,-1.469 1.977,-2.271 12.762,-7.245c7.208,-3.325 9.765,-7.446 7.704,-12.42c-1.807,-4.363 -6.268,-7.776 -12.549,-9.602c-3.627,-1.055 -6.268,-2.606 -8.059,-4.735c-2.533,-3.01 -2.628,-3.516 -1.919,-10.191c1.367,-12.88 1.271,-13.985 -1.248,-14.343c-1.246,-0.177 -2.42,0.27 -2.624,1m172.378,5.261c0,1.343 0.407,2.693 0.905,3c0.497,0.307 2.301,3.034 4.008,6.059c2.463,4.364 3.619,5.5 5.596,5.5c3.078,0 3.346,-2.827 0.643,-6.79c-1.016,-1.491 -2.928,-4.394 -4.25,-6.453c-2.905,-4.527 -6.902,-5.289 -6.902,-1.316m-109.749,17.104c-6.915,1.862 -12.096,4.552 -21.554,11.19c-5.177,3.634 -7.697,6.03 -7.49,7.121c0.601,3.156 4.357,2.303 10.823,-2.457c3.507,-2.582 9.323,-6.091 12.924,-7.797c6.19,-2.933 7.198,-3.102 18.546,-3.102c10.509,0 12.657,0.297 17.287,2.389c6.256,2.827 9.213,6.205 9.213,10.523c0,6.471 -5.772,10.588 -14.842,10.588c-5.448,0 -12.595,-2.181 -15.366,-4.689c-1.689,-1.528 -1.699,-1.757 -0.145,-3.473c1.255,-1.387 3.106,-1.838 7.539,-1.838c4.531,0 6.021,-0.377 6.508,-1.645c1.103,-2.875 -2.547,-4.557 -8.945,-4.12c-7.078,0.483 -11.749,4.166 -11.749,9.265c0,8.208 17.292,14.953 29.705,11.587c13.257,-3.594 17.66,-18.048 8.14,-26.724c-8.09,-7.373 -26.838,-10.522 -40.594,-6.818m116.722,18.276c-3.545,2.87 -2.027,5.599 2.627,4.726c4.386,-0.823 8.4,-2.585 8.4,-3.688c0,-0.452 -1.238,-1.096 -2.75,-1.433c-1.512,-0.336 -3.475,-0.805 -4.361,-1.042c-0.885,-0.237 -2.648,0.41 -3.916,1.437m-360.128,7.816c-5.615,4.988 -6.443,6.953 -3.664,8.705c1.367,0.863 2.674,0.137 7,-3.891c9.125,-8.494 5.957,-13.067 -3.336,-4.814m325.149,-0.903c-2.482,3.156 -2.113,7.591 0.881,10.585c2.254,2.254 9.25,3.921 12.904,3.074c6.788,-1.574 8.451,-4.566 6.171,-11.106c-1.344,-3.855 -4.574,-5.287 -11.924,-5.287c-5.216,0 -6.124,0.309 -8.032,2.734m-267.343,4.516c-0.317,2.337 -0.879,13.475 -1.248,24.75c-0.369,11.275 -1.038,21.481 -1.486,22.681c-0.621,1.661 -1.961,2.348 -5.616,2.88c-8.442,1.229 -12.301,4.267 -12.301,9.686c0,3.063 4.499,7.348 11.771,11.21c3.865,2.053 5.828,3.741 6.035,5.188c0.289,2.029 -0.162,2.164 -8.339,2.5c-7.648,0.314 -8.864,0.627 -10.555,2.716c-1.236,1.525 -1.912,3.918 -1.912,6.764c0,6.655 4.165,10.611 15,14.252l8.5,2.855l-9.399,-0.513c-11.052,-0.604 -14.954,0.844 -17.662,6.552c-2.003,4.219 -1.488,11.412 1.014,14.177c2.568,2.838 10.208,5.726 18.505,6.994c4.102,0.627 7.637,1.32 7.856,1.538c0.219,0.219 -2.913,1.404 -6.958,2.632c-12.024,3.652 -15.724,9.326 -10.292,15.782c4.634,5.507 17.383,6.936 25.474,2.856c8.82,-4.447 10.381,-13.692 7.136,-42.25c-3.128,-27.529 -3.277,-33.537 -1.686,-68c1.905,-41.275 1.993,-37.5 -0.877,-37.5c-3.16,0 -3.392,1.44 -4.603,28.537c-1.474,32.99 -1.251,56.016 0.694,71.463c1.794,14.248 2.318,33.641 1.034,38.232c-0.449,1.603 -2.102,3.437 -4,4.438c-6.499,3.427 -19.236,1.319 -19.236,-3.183c0,-1.583 1.619,-2.554 7.96,-4.772c9.283,-3.248 11.54,-4.978 11.54,-8.847c0,-3.882 -2.841,-5.382 -12.7,-6.705c-4.51,-0.605 -9.91,-1.902 -12,-2.883c-3.373,-1.584 -3.833,-2.238 -4.098,-5.834c-0.541,-7.364 3.305,-8.893 17.912,-7.119c7.559,0.918 9.886,-0.324 9.886,-5.276c0,-3.775 -1.726,-5.029 -11.773,-8.551c-9.334,-3.272 -12.996,-6.503 -11.765,-10.38c0.611,-1.927 1.4,-2.12 8.651,-2.12c7.137,0 8.237,-0.259 10.432,-2.455c5.092,-5.091 2.388,-11.317 -6.97,-16.052c-3.023,-1.529 -6.456,-3.802 -7.63,-5.051c-2.042,-2.174 -2.054,-2.313 -0.289,-3.245c1.014,-0.535 4.371,-1.493 7.46,-2.128c9.535,-1.961 9.818,-2.602 10.896,-24.681c0.507,-10.389 0.937,-22.6 0.955,-27.138c0.032,-8.038 -0.028,-8.25 -2.353,-8.25c-2.051,0 -2.468,0.598 -2.963,4.25m271.349,0.222c0,1.898 4.396,3.739 7.941,3.326c1.793,-0.209 2.559,-0.897 2.559,-2.298c0,-1.708 -0.767,-2.044 -5.25,-2.302c-4.242,-0.244 -5.25,0 -5.25,1.274m-42.254,4.614c-9.333,2.199 -26.677,13.665 -26.721,17.664c-0.041,3.677 3.202,2.732 11.154,-3.25c4.44,-3.34 9.818,-6.334 13.692,-7.623c12.019,-4 25.832,-1.186 34.866,7.102c10.226,9.382 13.767,18.772 13.074,34.668c-0.506,11.609 -2.218,15.708 -9.275,22.213c-13.027,12.008 -30.272,13.61 -44.097,4.098c-9.825,-6.76 -15.774,-19.333 -15.83,-33.458c-0.037,-9.11 1.108,-11.975 7.059,-17.665c10.623,-10.157 25.61,-12.163 38.494,-5.15c5.785,3.148 8.902,6.551 12.557,13.708c8.144,15.944 -2.58,34.028 -21.003,35.417c-7.663,0.577 -13.422,-1.682 -18.595,-7.295c-5.138,-5.573 -7.121,-10.358 -7.121,-17.177c0,-7.056 2.746,-12.379 8.388,-16.261c6.194,-4.262 12.353,-5.771 17.39,-4.262c8.596,2.576 13.162,9.315 13.2,19.485c0.035,9.352 -3.965,14.716 -10.951,14.684c-7.87,-0.037 -16.191,-8.209 -14.642,-14.38c1.008,-4.019 4.991,-7.604 8.447,-7.604c3.282,0 4.7,1.288 5.669,5.146c0.832,3.319 -0.893,4.517 -4.062,2.821c-1.917,-1.025 -2.665,-1.025 -3.905,0.005c-2.242,1.861 -1.913,2.826 1.716,5.039c4.276,2.607 6.326,2.504 9.295,-0.466c1.849,-1.849 2.455,-3.521 2.455,-6.777c0,-4.947 -1.861,-8.128 -6.011,-10.274c-10.045,-5.194 -22.082,6.021 -18.949,17.655c2.819,10.468 17.91,18.05 26.76,13.446c8.525,-4.436 12.388,-16.175 9.154,-27.82c-1.467,-5.284 -6.805,-11.864 -11.917,-14.692c-11.551,-6.388 -29.144,0.262 -35.599,13.455c-4.977,10.171 -2.217,23.232 6.845,32.401c6.808,6.888 10.821,8.539 20.717,8.524c6.963,-0.01 9.397,-0.452 13.458,-2.445c15.679,-7.695 21.991,-24.914 14.78,-40.324c-4.075,-8.708 -9.145,-14.031 -17.08,-17.934c-6.211,-3.055 -7.287,-3.26 -17.142,-3.253c-9.593,0.006 -10.999,0.257 -16.016,2.851c-6.073,3.14 -14.331,10.572 -16.654,14.988c-4.234,8.05 -3.301,23.851 2.083,35.283c7.789,16.539 21.953,25.251 39.246,24.141c13.869,-0.89 28.628,-10.637 34.055,-22.492c2.041,-4.458 2.692,-7.724 3.059,-15.353c0.523,-10.843 -0.691,-17.71 -4.493,-25.425c-8.793,-17.839 -28.995,-27.787 -47.55,-23.414m-280.44,2.335l-2.806,2.421l0.12,20.829c0.17,29.504 3.045,71.302 5.057,73.525c0.925,1.022 3.398,1.823 6.182,2.004l4.641,0.3l0.288,8.656l0.287,8.656l-4.076,0.688c-7.221,1.22 -7.558,2.579 -6.171,24.852c0.656,10.532 1.188,21.679 1.183,24.773c-0.018,9.217 0.826,11.875 3.769,11.875l2.531,0l-0.641,-14.75c-0.352,-8.113 -0.942,-20.712 -1.31,-28l-0.669,-13.25l3.655,0c6.221,0 7.654,-2.43 7.654,-12.98c0,-5.997 -0.546,-10.344 -1.643,-13.087c-1.639,-4.096 -1.657,-4.106 -6.442,-3.77l-4.798,0.337l-0.536,-4.5c-1.357,-11.386 -2.916,-44.451 -2.995,-63.5l-0.086,-21l2.25,-0.32c1.305,-0.185 2.319,0.235 2.415,1c0.091,0.726 0.219,14.145 0.286,29.82c0.167,39.151 1.855,47.5 9.601,47.5c2.754,0 3.694,-0.61 5.392,-3.5c1.987,-3.383 2.045,-4.663 1.716,-38.341c-0.326,-33.389 -0.263,-34.826 1.5,-34.488c1.658,0.317 1.889,1.791 2.34,14.941c0.554,16.159 1.177,17.888 6.448,17.888c3.266,0 6.172,-2.305 8.427,-6.684c1.237,-2.402 1.489,-15.542 0.483,-25.169c-0.587,-5.609 -0.849,-6.147 -3,-6.147l-2.358,0l0,14.277c0,11.858 -0.29,14.692 -1.712,16.722l-1.711,2.444l-0.678,-2.472c-0.372,-1.359 -0.434,-7.726 -0.138,-14.148l0.539,-11.677l-3.073,-3.073c-3.009,-3.009 -7.277,-4.011 -9.827,-2.308c-3.444,2.3 -3.664,5.07 -2.922,36.808c0.698,29.852 0.338,39.427 -1.483,39.427c-2.273,0 -3.308,-12.059 -3.648,-42.5l-0.357,-32l-2.551,-2.25c-3.323,-2.931 -7.615,-2.865 -11.133,0.171m352.694,3.331c-4.354,2.175 -8.015,8.408 -6.423,10.935c1.409,2.239 6.074,3.449 10.29,2.669c3.592,-0.664 8.849,-4.744 12.229,-9.49l2.065,-2.901l-3.548,-1.482c-4.725,-1.974 -10.33,-1.871 -14.613,0.269m-157.788,27.642c0.358,5.584 1.115,8.489 3.093,11.863c5.305,9.053 13.335,13.495 22.522,12.459c4.9,-0.552 6.721,-1.846 5.837,-4.149c-0.446,-1.163 -2.036,-1.567 -6.165,-1.567c-7.394,0 -11.745,-1.976 -15.37,-6.981c-3.019,-4.167 -3.485,-5.604 -4.626,-14.269c-0.563,-4.272 -0.884,-4.75 -3.196,-4.75l-2.57,0l0.475,7.394m-106.064,-2.481c-9.985,3.449 -14.241,8.167 -14.938,16.562c-0.711,8.576 1.32,14.164 7.337,20.192c5.473,5.484 12.124,8.333 19.453,8.333c10.895,0 22,-7.227 22,-14.317c0,-4.752 -1.193,-7.605 -4.632,-11.08c-8.206,-8.289 -23.896,-9.802 -30.734,-2.964c-3.435,3.435 -3.329,6.5 0.372,10.715c7.872,8.966 19.994,8.869 19.994,-0.16c0,-3.793 -3.459,-6.501 -7.685,-6.017c-2.25,0.258 -2.815,0.825 -2.815,2.823c0,1.831 0.602,2.585 2.25,2.82c1.879,0.266 3.386,2.18 1.718,2.18c-1.714,0 -7.255,-3.046 -8.901,-4.893c-1.744,-1.957 -1.782,-2.321 -0.388,-3.715c3.934,-3.934 15.404,-2.453 21.334,2.754c8.296,7.284 1.332,15.686 -13.106,15.81c-6.299,0.054 -12.527,-3.024 -16.799,-8.301c-2.58,-3.188 -3.107,-4.798 -3.424,-10.461c-0.317,-5.657 -0.047,-7.11 1.743,-9.381c5.02,-6.366 20.837,-8.744 31.537,-4.741c4.232,1.584 6.658,3.386 10.287,7.64c10.282,12.055 13.616,15.287 17.917,17.369c4.004,1.939 5.426,2.091 13.542,1.456l9.069,-0.709l7.11,7.586c6.923,7.386 7.236,7.587 11.861,7.586c4.33,0 4.75,-0.21 4.75,-2.369c0,-1.956 -0.644,-2.474 -3.69,-2.968c-2.956,-0.48 -5.116,-2.121 -10.859,-8.249l-7.17,-7.65l-10.001,0.716c-11.986,0.858 -14.058,0.079 -20.47,-7.695c-10.486,-12.715 -14.918,-16.449 -22.165,-18.677c-8.427,-2.591 -17.352,-2.662 -24.497,-0.195m61.852,6.337c0,2.158 5.679,7.75 7.87,7.75c1.912,0 7.13,-5.211 7.13,-7.12c0,-2.732 -2.707,-3.455 -5.037,-1.346c-1.829,1.655 -2.088,1.663 -3.792,0.121c-2.752,-2.491 -6.171,-2.162 -6.171,0.595m207.317,-1.022c-1.751,0.562 -4.306,2.204 -5.679,3.647c-5.982,6.292 -3.555,12.125 5.046,12.125c6.387,0 12.198,-3.045 17.254,-9.042l4.214,-4.997l-3.544,-1.48c-3.991,-1.668 -12.504,-1.793 -17.291,-0.253m-224.264,3.208c-1.555,1.873 -0.447,3.856 5.255,9.409c4.504,4.387 8.192,5.288 8.192,2.002c0,-1.731 -9.821,-12.847 -11.349,-12.847c-0.498,0 -1.442,0.646 -2.098,1.436m-3.572,26.958c-6.951,3.028 -11.53,11.553 -9.985,18.587c0.944,4.297 6.609,9.683 11.747,11.169l4.257,1.231l-9,0.888c-22.196,2.189 -38.709,-3.899 -42.822,-15.788c-1.371,-3.963 -3.962,-5.597 -5.861,-3.698c-1.661,1.661 1.258,9.021 5.481,13.818c10.556,11.992 27.748,14.144 67.416,8.44c31.652,-4.551 42.65,-3.993 46.823,2.375c1.539,2.349 1.552,2.799 0.146,4.945c-2.249,3.433 -6.816,3.923 -18.587,1.998l-10.404,-1.702l-2.346,2.727c-1.29,1.5 -2.346,3.455 -2.346,4.343c0,2.984 8.369,9.665 15.854,12.657c8.707,3.48 14.873,7.769 16.206,11.273c1.408,3.703 0.153,8.857 -2.899,11.91c-2.437,2.436 -3.152,2.602 -9.792,2.266c-8.444,-0.426 -14.368,-3.202 -34.074,-15.966c-15.305,-9.913 -24.404,-14.307 -27.84,-13.445c-4.2,1.054 -6.455,4.116 -6.455,8.762c0,3.692 0.562,4.721 4.781,8.75c2.63,2.511 12.849,9.516 22.709,15.566c21.078,12.933 29.32,20.306 34.531,30.892c2.664,5.411 3.342,8.016 3.37,12.941c0.132,24.09 -22.903,37.297 -39.066,22.399c-7.933,-7.313 -12.164,-16.948 -14.304,-32.579c-2.147,-15.681 -5.327,-22.153 -10.886,-22.153c-1.702,0 -3.73,1.004 -5.211,2.58c-2.28,2.426 -2.455,3.455 -2.941,17.306c-0.496,14.119 -0.652,15 -3.794,21.382c-3.934,7.991 -7.067,10.732 -12.267,10.732c-5.3,0 -6.922,-2.593 -6.922,-11.066c0,-7.772 1.943,-13.967 9.208,-29.359c6.456,-13.679 7.378,-20.08 3.455,-24.003c-6.175,-6.175 -11.29,-1.594 -16.67,14.928c-5.702,17.512 -11.614,25.5 -18.873,25.5c-11.855,0 -9.483,-13.576 6.176,-35.347c10.881,-15.128 12.348,-17.621 14.275,-24.249c2.985,-10.269 0.465,-27.266 -7.537,-50.842c-1.669,-4.915 -3.034,-10.653 -3.034,-12.75c0,-3.354 -0.287,-3.812 -2.393,-3.812c-4.591,0 -4.792,5.65 -0.605,17.006c5.855,15.88 8.395,27.603 8.449,38.994c0.059,12.569 -0.571,14.09 -12.645,30.517c-10.41,14.166 -15.106,23.836 -15.639,32.207c-0.395,6.196 -0.348,6.33 3.599,10.277c3.426,3.426 4.615,3.999 8.301,3.999c11.361,0 18.517,-8.438 25.441,-30c2.251,-7.01 5.252,-13 6.512,-13c2.655,0 0.671,8.024 -4.946,20.003c-6.702,14.293 -9.074,22.246 -9.074,30.423c0,10.302 3.817,15.594 11.74,16.275c6.052,0.521 10.604,-1.745 14.899,-7.419c5.777,-7.63 7.597,-14.174 8.264,-29.702c0.424,-9.894 0.963,-14.04 1.861,-14.338c1.883,-0.623 3.938,5.233 5.191,14.791c1.416,10.807 4.442,21.093 8.098,27.525c11.143,19.608 32.016,24.133 46.519,10.087c4.441,-4.302 5.428,-4.884 5.429,-3.202c0,1.132 1.35,4.91 3,8.397c1.649,3.487 2.999,6.958 2.999,7.715c0,2.158 -3.401,3.443 -9.184,3.469c-12.432,0.058 -18.816,3.477 -18.816,10.078c0,7.476 9.259,10.067 22.953,6.423c3,-0.798 5.645,-1.26 5.879,-1.026c0.234,0.233 -0.083,2.441 -0.704,4.906c-1.779,7.066 -1.435,10.958 1.186,13.421c5.265,4.946 13.138,1.246 14.485,-6.806l0.749,-4.479l5.64,7.068c9.977,12.505 14.643,14.964 18.67,9.844c5.009,-6.367 3.88,-12.845 -3.529,-20.254c-2.987,-2.987 -5.295,-5.524 -5.13,-5.637c0.166,-0.113 2.399,-1.407 4.963,-2.875c8.092,-4.631 10.838,-7.47 10.838,-11.203c0,-2.449 -0.733,-3.917 -2.75,-5.51c-4.095,-3.232 -11.007,-2.385 -19.065,2.339c-3.461,2.028 -6.666,3.687 -7.123,3.687c-0.458,0 -1.567,-2.247 -2.465,-4.992c-5.591,-17.096 -14.276,-26.929 -19.325,-21.88c-0.692,0.692 -0.537,-0.889 0.402,-4.091c2.531,-8.634 1.538,-19.135 -2.606,-27.552c-4.803,-9.754 -15.47,-20.092 -29.393,-28.485c-17.699,-10.669 -28.885,-18.33 -31.046,-21.261c-1.916,-2.598 -1.936,-2.861 -0.336,-4.46c1.599,-1.599 2.038,-1.534 7.44,1.116c3.158,1.549 11.301,6.417 18.095,10.817c19.182,12.425 26.873,16.005 35.583,16.564c11.431,0.734 17.302,-3.092 19.455,-12.677c2.153,-9.58 -3.793,-17.348 -17.736,-23.172c-4.512,-1.885 -9.65,-4.688 -11.417,-6.23l-3.213,-2.803l5,0.803c2.75,0.442 9.2,0.803 14.334,0.803c9.277,0 9.351,-0.02 12.25,-3.266c5.27,-5.902 3.329,-13.948 -4.416,-18.3c-5.93,-3.333 -19.239,-3.702 -37.168,-1.031c-16.897,2.518 -17.026,2.52 -12,0.231c4.297,-1.957 10.403,-8.112 12.969,-13.074c0.87,-1.683 2.289,-3.06 3.153,-3.06c0.864,0 3.665,1.845 6.225,4.1c6.613,5.828 9.859,7.355 12.792,6.019c1.599,-0.729 2.361,-1.914 2.361,-3.673c0,-2.255 -0.373,-2.558 -2.835,-2.299c-2.188,0.229 -4.07,-0.788 -8.25,-4.458c-2.978,-2.615 -6.491,-5.03 -7.805,-5.366c-3.658,-0.934 -7.385,0.86 -9.604,4.625c-8.296,14.074 -22.85,18.455 -30.224,9.098c-2.083,-2.643 -1.493,-7.641 1.291,-10.95c3.487,-4.145 9.17,-5.648 13.89,-3.676c3.074,1.285 3.537,1.927 3.537,4.907c0,5.923 -6.16,8.105 -6.816,2.414c-0.248,-2.144 -0.843,-2.741 -2.731,-2.741c-4.863,0 -4.435,7.924 0.568,10.511c5.549,2.869 10.526,1.2 13.485,-4.522c2.946,-5.698 0.928,-12.679 -4.473,-15.472c-3.573,-1.848 -11.451,-1.91 -15.552,-0.123m112.58,2.696c-2.442,0.479 -7.617,2.762 -11.5,5.075c-12.173,7.248 -19.697,10.835 -22.727,10.835c-2.799,0 -2.897,-0.15 -2.27,-3.489c0.524,-2.794 0.302,-3.625 -1.11,-4.167c-2.226,-0.854 -5.454,2.882 -5.454,6.312c0,3.106 4.197,7.344 7.273,7.344c4.247,0 12.108,-2.856 18.227,-6.621c12.084,-7.436 16.453,-9.468 21.684,-10.083c5.073,-0.596 5.248,-0.541 3.816,1.217c-0.825,1.013 -9.375,5.622 -19,10.241c-9.625,4.62 -18.738,9.574 -20.25,11.01c-3.438,3.263 -3.717,8.269 -0.633,11.353c3.641,3.641 8.917,2.166 30.208,-8.443c10.546,-5.255 20.3,-9.83 21.675,-10.166c2.442,-0.597 2.453,-0.574 0.5,0.997c-1.1,0.885 -8.436,4.785 -16.303,8.667c-15.553,7.675 -23.176,12.818 -27.447,18.515c-4.765,6.357 -2.773,12.313 4.116,12.313c3.793,0 17.591,-5.18 29.115,-10.93c13.362,-6.668 17.019,-9.074 17.019,-11.196c0,-3.385 -2.617,-3.126 -9.86,0.978c-11.657,6.606 -31.494,15.148 -35.177,15.148c-3.101,0 -2.359,-1.438 3.512,-6.803c3.826,-3.497 10.181,-7.347 21.102,-12.783c19.4,-9.658 23.423,-12.443 23.423,-16.22c0,-8.567 -9.835,-6.706 -35.392,6.698c-14.17,7.433 -19.803,9.631 -22.262,8.687c-3.026,-1.161 0.831,-3.698 19.132,-12.585c19.804,-9.616 23.522,-12.286 23.522,-16.89c0,-5.467 -4.657,-7.031 -14.939,-5.014m-137.499,12.857c-2.576,2.229 -5.106,4.053 -5.623,4.053c-0.516,0 -0.939,1.125 -0.939,2.5c0,1.991 0.502,2.5 2.467,2.5c2.867,0 13.033,-8.535 13.033,-10.942c0,-3.115 -4.177,-2.232 -8.938,1.889m249.818,2.489c-1.716,0.747 -4.595,3.193 -6.397,5.436l-3.277,4.077l-3.388,-2.974c-4.78,-4.197 -10.811,-4.185 -15.324,0.031l-3.217,3.005l-3.423,-3.005c-2.013,-1.767 -4.543,-3.004 -6.139,-3.002c-3.505,0.005 -8.851,3.274 -9.693,5.927c-0.626,1.971 -2.522,2.937 -2.522,1.285c0,-1.581 -5.91,-4.216 -9.454,-4.216c-7.647,0 -12.546,5.057 -12.546,12.95c0,3.653 0.245,4.05 2.5,4.05c1.987,0 2.5,-0.503 2.5,-2.453c0,-3.937 2.036,-7.319 5.193,-8.627c2.539,-1.051 3.297,-0.947 5.621,0.776c1.477,1.095 3.195,3.524 3.817,5.398c1.436,4.323 5.543,4.909 6.359,0.906c0.838,-4.11 4.329,-9.042 6.848,-9.674c3.818,-0.958 8.452,4.368 8.569,9.851c0.084,3.92 0.326,4.323 2.593,4.323c2.249,0 2.556,-0.491 3.061,-4.887c0.442,-3.846 1.244,-5.496 3.766,-7.75c1.762,-1.574 3.692,-2.863 4.289,-2.863c1.865,0 7.884,6.702 7.884,8.778c0,2.944 2.595,4.803 4.5,3.222c0.825,-0.685 1.5,-2.121 1.5,-3.192c0,-2.419 5.41,-10.422 7.972,-11.793c5.853,-3.132 12.302,2.068 13.516,10.9c0.631,4.587 0.947,5.085 3.226,5.085c2.465,0 2.516,-0.144 2.099,-5.907c-0.515,-7.125 -3.626,-12.351 -9.023,-15.161c-4.328,-2.253 -7.095,-2.374 -11.41,-0.496m-60.204,24.634c-15.917,3.132 -29.792,16.85 -35.224,34.826c-2.056,6.801 -2.17,8.451 -1.421,20.5c0.448,7.207 0.719,15.294 0.602,17.972c-0.203,4.666 -2.989,11.807 -5.119,13.123c-0.558,0.345 -1.014,1.725 -1.014,3.068c0,3.721 3.948,3.241 6.701,-0.816c5.202,-7.662 5.551,-9.783 4.817,-29.201c-0.619,-16.35 -0.497,-18.628 1.294,-24.29c5.471,-17.291 19.016,-28.713 35.533,-29.962c8.848,-0.669 13.484,0.657 18.666,5.339c5.699,5.148 8.146,11.837 8.179,22.355c0.031,9.729 -2.082,16.181 -6.994,21.358c-6.429,6.775 -17.359,9.166 -22.921,5.014c-3.927,-2.932 -7.287,-10.302 -7.422,-16.28c-0.091,-4.035 0.421,-5.747 2.557,-8.547c3.532,-4.63 6.044,-5.854 10.454,-5.095c7.166,1.234 8.568,1.131 8.927,-0.657c0.219,-1.095 -0.865,-2.461 -2.973,-3.747c-7.845,-4.783 -17.822,-0.714 -23.015,9.388c-4.255,8.274 -0.614,22.373 7.467,28.913c4.88,3.95 13.394,4.833 20.486,2.124c6.26,-2.39 13.49,-9.336 16.386,-15.741c2.038,-4.507 2.358,-6.774 2.358,-16.714c0,-10.385 -0.26,-12.055 -2.682,-17.222l-2.682,-5.722l3.682,-1.022c2.025,-0.563 7.057,-1.021 11.182,-1.019c9.492,0.006 15.887,2.777 21.734,9.42c5.23,5.942 7.705,12.999 7.74,22.065c0.022,5.828 -0.425,7.767 -2.666,11.58c-1.481,2.519 -3.401,5.167 -4.267,5.886c-2.401,1.993 -9.285,1.615 -12.37,-0.68c-4.618,-3.434 -3.962,-14.286 0.864,-14.286c2.782,0 2.711,-4.628 -0.084,-5.516c-4.724,-1.499 -9.951,5.505 -9.951,13.336c0,10.973 14.682,18.238 24.071,11.911c7.464,-5.03 11.77,-16.921 10,-27.617c-2.738,-16.55 -10.989,-26.709 -25,-30.782c-6.336,-1.842 -19.103,-1.382 -25.522,0.919c-3.712,1.331 -4.157,1.276 -7.368,-0.903c-6.188,-4.2 -14.671,-5.312 -25.005,-3.278m-258.771,4.317c-1.074,2.798 0.283,4.297 4.953,5.473c6.319,1.591 12.15,1.437 13.642,-0.36c2.078,-2.504 -0.445,-4.174 -7.259,-4.808c-3.433,-0.319 -7.248,-0.881 -8.479,-1.25c-1.575,-0.471 -2.421,-0.191 -2.857,0.945m-17.642,17.178c-5.06,2.746 -4.374,8.739 1.642,14.359c3.554,3.321 3.269,5.733 -1.414,11.966c-4.648,6.185 -5.449,8.657 -4.676,14.42c0.828,6.181 5.102,9.69 11.8,9.69c9.178,0 14.801,-4.074 15.617,-11.316c0.43,-3.81 0.113,-4.818 -2.368,-7.543c-1.575,-1.73 -4.308,-3.422 -6.074,-3.76c-2.683,-0.514 -3.709,-0.116 -6.25,2.425c-4.711,4.711 -3.598,12.074 1.662,10.988c1.354,-0.28 1.734,-1.171 1.54,-3.611c-0.289,-3.642 1.819,-5.208 4.271,-3.172c2.462,2.043 1.841,6.527 -1.18,8.507c-3.24,2.123 -9.477,2.437 -11.704,0.589c-2.914,-2.419 -2.101,-8.822 1.716,-13.504c7.645,-9.379 7.628,-13.364 -0.089,-21.752c-2.256,-2.453 -2.307,-2.723 -0.681,-3.633c0.966,-0.541 3.474,-0.753 5.573,-0.471c3.029,0.406 3.956,0.146 4.496,-1.262c1.553,-4.048 -8.072,-6.072 -13.881,-2.92m194.737,3.63c-1.1,0.624 -2.331,1.623 -2.735,2.22c-1.471,2.174 -0.709,6.539 1.614,9.24c2.094,2.434 3.222,2.814 9.394,3.162c6.107,0.345 7.286,0.124 9.12,-1.71c1.159,-1.159 2.107,-2.94 2.107,-3.958c0,-3.679 -2.152,-7.897 -4.597,-9.011c-3.192,-1.455 -12.299,-1.42 -14.903,0.057m26.874,1.273c-0.924,2.407 7.72,12.975 10.917,13.348c2.324,0.272 2.709,-0.048 2.709,-2.25c0,-1.411 -0.408,-2.566 -0.906,-2.566c-0.499,0 -2.523,-2.25 -4.499,-5c-3.632,-5.056 -7.07,-6.533 -8.221,-3.532m-23.317,3.497c-0.742,0.458 -1.072,1.554 -0.734,2.434c0.865,2.253 10.677,2.317 10.677,0.07c0,-0.843 -0.562,-1.704 -1.25,-1.914c-3.471,-1.061 -7.49,-1.334 -8.693,-0.59m-28.128,4.215c-3.12,3.917 -7.347,4.178 -13.863,0.854c-4.767,-2.432 -7.066,-2.113 -7.066,0.981c0,2.922 8.9,6.962 15.368,6.975c4.344,0.009 5.294,-0.416 8.83,-3.953c4.2,-4.2 4.719,-7.34 1.292,-7.81c-1.254,-0.172 -2.941,0.92 -4.561,2.953m-68.929,7.104c0,1.528 1.077,2.904 3.25,4.153c11.126,6.398 29.409,19.368 36.073,25.591c9.44,8.816 12.677,14.558 12.677,22.488c0,9.591 -4.751,14.899 -12.777,14.274c-3.355,-0.261 -3.723,-0.05 -3.723,2.138c0,4.985 10.243,4.683 16.383,-0.483c6.517,-5.484 7.998,-18.878 3.139,-28.401c-4.761,-9.333 -18.523,-21.517 -38.852,-34.396c-12.807,-8.113 -16.17,-9.229 -16.17,-5.364m101,2.407c-14.885,2.492 -22.47,11.879 -22.47,27.809c0,9.176 2.381,15.713 7.771,21.338c8.374,8.736 17.584,9.403 25.571,1.851c4.819,-4.557 7.08,-10.058 7.106,-17.291c0.026,-7.312 -2.428,-11.673 -8.508,-15.116c-6.375,-3.611 -10.941,-2.648 -16.834,3.553c-6.352,6.682 -3.752,17.28 4.187,17.065c6.361,-0.172 8.677,-1.225 8.677,-3.945c0,-2.336 -0.255,-2.439 -5.25,-2.133c-5.232,0.32 -5.25,0.311 -5.25,-2.662c0,-2.103 0.907,-3.746 3.077,-5.571c3.839,-3.23 6.348,-3.265 10.442,-0.142c6.042,4.608 5.325,14.945 -1.511,21.78c-2.775,2.776 -4.61,3.773 -6.94,3.773c-6.455,0 -12.436,-5.159 -15.607,-13.463c-3.337,-8.737 -0.316,-22.359 6.072,-27.384c3.222,-2.535 12.54,-4.55 17.091,-3.696c7.497,1.407 15.515,12.802 16.92,24.048c1.732,13.862 -6.7,31.004 -17.923,36.437c-5.049,2.443 -13.426,2.727 -17.552,0.594c-6.718,-3.474 -9.107,-8.564 -13.629,-29.033c-1.458,-6.598 -3.477,-13.615 -4.487,-15.594c-2.271,-4.453 -8.581,-10.127 -10.789,-9.702c-3.05,0.587 -2.512,3.882 1.123,6.878c4.279,3.527 6.026,7.771 9.154,22.241c3.291,15.221 5.798,21.526 10.303,25.916c13.458,13.114 34.884,6.607 44.727,-13.584c6.367,-13.06 6.595,-25.51 0.697,-38.113c-3.726,-7.962 -9.06,-13.138 -15.513,-15.055c-5.039,-1.496 -6.041,-1.571 -10.655,-0.799m154.357,14.301c-3.56,1.436 -5.357,5.02 -5.357,10.683c0,5.746 1.451,9.901 3.77,10.79c2.601,0.998 7.976,-0.566 10.245,-2.981c1.754,-1.867 2.185,-3.53 2.185,-8.428c0,-9.676 -3.577,-12.996 -10.843,-10.064m-49.857,4.31c-6.007,2.877 -12.767,9.948 -14.484,15.149c-2.01,6.091 -0.846,13.181 2.757,16.783c1.919,1.92 3.637,2.823 4.638,2.439c2.179,-0.837 1.996,-3.994 -0.354,-6.122c-7.889,-7.139 3.767,-24.551 16.435,-24.551c6.248,0 5.909,1.54 -3.833,17.418c-4.528,7.38 -5.46,11.71 -3.248,15.086c2.411,3.68 7.317,3.384 12.518,-0.754c16.21,-12.896 15.011,-12.175 20.314,-12.214c3.709,-0.027 5.296,0.419 6.13,1.723c1.85,2.887 -1.11,6.656 -10.397,13.241c-4.655,3.3 -10.829,8.275 -13.72,11.057c-4.673,4.495 -5.256,5.513 -5.256,9.177c0,5.789 2.815,7.793 12.031,8.565c6.563,0.551 9.969,1.81 9.969,3.687c0,0.407 -2.873,0.971 -6.385,1.253c-9.465,0.759 -14.615,4.604 -14.615,10.908c0,2.015 4.626,7.194 8.524,9.544c1.84,1.11 1.782,1.195 -0.851,1.25c-1.761,0.037 -3.973,1.205 -5.867,3.099c-2.552,2.552 -2.937,3.553 -2.401,6.236c0.352,1.758 1.925,4.796 3.497,6.752l2.858,3.557l-2.88,3.223c-4.582,5.129 -3.556,11.192 1.895,11.192c2.003,0 2.33,-0.438 2.083,-2.79c-0.175,-1.669 0.599,-4.042 1.925,-5.905c3.041,-4.271 2.787,-7.713 -0.91,-12.313c-3.645,-4.536 -3.298,-6.529 1.309,-7.509c9.233,-1.964 9.046,-7.936 -0.432,-13.821c-1.512,-0.94 -2.75,-2.347 -2.75,-3.128c0,-2.444 4.222,-4.534 9.157,-4.534c9.258,0 13.403,-3.82 10.846,-9.993c-1.703,-4.111 -4.02,-5.229 -13.422,-6.473c-4.864,-0.643 -8.088,-1.554 -8.356,-2.36c-0.592,-1.775 6.544,-8.449 16.461,-15.396c9.195,-6.44 13.148,-10.981 13.97,-16.048c0.467,-2.873 0.05,-4.027 -2.468,-6.843c-2.851,-3.189 -3.404,-3.386 -9.457,-3.37c-7.171,0.019 -10.273,1.583 -19.647,9.908c-9.935,8.824 -11.995,7.692 -5.431,-2.984c10.262,-16.692 10.843,-18.591 7.038,-23.014c-3.35,-3.894 -10.441,-4.358 -17.191,-1.125m-263.461,4.829c-2.736,6.359 -3.479,10.711 -2.615,15.313c0.549,2.928 1.1,3.556 3.121,3.556c2.319,0 2.456,-0.318 2.477,-5.75c0.014,-3.551 0.778,-7.417 2,-10.109c2.694,-5.936 2.586,-8.141 -0.399,-8.141c-1.907,0 -2.813,1.015 -4.584,5.131m314.628,-3.464c-1.026,1.025 -0.79,10.333 0.262,10.333c1.743,0 4.071,-3.139 4.071,-5.49c0,-4.538 -2.19,-6.986 -4.333,-4.843m-233.626,8.952c-8.173,6.877 -7.916,17.5 0.617,25.567c7.556,7.143 18.351,5.824 21.902,-2.676c2.054,-4.915 1.793,-8.408 -1.053,-14.121c-2.68,-5.378 -6.002,-8.353 -11.406,-10.217c-4.954,-1.708 -6.59,-1.473 -10.06,1.447m2.205,5.62c-7.679,8.173 5.967,24.548 13.871,16.644c4.866,-4.866 -0.746,-16.869 -8.621,-18.437c-2.352,-0.468 -3.493,-0.078 -5.25,1.793m-128.157,1.404c-13.555,6.755 -21.381,27.123 -21.461,55.857c-0.039,13.847 1.939,23.81 6.499,32.75c2.982,5.844 11.558,14.557 17.088,17.359c14.856,7.528 31.707,-2.882 37.834,-23.371c1.655,-5.534 3.485,-7.132 5.667,-4.95c1.432,1.432 1.483,2.698 0.45,11.106c-1.806,14.699 -1.588,18.274 1.289,21.151c4.904,4.905 9.607,2.741 13.993,-6.437c1.606,-3.359 3.399,-6.106 3.986,-6.104c0.586,0.003 3.091,1.351 5.566,2.996c2.475,1.645 5.703,2.993 7.173,2.996c4.388,0.007 8.39,-4.3 11.4,-12.269c1.501,-3.975 3.562,-8.421 4.578,-9.881c2.305,-3.309 2.361,-5.712 0.153,-6.56c-2.435,-0.934 -5.97,3.876 -9.717,13.225c-3.695,9.218 -5.411,10.737 -9.346,8.271c-10.847,-6.797 -13.141,-6.361 -18.241,3.467c-5.48,10.561 -6.238,9.39 -5.503,-8.499c0.344,-8.388 0.261,-15.726 -0.185,-16.308c-1.583,-2.062 -5.786,-4.442 -7.847,-4.442c-2.826,0 -6.946,4.615 -8.481,9.5c-3.573,11.37 -11.218,20.409 -19.043,22.516c-5.598,1.507 -11.659,-0.736 -17.991,-6.659c-9.665,-9.041 -13.368,-20.225 -13.362,-40.357c0.007,-21.324 3.925,-36.028 11.977,-44.94c5.216,-5.773 8.682,-7.387 14.64,-6.814c13.416,1.289 19.951,15.761 19.872,44.004c-0.049,17.302 -1.324,25.593 -5.148,33.464c-3.881,7.988 -7.661,10.786 -14.574,10.786c-6.035,0 -8.701,-1.885 -11.354,-8.028c-7.272,-16.837 -6.863,-43.897 0.895,-59.267c5.194,-10.288 10.113,-11.936 15.098,-5.055c3.369,4.651 4.054,10.909 1.58,14.44c-0.784,1.12 -4.563,3.267 -8.398,4.772c-7.849,3.079 -10.344,6.415 -8.57,11.46c1.404,3.992 4.899,5.364 12.144,4.768c5.245,-0.432 6.25,-0.261 6.25,1.064c0,1.343 -0.942,1.478 -6.292,0.905c-5.509,-0.59 -6.63,-0.409 -9,1.456c-2.118,1.666 -2.708,2.981 -2.708,6.035c0,4.871 2.218,6.469 10.307,7.423c3.755,0.443 5.671,1.099 5.421,1.856c-0.621,1.885 -4.931,3.64 -8.978,3.656c-3.329,0.013 -3.75,0.295 -3.75,2.515c0,2.369 0.294,2.5 5.596,2.5c9.046,0 14.883,-4.891 12.824,-10.746c-1.145,-3.257 -4.337,-4.986 -10.67,-5.781c-3.237,-0.406 -4.75,-1.063 -4.75,-2.062c0,-1.205 1.146,-1.349 6.416,-0.809c5.998,0.614 6.584,0.488 9,-1.927c2.939,-2.939 3.295,-6.215 1.027,-9.452c-1.388,-1.983 -2.422,-2.223 -9.573,-2.223c-6.987,0 -7.975,-0.217 -7.691,-1.689c0.182,-0.948 2.551,-2.594 5.394,-3.75c2.788,-1.134 6.207,-2.815 7.598,-3.736c3.267,-2.164 5.829,-7.617 5.829,-12.41c0,-8.049 -7.928,-18.415 -14.084,-18.415c-6.484,0 -11.268,4.246 -15.869,14.083c-7.664,16.385 -8.056,42.455 -0.925,61.514c6.187,16.537 26.222,17.616 35.427,1.909c5.162,-8.808 6.587,-15.57 7.164,-34.006c0.979,-31.27 -4.297,-46.672 -18.206,-53.149c-6.594,-3.07 -11.837,-2.987 -18.418,0.292m262.087,3.398c-18.082,3.679 -32.179,19.415 -37.225,41.553c-3.95,17.332 -3.57,60.215 0.57,64.356c1.305,1.305 1.66,1.298 3.016,-0.058c1.321,-1.322 1.376,-2.572 0.387,-8.942c-1.681,-10.833 -0.72,-44.356 1.547,-53.95c3.876,-16.407 12.042,-28.102 23.685,-33.92c15.212,-7.602 28.308,-3.712 38.002,11.286c7.768,12.018 11.287,29.645 12.464,62.426l0.69,19.208l-2.549,0c-1.402,0 -2.822,-0.712 -3.156,-1.582c-0.334,-0.87 -0.612,-7.507 -0.617,-14.75c-0.02,-25.386 -2.386,-43.149 -7.075,-53.125c-2.859,-6.083 -10.182,-14.117 -15.302,-16.788c-5.308,-2.769 -13.613,-2.877 -19.113,-0.249c-6.463,3.089 -15.057,12.407 -18.966,20.564c-5.853,12.213 -6.87,19.138 -6.29,42.816c0.279,11.377 0.998,21.846 1.606,23.364c1.009,2.522 1.546,2.75 6.47,2.75c4.136,0 5.794,-0.469 7.217,-2.041c1.714,-1.894 1.761,-2.74 0.646,-11.75c-2.971,-23.997 0.046,-41.554 8.475,-49.33c4.141,-3.82 7.244,-4.221 12.418,-1.606c9.034,4.565 11.989,13.988 12.693,40.477l0.458,17.25l-2.471,0c-2.422,0 -2.483,-0.199 -3.15,-10.25c-1.053,-15.893 -2.667,-27.862 -4.309,-31.967c-2.593,-6.48 -10.219,-9.627 -15.08,-6.222c-4.176,2.925 -5.275,6.784 -5.905,20.728c-0.71,15.737 0.252,28.132 2.346,30.226c1.938,1.938 7.305,1.9 10.119,-0.072c2.138,-1.497 2.223,-2.162 2.223,-17.377c0,-12.843 -0.282,-16.055 -1.5,-17.066c-1.203,-0.998 -1.826,-0.975 -3.143,0.119c-1.435,1.191 -1.57,3.158 -1.069,15.542c0.47,11.592 0.32,14.275 -0.82,14.713c-2.202,0.845 -2.769,-4.856 -2.276,-22.891c0.463,-16.923 1.102,-19.483 4.858,-19.483c2.724,0 5.633,4.402 6.437,9.738c0.394,2.619 1.283,11.883 1.976,20.587c1.419,17.839 1.767,18.608 8.773,19.398c3.951,0.445 4.682,0.197 6.603,-2.246c1.956,-2.486 2.161,-3.948 2.161,-15.388c0,-30.082 -4.869,-45.41 -16.271,-51.227c-5.3,-2.704 -13.164,-2.233 -17.344,1.038c-4.377,3.425 -8.204,9.722 -10.666,17.546c-1.943,6.178 -2.189,8.917 -1.974,22.054c0.134,8.25 0.359,17.015 0.5,19.478c0.199,3.504 -0.106,4.55 -1.404,4.806c-1.385,0.274 -1.781,-0.963 -2.393,-7.478c-1.311,-13.969 -0.877,-34.248 0.891,-41.556c4.178,-17.276 16.761,-31.75 27.602,-31.75c9.101,0 19.365,10.966 22.932,24.5c1.585,6.017 3.116,24.436 3.199,38.5c0.084,14.131 1.03,22.502 2.737,24.209c0.639,0.639 3.825,1.354 7.08,1.589c8.454,0.612 8.519,0.413 7.657,-23.209c-1.508,-41.334 -6.34,-60.543 -18.603,-73.961c-8.132,-8.897 -19.026,-12.772 -29.767,-10.587m-162.653,33.209c-0.385,12.238 -0.548,33.971 -0.362,48.297c0.297,22.838 0.556,26.378 2.103,28.736c3.182,4.851 6.289,6.105 16.196,6.538c8.65,0.379 9.337,0.258 12.105,-2.122l2.935,-2.523l0.295,-27.551c0.253,-23.647 0.069,-27.987 -1.299,-30.632c-2.96,-5.725 -11.349,-8.748 -16.551,-5.963c-4.429,2.37 -4.945,5.499 -4.945,29.997l0,23.127l2.923,2.923c3.255,3.255 6.143,3.714 8.506,1.352c1.261,-1.262 1.612,-4.416 1.779,-16c0.383,-26.493 0.619,-23.929 -2.208,-23.929l-2.5,0l-0.5,18c-0.678,24.421 -2.349,21.016 -2.429,-4.952c-0.073,-23.459 0.282,-25.548 4.337,-25.548c1.579,0 3.913,0.844 5.187,1.876l2.316,1.875l-0.267,26.375c-0.159,15.653 -0.67,26.78 -1.256,27.374c-1.273,1.288 -12.553,1.019 -16.156,-0.385c-1.522,-0.594 -3.21,-2.241 -3.75,-3.662c-0.592,-1.556 -0.982,-21.047 -0.982,-49.018l0,-46.435l-2.389,0l-2.388,0l-0.7,22.25m263.823,-13.333c-11.292,5.163 -14.554,24.437 -8.222,48.583c1.731,6.6 3.363,13.484 3.626,15.298l0.48,3.298l-3.755,-2.548c-4.55,-3.088 -9.723,-3.304 -14.171,-0.592c-5.065,3.089 -6.634,6.26 -6.058,12.248c0.415,4.327 1.076,5.703 4.045,8.424c4.57,4.188 9.663,5.191 15.455,3.044l4.372,-1.62l-0.686,2.224c-2.081,6.75 -4.782,9.664 -11.858,12.794c-4.756,2.104 -8.211,2.327 -24.574,1.588c-3.099,-0.14 -3.5,0.125 -3.5,2.314c0,2.141 0.603,2.584 4.5,3.301c2.475,0.455 8.55,0.663 13.5,0.462c9.604,-0.389 14.094,-1.998 20.41,-7.313c5.945,-5.002 7.175,-8.988 7.609,-24.662c0.362,-13.087 0.19,-14.775 -2.473,-24.26c-4.318,-15.376 -5.447,-24.375 -4.059,-32.345c1.561,-8.967 4.341,-13.669 9.239,-15.629c3.117,-1.247 3.844,-2.013 3.591,-3.785c-0.417,-2.919 -2.407,-3.139 -7.471,-0.824m-317.342,-0.175c-4.548,0.548 -6.004,1.853 -6.004,5.38c0,2.244 0.456,2.878 2.071,2.878c1.14,0 2.747,-0.675 3.572,-1.5c0.825,-0.825 3.155,-1.506 5.178,-1.514c6.074,-0.022 8.179,-0.949 8.179,-3.603c0,-2.199 -0.367,-2.371 -4.75,-2.223c-2.612,0.088 -6.323,0.35 -8.246,0.582m7.564,8.148c-0.494,0.799 3.332,17.578 7.038,30.86c0.426,1.528 1.392,2.25 3.011,2.25c3.239,0 3.074,-2.208 -1.452,-19.5c-3.194,-12.201 -3.942,-14.039 -5.821,-14.307c-1.185,-0.169 -2.435,0.144 -2.776,0.697m117.432,4.139c0,1.115 1.35,4.702 3,7.971c6.34,12.559 3.12,16.756 -13.856,18.063c-9.761,0.752 -12.879,2.133 -11.143,4.937c1.202,1.941 8.351,1.76 16.733,-0.423c3.428,-0.893 7.354,-1.342 8.723,-0.998c3.375,0.847 4.132,5.406 2.155,12.976c-1.609,6.159 -1.127,7.883 2.032,7.275c1.421,-0.273 2.007,-1.588 2.499,-5.612c1.523,-12.444 6.176,-10.964 20.662,6.571c2.368,2.866 4.722,5.211 5.231,5.211c1.333,0 2.288,-4.575 1.56,-7.474c-0.829,-3.304 -11.982,-12.526 -15.148,-12.526c-1.893,0 -2.448,-0.525 -2.448,-2.317c0,-1.929 0.911,-2.605 5.429,-4.029c6.13,-1.932 17.879,-9.347 17.018,-10.74c-1.323,-2.14 -7.644,-0.729 -15.766,3.519c-5.136,2.687 -9.255,4.23 -10.456,3.916c-1.849,-0.484 -4.225,-4.127 -4.225,-6.479c0,-0.57 -1.358,-4.429 -3.018,-8.575c-4.392,-10.967 -8.982,-16.725 -8.982,-11.266m-205.551,8.601c-1.053,9.833 0.079,70.342 1.377,73.568c2.289,5.692 3.816,6.001 32.453,6.566c14.439,0.286 29.284,0.195 32.987,-0.202c6.214,-0.666 6.734,-0.904 6.734,-3.09l0,-2.369l-32.451,-0.302c-24.963,-0.231 -32.751,-0.601 -33.75,-1.6c-1.008,-1.009 -1.377,-10.019 -1.647,-40.25l-0.347,-38.951l-2.323,0c-2.125,0 -2.383,0.563 -3.033,6.63m74.551,-4.638c0,1.095 3.481,8.97 7.735,17.5c6.569,13.169 8.077,15.508 10,15.508c3.643,0 2.859,-2.792 -5.47,-19.492c-6.569,-13.169 -8.077,-15.508 -10,-15.508c-1.595,0 -2.265,0.589 -2.265,1.992m32.622,12.492c-4.346,12.579 -4.512,14.516 -1.244,14.516c2.124,0 2.768,-1.126 6,-10.484c4.346,-12.579 4.512,-14.516 1.244,-14.516c-2.124,0 -2.768,1.126 -6,10.484m9.128,8.025c-7.088,6.798 -8.662,10.491 -4.471,10.491c3.078,0 15.056,-12.024 14.557,-14.614c-0.666,-3.458 -3.307,-2.379 -10.086,4.123m3.75,9.898c-6.183,4.355 -7.174,6.135 -4.392,7.889c2.418,1.525 14.892,-6.857 14.892,-10.008c0,-3.494 -3.547,-2.778 -10.5,2.119m-21.124,-1.642c-2.071,1.354 -5.368,7.707 -5.372,10.35c-0.005,3.624 3.571,7.885 6.618,7.885c3.265,0 8.059,-2.536 9.348,-4.945c0.567,-1.058 1.03,-3.72 1.03,-5.917c0,-3.122 -0.574,-4.445 -2.635,-6.065c-2.636,-2.074 -6.874,-2.69 -8.989,-1.308m1.659,7.169c-1.282,2.396 -1.344,5.066 -0.117,5.066c2.632,0 4.082,-1.459 4.082,-4.107c0,-3.375 -2.365,-3.947 -3.965,-0.959m-92.326,3.69c-0.39,0.39 -0.709,6.724 -0.709,14.075c0,21.167 2.056,23.626 19.306,23.088c9.064,-0.283 9.194,-0.322 9.194,-2.787c0,-2.472 -0.114,-2.506 -10.29,-3c-7.651,-0.372 -10.531,-0.885 -11.234,-2c-1.006,-1.596 -1.231,-4.86 -1.382,-20c-0.087,-8.765 -0.252,-9.523 -2.135,-9.792c-1.123,-0.161 -2.36,0.027 -2.75,0.416m171.149,10.626c-6.339,5.859 -8.858,11.189 -8.858,18.742c0,7.594 1.933,12.322 7.265,17.768c10.137,10.353 28.814,11.065 36.94,1.408c3.585,-4.261 5.106,-9.41 4.595,-15.564c-0.555,-6.697 -3.351,-12.219 -8.106,-16.01c-3.217,-2.565 -4.858,-3.094 -10.587,-3.418c-10.005,-0.565 -16.159,2.919 -19.569,11.078c-2.472,5.918 -1.994,10.157 1.61,14.262c4.126,4.699 8.083,6.653 13.643,6.737c3.909,0.059 4.938,-0.386 7.483,-3.234c2.526,-2.827 2.874,-3.879 2.415,-7.298c-0.681,-5.079 -2.924,-7.601 -5.132,-5.768c-1.112,0.922 -1.379,2.31 -0.955,4.962c0.819,5.122 -1.248,6.807 -6.444,5.251c-2.078,-0.623 -4.825,-2.247 -6.105,-3.609c-1.92,-2.045 -2.23,-3.201 -1.772,-6.616c0.717,-5.343 3.848,-8.593 9.425,-9.783c10.885,-2.321 18.294,3.9 18.294,15.36c0,9.367 -5.388,14.472 -15.282,14.478c-12.839,0.009 -21.936,-8.024 -22.052,-19.47c-0.067,-6.595 2.467,-11.642 7.895,-15.73c2.856,-2.15 4.388,-4.078 4.408,-5.546c0.05,-3.667 -3.923,-2.795 -9.111,2m197.226,4.371c-2.521,3.204 -1.946,6.907 1.571,10.129c2.902,2.658 6.27,2.854 10.944,0.636c4.582,-2.174 4.619,-5.813 0.103,-10.19c-4.338,-4.205 -9.575,-4.444 -12.618,-0.575m-155.084,0.4c0,1.112 1.203,3.839 2.673,6.061c3.523,5.323 4.219,12.995 1.793,19.743c-3.054,8.491 1.028,11.834 4.597,3.766c4.126,-9.327 3.469,-18.843 -1.886,-27.339c-2.969,-4.712 -7.177,-6.02 -7.177,-2.231m16.366,6.466c-0.314,0.819 -0.074,2.911 0.532,4.65c1.514,4.343 1.38,9.822 -0.36,14.755c-1.719,4.873 -1.147,7.109 1.819,7.107c1.755,-0.002 2.46,-1.081 3.893,-5.957c2.245,-7.639 2.184,-12.489 -0.223,-17.792c-1.941,-4.276 -4.585,-5.566 -5.661,-2.763m-116.38,7.763c-0.028,8.897 0.175,8.75 -12.103,8.75c-10.771,0 -10.883,0.024 -10.883,2.361c0,2.101 0.577,2.43 5.25,2.991c7.766,0.933 19.035,0.753 20.75,-0.331c1.091,-0.689 1.596,-3.276 1.853,-9.484l0.352,-8.537l-2.602,0c-2.393,0 -2.604,0.342 -2.617,4.25m276.54,10.465c-1.034,5.508 -2.937,8.596 -8.095,13.137c-5.728,5.042 -13.733,8.148 -21,8.148c-4.066,0 -5.65,0.407 -6.095,1.567c-1.062,2.768 1.501,3.936 8.469,3.859c15.427,-0.172 32.195,-13.914 32.195,-26.386c0,-3.592 -0.265,-4.04 -2.389,-4.04c-1.964,0 -2.512,0.66 -3.085,3.715m-128.239,-0.265c-5.541,1.732 -13.418,6.232 -26.367,15.062c-5.82,3.968 -13.02,8.004 -16,8.969c-6.937,2.246 -8.747,3.818 -6.925,6.013c2.597,3.129 13.717,-1.262 26.415,-10.429c10.284,-7.424 24.723,-15.076 28.364,-15.032l2.726,0.034l-2.5,1.978c-10.947,8.664 -11.785,10.029 -8.171,13.3c3.626,3.281 12.332,1.178 27.789,-6.713c7.259,-3.705 16.135,-6.048 18.898,-4.988c2.742,1.053 -0.348,3.247 -7.726,5.488c-3.82,1.161 -7.184,2.731 -7.475,3.489c-0.291,0.758 -1.156,1.379 -1.922,1.379c-0.799,0 -1.393,1.011 -1.393,2.368c0,2.03 0.821,2.598 5.75,3.977c3.163,0.885 6.65,1.423 7.75,1.198c1.1,-0.226 7.4,-0.942 14,-1.592c13.256,-1.304 17.63,-0.686 23.592,3.332c4.37,2.945 4.741,5.125 1.261,7.404c-4.799,3.142 -17.505,2.208 -41.969,-3.087c-30.475,-6.596 -41.481,-7.798 -52.884,-5.775c-3.354,0.594 -4,1.095 -4,3.1l0,2.392l15.5,0.142c14.692,0.135 16.594,0.393 36.5,4.962c15.887,3.646 23.724,4.942 32.19,5.323c13.212,0.594 15.146,0.217 19.792,-3.862c4.335,-3.807 4.608,-7.433 0.892,-11.849c-5.886,-6.996 -15.893,-9.733 -29.63,-8.106c-5.084,0.602 -11.494,1.298 -14.244,1.545l-5,0.451l5.439,-1.965c7.032,-2.54 10.061,-5.394 10.061,-9.477c0,-5.187 -2.703,-6.782 -10.706,-6.316c-5.711,0.332 -8.707,1.295 -18.794,6.039c-6.6,3.104 -13.35,5.95 -15,6.324c-2.886,0.655 -2.848,0.576 1,-2.054c5.185,-3.544 6.5,-5.267 6.5,-8.51c0,-5.499 -5.143,-7.192 -13.713,-4.514m63.803,4.047c-5.226,6.922 -5.569,7.861 -3.499,9.579c1.497,1.242 2.168,0.845 6.082,-3.59c4.446,-5.038 6.057,-8.495 4.862,-10.429c-1.33,-2.152 -3.401,-0.917 -7.445,4.44m-309.9,4.571c-9.553,1.88 -17.19,8.737 -17.19,15.432c0,4.719 3.813,9.738 8.688,11.437c5.962,2.077 10.375,0.416 18.556,-6.985c8.195,-7.413 10.042,-7.488 10.774,-0.442c0.66,6.359 1.23,7.184 5.933,8.594c5.578,1.671 8.377,0.568 15.586,-6.139c7.573,-7.045 9.819,-7.43 15.21,-2.609c4.888,4.37 7.428,5.644 11.253,5.644c4.049,0 6.448,-1.304 12.207,-6.64c6.623,-6.135 8.256,-5.862 15.793,2.64c8.722,9.838 12.834,9.581 17.937,-1.123c1.488,-3.123 3.328,-5.519 4.389,-5.715c1.025,-0.19 4.314,1.608 7.5,4.098c10.877,8.504 12.185,8.585 20.174,1.24c3.29,-3.025 6.459,-5.5 7.041,-5.5c2.006,0 6.467,2.829 9.459,6c6.362,6.741 12.788,7.866 17.577,3.077c3.773,-3.774 4.149,-9.077 0.642,-9.077c-1.616,0 -2.611,0.875 -3.413,3c-1.724,4.568 -5.166,4.013 -11.677,-1.883c-9.537,-8.637 -15.682,-8.676 -23.337,-0.15c-3.464,3.859 -6.523,5.087 -7.745,3.108c-1.69,-2.734 -13.034,-10.075 -15.569,-10.075c-3.893,0 -8.341,4.043 -10.411,9.463c-0.953,2.495 -2.197,4.537 -2.765,4.537c-0.568,0 -4.018,-3.15 -7.668,-7c-8.642,-9.118 -12.44,-9.325 -21.376,-1.17c-7.989,7.291 -9.39,7.339 -16.948,0.582c-3.899,-3.485 -9.15,-5.074 -12.871,-3.893c-1.23,0.391 -5.113,3.386 -8.629,6.658c-5.055,4.703 -6.961,5.882 -9.102,5.635c-2.197,-0.253 -2.76,-0.878 -2.982,-3.312c-0.715,-7.822 -3.27,-11.504 -7.976,-11.495c-3.223,0.006 -5.826,1.61 -14.195,8.745c-6.826,5.819 -10.611,6.694 -14.055,3.25c-4.158,-4.158 -1.846,-9.621 5.5,-12.997c4.188,-1.925 30.309,-2.456 54.474,-1.109c16.91,0.943 19.671,0.89 20.965,-0.404c1.308,-1.308 1.311,-1.664 0.025,-2.915c-2.725,-2.654 -60.738,-4.68 -71.774,-2.507" class="NREIMWdD_0"></path>
 </g>
<style data-made-with="vivus-instant">.NREIMWdD_0{stroke-dasharray:33722 33724;stroke-dashoffset:33723;animation:NREIMWdD_draw 20000ms ease-in-out 0ms forwards;}@keyframes NREIMWdD_draw{100%{stroke-dashoffset:0;}}@keyframes NREIMWdD_fade{0%{stroke-opacity:1;}98.34710743801652%{stroke-opacity:1;}100%{stroke-opacity:0;}}</style></svg>