<svg xmlns="http://www.w3.org/2000/svg" width="443" height="626" viewBox="0 0 443 626" version="1.1"><path d="M 135.722 18.669 L 130.230 24.338 124.149 19.049 C 118.007 13.706, 115 12.974, 115 16.823 C 115 18.950, 128.285 31, 130.630 31 C 131.448 31, 131.840 31.450, 131.500 32 C 130.389 33.797, 128.957 33.072, 123.594 28 C 117.823 22.542, 113.933 21.416, 114.095 25.250 C 114.154 26.678, 116.520 29.601, 120.567 33.250 C 129.099 40.942, 130.679 40.896, 138.779 32.723 C 145.289 26.154, 146.913 22, 142.970 22 C 140.966 22, 140.968 21.963, 143.127 19.042 C 144.942 16.588, 145.096 15.821, 144.035 14.542 C 143.331 13.694, 142.408 13, 141.984 13 C 141.560 13, 138.742 15.551, 135.722 18.669 M 336.500 13.598 C 335.400 13.862, 333.522 14.285, 332.327 14.539 C 324.327 16.235, 319.325 28.150, 320.299 43.190 C 321.213 57.295, 324.522 61.192, 337.555 63.515 C 355.440 66.701, 360.780 64.813, 363.091 54.482 C 364.857 46.593, 363.095 34.641, 359.661 31.206 C 354.776 26.322, 340.658 26.528, 336.250 31.549 C 334.351 33.712, 334 35.264, 334 41.500 C 334 47.869, 334.333 49.276, 336.413 51.694 C 338.530 54.155, 339.524 54.500, 344.500 54.500 C 349.534 54.500, 350.457 54.170, 352.694 51.569 C 354.763 49.165, 355.119 47.927, 354.683 44.675 C 354.021 39.735, 352.784 38.913, 346.500 39.240 C 341.903 39.479, 341.500 39.701, 341.500 42 C 341.500 44.174, 341.996 44.541, 345.311 44.814 C 348.257 45.057, 349.048 45.511, 348.797 46.814 C 348.558 48.059, 347.430 48.500, 344.486 48.500 L 340.500 48.500 340.204 41.743 C 339.916 35.157, 339.979 34.958, 342.704 33.906 C 346.156 32.573, 353.938 33.510, 355.926 35.498 C 357.006 36.578, 357.413 39.471, 357.450 46.329 C 357.518 59.037, 357.137 59.448, 346.017 58.669 C 328.944 57.474, 326.841 55.704, 326.185 41.984 C 325.874 35.481, 326.207 31.893, 327.476 28.073 C 330.110 20.143, 331.700 19.500, 348.678 19.500 C 361.721 19.500, 363.120 19.676, 364.992 21.547 C 367.807 24.363, 368.987 32.645, 368.994 49.639 C 369.003 69.935, 371.038 68.500, 342.242 68.500 C 325.045 68.500, 318.920 68.179, 317.761 67.217 C 316.493 66.164, 316.146 62.560, 315.837 47.217 C 315.316 21.304, 313.896 18.790, 297.852 15.366 C 292.608 14.247, 287.633 13.955, 280.500 14.349 C 257.440 15.621, 251.491 20.899, 251.585 40 C 251.640 51.093, 253.194 59.059, 256.098 63.138 C 260.542 69.379, 272.036 72.427, 288.936 71.845 C 298.138 71.528, 299.169 71.289, 301.530 68.926 C 304.783 65.671, 305.952 58.266, 305.980 40.750 C 305.998 29.500, 305.774 27.774, 304.082 26.082 C 301.625 23.625, 294.333 22.710, 280.735 23.154 C 271.198 23.466, 269.905 23.736, 267.603 25.901 C 261.711 31.442, 260.218 45.720, 264.607 54.560 C 267.759 60.906, 270.827 62.448, 281.098 62.850 C 291.461 63.256, 292.210 62.878, 295.649 55.500 C 299.346 47.572, 298.307 37.960, 293.331 34.045 C 291.183 32.356, 289.278 32, 282.388 32 C 274.424 32, 273.966 32.123, 272.273 34.706 C 271.044 36.582, 270.500 39.368, 270.500 43.793 C 270.500 49.544, 270.777 50.411, 273.306 52.587 C 277.298 56.020, 283.133 55.918, 285.927 52.365 C 287.092 50.885, 288 48.255, 288 46.365 C 288 43.472, 287.661 43, 285.579 43 C 283.705 43, 283.011 43.674, 282.503 45.989 C 281.691 49.684, 280.623 50.404, 278.021 49.011 C 275.303 47.557, 275.054 38.577, 277.703 37.560 C 280.809 36.369, 289.974 38.083, 291.028 40.053 C 293.328 44.351, 290.858 56.781, 287.636 57.119 C 283.206 57.585, 274.127 56.596, 272.339 55.453 C 269.229 53.463, 267.726 47.853, 268.175 39.903 C 268.760 29.554, 269.615 28.981, 284.562 28.928 C 291.149 28.905, 297.271 29.167, 298.166 29.510 C 299.141 29.885, 300.044 31.810, 300.420 34.317 C 301.220 39.659, 299.220 63.031, 297.817 64.720 C 296.227 66.637, 275.806 66.429, 269.066 64.427 C 260.169 61.785, 258.505 58.876, 257.326 43.903 C 256.648 35.297, 258.187 27.046, 260.935 24.559 C 264.126 21.671, 276.452 19.750, 288 20.341 C 293.775 20.636, 300.236 21.446, 302.359 22.140 C 308.971 24.303, 309.432 25.874, 309.998 48.182 C 310.492 67.661, 310.538 67.996, 313.012 70.469 C 316.585 74.039, 328.073 75.417, 348.642 74.742 C 366.056 74.171, 368.872 73.453, 372.410 68.681 C 374.243 66.208, 374.541 64.181, 374.832 52.203 C 375.186 37.631, 373.765 24.380, 371.347 19.704 C 369.006 15.178, 364.122 13.698, 350.500 13.390 C 343.900 13.240, 337.600 13.334, 336.500 13.598 M 156.707 17.016 C 153.170 19.798, 151.652 25.077, 152.249 32.519 C 152.633 37.293, 153.919 41.173, 157.756 49.124 C 162.375 58.698, 164.690 65, 163.587 65 C 163.339 65, 160.438 61.262, 157.139 56.693 C 149.647 46.314, 142.954 40, 139.445 40 C 137.882 40, 135.633 41.213, 133.802 43.044 C 131.070 45.776, 130.826 46.512, 131.422 50.237 C 132.531 57.175, 136.935 63.791, 145.835 71.887 C 154.110 79.417, 159.463 86.389, 155.228 84.122 C 154.187 83.565, 152.728 82.377, 151.985 81.482 C 150.075 79.181, 143.524 76, 140.695 76 C 137.554 76, 134.893 79.063, 134.787 82.799 C 134.661 87.209, 140.562 93.796, 151.105 101.017 C 167.217 112.053, 175.659 122.834, 180.649 138.750 C 182.938 146.051, 183.510 147, 185.618 147 C 188.843 147, 188.748 144.259, 185.173 134.157 C 179.733 118.784, 170.435 107.027, 156 97.267 C 147.933 91.813, 139.184 83.483, 140.325 82.342 C 141.258 81.409, 146.502 84.217, 151.781 88.475 C 155.513 91.486, 156.372 91.787, 158.481 90.827 C 159.812 90.220, 161.336 88.476, 161.868 86.949 C 163.380 82.611, 159.954 77.054, 150.446 68.422 C 139.721 58.686, 134.010 48.084, 138.551 46.342 C 140.666 45.531, 144 48.795, 151.989 59.500 C 155.683 64.450, 159.632 69.321, 160.764 70.325 C 163.230 72.511, 167.843 72.227, 169.365 69.796 C 171.101 67.022, 168.634 58.036, 162.927 46.351 C 159.046 38.403, 157.753 34.631, 157.715 31.141 C 157.650 25.216, 158.630 22.268, 161.105 20.944 C 163.915 19.440, 166.593 20.606, 168.897 24.334 C 172.577 30.287, 173.238 36.218, 171.947 51.670 C 170.504 68.935, 171.564 76, 175.600 76 C 177.030 76, 178 75.414, 178 74.550 C 178 73.752, 178.641 72.740, 179.425 72.300 C 180.209 71.860, 183.145 68.468, 185.949 64.763 C 192.399 56.240, 196.940 54.787, 200.330 60.162 C 202.220 63.157, 199.778 67.356, 190.516 77.034 C 183.686 84.172, 180.782 87.994, 179.865 91.055 C 178.644 95.132, 178.694 95.340, 181.454 97.714 C 183.790 99.724, 184.946 100.045, 187.867 99.497 C 189.827 99.129, 192.662 98.192, 194.166 97.414 C 197.604 95.636, 199.444 95.625, 200.895 97.373 C 202.710 99.561, 201.319 101.452, 194.484 106.087 C 187.363 110.916, 184.462 115.145, 185.226 119.584 C 185.649 122.048, 189.151 135.039, 191.807 144 C 192.273 145.573, 193.281 146.500, 194.524 146.500 C 196.258 146.500, 196.475 145.880, 196.299 141.444 C 196.189 138.663, 194.957 132.813, 193.562 128.444 C 192.167 124.075, 191.020 119.572, 191.013 118.437 C 190.998 116.122, 194.394 112.728, 200.829 108.627 C 208.437 103.777, 209.523 96.917, 203.440 92.131 C 200.054 89.468, 198.563 89.470, 191.569 92.146 C 188.484 93.327, 185.707 94.041, 185.399 93.732 C 184.305 92.638, 187.402 88.472, 196.087 79.355 C 206.009 68.940, 208.232 64.388, 206.013 59.032 C 204.364 55.049, 199.512 51, 196.391 51 C 191.568 51, 187.130 53.831, 182.397 59.925 C 179.802 63.266, 177.588 66, 177.477 66 C 177.366 66, 177.325 57.338, 177.387 46.750 L 177.500 27.500 174.735 22.796 C 173.214 20.209, 170.976 17.396, 169.762 16.546 C 166.592 14.325, 159.818 14.569, 156.707 17.016 M 28.755 18.978 C 24.927 21.990, 22.018 29.262, 20.862 38.713 C 19.957 46.107, 20.030 47.459, 21.409 48.838 C 24.005 51.434, 25.635 48.538, 26.764 39.323 C 27.921 29.876, 30.588 23.500, 33.383 23.500 C 34.828 23.500, 35.808 25.132, 37.587 30.500 C 39.467 36.174, 39.915 39.726, 39.953 49.250 C 40 60.987, 40.003 61, 42.410 61 C 44.713 61, 44.852 60.620, 45.528 52.505 C 45.917 47.832, 45.984 43.045, 45.675 41.866 C 45.003 39.296, 51.297 26.207, 53.636 25.309 C 57.048 24, 59.217 31.439, 59.929 46.895 C 60.405 57.217, 60.793 59.474, 62.250 60.390 C 63.523 61.190, 64.477 61.190, 65.750 60.390 C 67.209 59.473, 67.591 57.231, 68.050 46.895 C 68.415 38.678, 69.194 32.933, 70.360 29.851 C 72.250 24.855, 75.257 21.423, 76.870 22.419 C 78.843 23.639, 80.438 34.751, 80.469 47.483 C 80.497 59.029, 80.693 60.504, 82.247 60.806 C 85.017 61.344, 86 56.978, 86 44.145 C 86 31.754, 84.187 21.969, 81.300 18.779 C 80.299 17.673, 78.264 17, 75.918 17 C 72.788 17, 71.629 17.626, 69.113 20.679 C 67.445 22.703, 65.801 25.628, 65.461 27.179 C 64.671 30.774, 63.409 30.794, 62.695 27.223 C 61.756 22.528, 58.284 19, 54.602 19 C 51.122 19, 48.692 21.024, 45.236 26.799 L 43.262 30.098 42.136 25.625 C 40.211 17.981, 33.967 14.878, 28.755 18.978 M 217.500 19.222 C 208.264 22.496, 205.048 28.244, 205.036 41.500 C 205.025 52.965, 205.561 55, 208.594 55 C 210.942 55, 210.954 54.939, 210.750 44.250 C 210.584 35.540, 210.885 32.868, 212.339 30.171 C 214.800 25.605, 219.745 23.687, 227.744 24.196 C 233.232 24.546, 234.476 25.014, 237.230 27.769 C 239.576 30.114, 240.400 31.844, 240.400 34.419 C 240.400 40.441, 234.913 44.492, 222.554 47.597 C 214.721 49.564, 212.220 52.151, 213.735 56.718 C 215.063 60.722, 218.370 61.959, 228 62.056 C 232.675 62.102, 237.400 62.507, 238.500 62.956 C 240.377 63.721, 240.347 63.807, 238 64.363 C 236.625 64.688, 231.900 65.422, 227.500 65.993 C 213.741 67.778, 209 70.076, 209 74.964 C 209 80.402, 210.664 81.225, 223.597 82.179 C 236.500 83.132, 238 83.420, 238 84.943 C 238 86.476, 233.028 88.720, 225.389 90.634 C 213.149 93.702, 210.304 99.720, 215.072 112.462 C 216.803 117.090, 217.543 118, 219.572 118 C 222.573 118, 222.620 116.776, 219.926 108.779 C 217.284 100.938, 218.150 98.554, 224.206 96.995 C 239.206 93.133, 243 90.728, 243 85.082 C 243 79.338, 240.627 77.818, 230.241 76.908 C 225.433 76.487, 220.037 76.110, 218.250 76.071 C 216.463 76.032, 215 75.595, 215 75.100 C 215 74.001, 221.818 72.402, 232.453 71.007 C 243.517 69.555, 247.776 66.188, 245.032 61.061 C 243.226 57.686, 239.946 56.675, 229.250 56.196 C 223.613 55.944, 219 55.384, 219 54.952 C 219 54.519, 221.286 53.675, 224.080 53.076 C 232.149 51.346, 238.703 48.071, 242.492 43.878 C 245.431 40.625, 246 39.248, 246 35.398 C 246 27.318, 242.032 21.908, 234.101 19.172 C 229.970 17.748, 221.587 17.773, 217.500 19.222 M 387.567 21.886 C 383.692 24.521, 382.079 27.623, 382.035 32.527 C 381.998 36.812, 383.595 39.758, 388.214 43.923 L 391.071 46.500 386.286 50.010 C 379.907 54.688, 379.472 57.982, 384.448 63.938 C 386.402 66.276, 388 68.620, 388 69.146 C 388 69.672, 386.342 71.621, 384.316 73.477 C 381.167 76.362, 380.822 77.080, 381.939 78.426 C 383.871 80.755, 385.461 80.374, 389.429 76.632 C 394.230 72.104, 394.436 66.705, 390 61.653 C 386.302 57.441, 386.270 56.499, 389.750 54.338 C 394.394 51.454, 397 48.739, 397 46.783 C 397 45.755, 395.033 42.796, 392.628 40.207 C 386.539 33.650, 386.123 31.723, 389.970 27.876 C 392.563 25.283, 393.598 24.870, 396.195 25.389 C 397.908 25.732, 399.915 26.514, 400.655 27.128 C 402.425 28.598, 402.366 32.133, 400.532 34.559 C 398.574 37.147, 398.612 42.469, 400.603 44.460 C 401.484 45.341, 404.137 46.579, 406.498 47.211 L 410.791 48.359 408.315 52.100 C 405.204 56.801, 405.612 59.905, 409.679 62.484 C 411.590 63.696, 412.986 65.497, 413.179 67 C 413.425 68.914, 414.086 69.500, 416 69.500 C 418.293 69.500, 418.500 69.131, 418.500 65.038 C 418.500 60.607, 417.923 59.904, 412.201 57.367 C 412.036 57.294, 413.048 55.544, 414.451 53.478 C 415.853 51.411, 417 49.088, 417 48.315 C 417 46.173, 412.361 42, 409.980 42 C 408.819 42, 407.017 41.544, 405.976 40.987 C 404.131 40, 404.136 39.884, 406.165 36.444 C 408.772 32.027, 408.134 26.679, 404.575 23.121 C 401.109 19.654, 391.841 18.982, 387.567 21.886 M 187.277 24.973 C 183.530 27.257, 182.568 30.156, 183.239 37.138 C 183.907 44.089, 186.561 46.717, 191.617 45.435 C 196.917 44.092, 199.143 40.591, 199.143 33.599 C 199.143 23.668, 194.706 20.443, 187.277 24.973 M 100.033 27.626 C 95.401 31.523, 93.117 36.901, 91.480 47.761 C 88.983 64.325, 89.597 71, 93.617 71 C 95.932 71, 96.001 70.766, 96.035 62.750 C 96.078 52.534, 98.241 39.977, 100.670 35.844 C 102.964 31.940, 106.071 29.808, 107.856 30.911 C 108.969 31.599, 108.839 34.212, 107.094 46.121 C 103.404 71.318, 103.879 75.441, 110.399 74.801 C 113.065 74.540, 113.970 73.579, 117.281 67.500 C 122.275 58.330, 123.232 57.375, 125.324 59.467 C 128.052 62.194, 126.931 65.867, 118.654 81.323 C 116.571 85.212, 115 89.560, 115 91.436 C 115 95.807, 118.686 99.404, 124.759 100.959 C 143.336 105.718, 144.692 113.049, 128 118.484 C 116.341 122.279, 111.650 126.021, 110.436 132.490 C 109.398 138.024, 111.760 140.847, 122.130 146.463 C 134.132 152.964, 134.276 153.655, 125.566 162.930 C 118.213 170.759, 117.495 173.493, 120.636 181.717 C 121.925 185.092, 122.773 186, 124.636 186 C 127.461 186, 127.666 184.139, 125.513 178.036 C 123.754 173.050, 124.119 172.169, 130.503 166 C 136.479 160.226, 138.348 156.668, 137.573 152.538 C 136.797 148.402, 134.158 146.042, 125.442 141.692 C 117.098 137.526, 115.546 135.943, 116.415 132.482 C 117.214 129.298, 121.515 126.622, 130.462 123.741 C 139.843 120.721, 145 115.950, 145 110.290 C 145 103.411, 139.656 98.803, 128.513 96.074 C 119.412 93.844, 119.022 91.922, 125.401 80.728 C 130.823 71.214, 132 67.929, 132 62.305 C 132 56.693, 128.714 53, 123.720 53 C 119.775 53, 117.654 55.003, 113.130 63 C 111.419 66.025, 110.017 68.050, 110.014 67.500 C 110.011 66.950, 110.914 60.425, 112.019 53 C 114.910 33.588, 114.919 29.162, 112.070 26.855 C 108.751 24.168, 103.763 24.487, 100.033 27.626 M 189.667 29.667 C 188.641 30.692, 188.877 40, 189.929 40 C 191.672 40, 194 36.861, 194 34.510 C 194 29.972, 191.810 27.524, 189.667 29.667 M 398 60.905 C 398 62.503, 398.697 69.788, 399.548 77.095 C 401.303 92.152, 400.852 98.540, 397.374 107.869 C 394.615 115.272, 394.425 118.689, 396.500 123.654 C 397.325 125.629, 398 129.050, 398 131.256 C 398 133.463, 398.489 136.899, 399.086 138.891 C 400.691 144.249, 397.180 157.619, 392.433 164.226 C 388.698 169.424, 388.542 172, 391.962 172 C 394.105 172, 398.798 166.316, 400.956 161.106 C 401.712 159.281, 403.350 157.725, 405.192 157.083 C 411.100 155.023, 421.798 143.521, 420.631 140.482 C 419.563 137.697, 416.950 139, 411.067 145.250 C 407.832 148.688, 404.958 151.275, 404.680 151 C 403.278 149.608, 405.722 144.492, 409.516 140.876 C 414.609 136.022, 417.977 130.035, 421.047 120.377 C 423.425 112.899, 423.175 109.627, 420.269 110.187 C 419.099 110.412, 417.529 113.316, 415.462 119.074 C 412 128.724, 408.726 134.541, 405.911 136.048 C 404.172 136.978, 404 136.696, 404 132.917 C 404 129.744, 404.696 127.971, 406.949 125.405 C 411.656 120.044, 415.171 107.611, 415.758 94.250 L 416.252 83 413.716 83 C 411.246 83, 411.162 83.229, 410.501 91.750 C 409.315 107.040, 404.408 123.808, 401.864 121.264 C 400.441 119.841, 401.275 113.915, 403.870 107 C 406.889 98.958, 406.723 81.259, 403.442 61.250 C 403.010 58.611, 402.448 58, 400.455 58 C 398.412 58, 398 58.487, 398 60.905 M 36.630 65.250 C 36.299 66.487, 36.021 71.025, 36.014 75.333 C 36.004 81.103, 35.674 83.058, 34.764 82.755 C 34.085 82.528, 33.193 80.378, 32.783 77.976 C 32.373 75.574, 31.354 72.926, 30.519 72.090 C 29.160 70.732, 28.837 70.734, 27.457 72.115 C 26.194 73.378, 26.098 74.462, 26.932 78.079 C 28.566 85.167, 28.088 87.058, 25.878 82.250 C 24.533 79.325, 23.303 78, 21.931 78 C 19.076 78, 18.494 80.538, 20.371 84.804 C 21.635 87.677, 21.969 91.507, 21.871 102 C 21.720 118.142, 23.196 123.348, 28.554 125.587 C 31.312 126.739, 32.644 126.723, 37.426 125.477 C 48.865 122.498, 51 119.126, 51 104.042 C 51 98.456, 50.476 91.806, 49.836 89.264 C 48.749 84.945, 48.861 84.295, 51.551 79.322 C 54.310 74.222, 54.355 73.928, 52.646 72.250 C 50.945 70.580, 50.753 70.637, 48.455 73.488 C 47.130 75.131, 45.531 77.719, 44.902 79.238 C 42.857 84.174, 42 82.184, 42 72.500 C 42 63.157, 41.961 63, 39.617 63 C 37.990 63, 37.042 63.715, 36.630 65.250 M 67.233 69.615 C 64.831 70.495, 61.939 72.559, 60.617 74.339 C 57.427 78.631, 54.768 86.083, 55.170 89.605 C 55.436 91.938, 55.985 92.500, 58 92.500 C 60.153 92.500, 60.580 91.945, 61.080 88.500 C 62.578 78.159, 66.942 74, 76.294 74 C 79.645 74, 81.192 74.575, 82.992 76.492 C 88.637 82.500, 82.483 93.593, 74.603 91.615 C 70.859 90.675, 69.456 87.479, 71.452 84.433 C 73.643 81.089, 76.890 81.126, 76.247 84.488 C 75.623 87.753, 78.364 88.886, 81.037 86.466 C 83.697 84.059, 83.506 80.824, 80.539 78.037 C 77.368 75.057, 71.914 75.750, 67.844 79.650 C 65.560 81.837, 65 83.243, 65 86.786 C 65 90.421, 65.541 91.703, 68.072 94.067 C 71.340 97.120, 76.475 98.619, 79.918 97.526 C 81.069 97.161, 83.375 95.714, 85.041 94.312 C 93.031 87.589, 93.110 76.431, 85.211 70.549 C 81.777 67.992, 72.917 67.532, 67.233 69.615 M 255.388 77.929 C 254.227 78.426, 252.270 80.108, 251.041 81.667 C 246.678 87.196, 250.362 97.037, 258 100.254 C 259.551 100.908, 279.477 101.592, 310.500 102.057 C 338 102.469, 364.202 103.139, 368.727 103.545 C 375.981 104.196, 377.031 104.082, 377.610 102.575 C 377.970 101.635, 377.809 100.409, 377.251 99.851 C 375.194 97.794, 360.262 96.979, 310.761 96.219 L 260.098 95.441 257.549 93.046 C 254.827 90.489, 254.177 86.223, 256.200 84.200 C 258.366 82.034, 262.513 82.892, 266.570 86.345 C 275.014 93.532, 279.254 93.887, 286.377 88 C 289.040 85.800, 291.392 84, 291.606 84 C 291.820 84, 293.862 85.688, 296.145 87.750 C 301.789 92.849, 306.690 92.954, 312.720 88.106 L 316.940 84.713 320.973 88.357 C 326.050 92.943, 329.411 93.056, 336.703 88.884 L 342.149 85.768 344.853 88.359 C 349.266 92.587, 352.845 93.354, 359.778 91.557 C 367.223 89.628, 372.316 89.604, 377.500 91.471 C 379.700 92.264, 384.538 92.932, 388.250 92.956 C 394.698 92.998, 395 92.894, 395 90.629 C 395 88.425, 394.505 88.210, 387.970 87.566 C 384.104 87.185, 379.393 86.227, 377.502 85.437 C 373.043 83.573, 368.770 83.624, 359.562 85.647 L 352.067 87.294 348.031 83.647 C 345.811 81.641, 343.251 80, 342.343 80 C 341.435 80, 337.845 81.592, 334.365 83.538 L 328.038 87.076 323.657 83.038 C 321.248 80.817, 318.349 79, 317.215 79 C 316.081 79, 313.090 80.575, 310.568 82.500 C 308.046 84.425, 305.254 86, 304.363 86 C 303.471 86, 300.999 84.425, 298.868 82.500 C 293.473 77.625, 289.735 77.746, 283.377 83 C 280.715 85.200, 278.303 86.998, 278.018 86.995 C 277.265 86.987, 272.741 83.933, 268.637 80.660 C 264.833 77.627, 258.933 76.411, 255.388 77.929 M 104.969 83.750 C 104.579 93.231, 99.760 110, 97.427 110 C 97.050 110, 94.950 108.380, 92.758 106.401 C 84.592 99.023, 76.743 97.323, 68.970 101.250 C 57.179 107.207, 56.771 122.816, 68.271 128.036 C 75.292 131.224, 82.543 130.101, 90.691 124.564 C 94.011 122.308, 94.534 122.203, 95.335 123.634 C 97.103 126.793, 95.561 141.106, 92.805 147.120 C 89.189 155.011, 84.442 159.879, 69.357 171.167 C 49.517 186.012, 42.796 194.005, 39.495 206.680 C 34.267 226.751, 44.103 249.738, 61.672 258.509 C 68.072 261.703, 78.423 262.830, 87 261.266 C 90.899 260.554, 91.500 260.114, 91.500 257.972 C 91.500 255.777, 91.108 255.522, 88 255.694 C 73.889 256.475, 70.361 256.241, 65.830 254.222 C 51.843 247.986, 43.289 232.715, 44.193 215.591 C 44.995 200.386, 50.821 192.224, 72.382 176.104 C 91.505 161.807, 96.624 155.768, 100.390 143.068 C 102.290 136.657, 102.441 129.528, 100.843 121.573 C 100.083 117.790, 100.027 115.587, 100.680 115.156 C 104.771 112.455, 110 97.382, 110 88.290 C 110 83.314, 109.852 83, 107.500 83 C 106.125 83, 104.986 83.338, 104.969 83.750 M 33.001 89.833 C 28.532 91.545, 28.496 91.597, 27.695 97.528 C 26.283 107.979, 28.003 119.549, 31.115 120.537 C 33.649 121.341, 39.934 119.270, 42.750 116.703 C 44.802 114.832, 45 113.755, 45 104.451 C 45 98.840, 44.719 92.844, 44.375 91.125 C 43.832 88.408, 43.342 88.007, 40.625 88.054 C 38.906 88.084, 35.475 88.884, 33.001 89.833 M 70.381 106.910 C 64.264 110.639, 64.083 119.440, 70.059 122.530 C 75.596 125.394, 83.462 123.529, 90.495 117.686 L 93.489 115.198 91.495 112.948 C 90.398 111.710, 87.499 109.415, 85.054 107.849 C 79.806 104.486, 74.873 104.170, 70.381 106.910 M 246.500 107.104 C 239.699 111.047, 234.429 120.178, 235.180 126.717 C 235.434 128.930, 236.010 129.500, 237.988 129.500 C 240.184 129.500, 240.553 128.958, 241.137 124.872 C 241.945 119.223, 243.185 116.786, 246.629 114.078 C 250.079 111.363, 255.126 111.376, 257.595 114.105 C 260.387 117.191, 259.870 122.723, 255.552 136 C 251.233 149.277, 251.126 155.064, 255.139 158.314 C 257.015 159.833, 258.367 160.072, 261.988 159.527 C 273.430 157.802, 273.590 157.801, 274.960 159.451 C 276.095 160.819, 276.061 161.965, 274.745 166.693 C 273.885 169.782, 273.400 172.880, 273.668 173.577 C 273.935 174.274, 275.887 175.538, 278.005 176.385 C 281.172 177.653, 282.946 177.733, 288.012 176.841 C 295.371 175.545, 298.613 176.611, 299.629 180.660 C 300.099 182.529, 299.730 184.350, 298.459 186.444 C 291.711 197.559, 289.825 202.464, 290.249 207.791 C 291.134 218.883, 301.887 225.992, 313.180 222.951 C 317.992 221.656, 326.074 214.471, 328.521 209.314 C 334.206 197.334, 318.963 184.270, 309.041 192.619 C 305.327 195.744, 303 199.934, 303 203.496 C 303 206.777, 307.145 211, 310.366 211 C 313.395 211, 318 205.827, 318 202.423 C 318 198.990, 313.756 199.046, 312.182 202.500 C 311.555 203.875, 310.583 205, 310.021 205 C 307.928 205, 309.101 200.745, 311.993 197.853 C 315.442 194.404, 318.096 194.617, 321.750 198.637 C 325.155 202.382, 324.638 205.994, 319.933 211.339 C 314.894 217.063, 309.900 218.886, 304.054 217.134 C 295.550 214.586, 293.639 206.719, 299.162 197 C 307.040 183.137, 307.362 181.746, 303.974 176.190 C 300.901 171.149, 296.181 169.589, 288.204 170.978 C 280.374 172.342, 279.457 171.732, 280.956 166.165 C 282.315 161.117, 281.573 157.887, 278.361 154.870 C 275.671 152.342, 271.418 151.956, 262.750 153.452 L 258 154.272 258 150.623 C 258 148.616, 259.575 142.166, 261.500 136.290 C 263.875 129.041, 265 123.737, 265 119.789 C 265 114.596, 264.644 113.582, 261.688 110.357 C 258.911 107.326, 257.579 106.678, 253.438 106.343 C 250.722 106.124, 247.600 106.466, 246.500 107.104 M 273.096 107.265 C 271.774 107.944, 269.759 109.758, 268.617 111.296 C 266.700 113.877, 266.657 114.299, 268.057 116.796 C 271.191 122.387, 279.829 123.922, 308.418 123.969 C 327.510 124, 341.490 125.441, 338.862 127.107 C 336.854 128.379, 329.162 128.191, 309.798 126.398 C 285.669 124.162, 273.813 125.280, 268.250 130.313 C 266.978 131.463, 266 133.519, 266 135.039 C 266 138.137, 269.157 142.598, 271.984 143.495 C 273.047 143.832, 280.499 143.360, 288.544 142.444 C 303.318 140.764, 335.508 140.815, 340.835 142.527 C 346.139 144.232, 339.610 144.973, 318.500 145.061 C 294.619 145.160, 291.003 145.776, 287.611 150.319 C 285.141 153.628, 286.120 157.268, 290.323 160.398 C 292.940 162.347, 294.533 162.511, 312.160 162.655 C 332.920 162.824, 336.586 163.238, 342.051 166.026 C 346.260 168.173, 348.696 171.446, 349.168 175.590 C 349.436 177.939, 349.982 178.500, 352 178.500 C 354.281 178.500, 354.493 178.134, 354.419 174.315 C 354.306 168.552, 350.268 163.487, 343.107 160.129 C 337.694 157.591, 336.805 157.493, 317.451 157.302 C 298.276 157.112, 292 156.298, 292 154 C 292 151.551, 298.230 150.844, 319 150.934 C 342.234 151.035, 345.439 150.426, 348.770 145.277 C 350.092 143.233, 349.977 142.823, 347.337 140.183 C 344.987 137.834, 343.055 137.103, 336.692 136.156 C 326.735 134.675, 307.388 134.677, 293.424 136.160 C 287.416 136.798, 280.250 137.361, 277.500 137.410 C 273.137 137.489, 272.500 137.245, 272.500 135.500 C 272.500 131.092, 287.585 129.975, 313 132.500 C 320.975 133.292, 329.750 133.953, 332.500 133.969 C 338.037 134, 343.582 131.661, 345.683 128.407 C 346.861 126.585, 346.778 125.988, 345.046 123.786 C 341.852 119.725, 336.421 118.918, 306.500 118.057 C 277.840 117.232, 271.618 116.370, 273.961 113.547 C 276.152 110.907, 284.755 110.720, 298 113.023 C 307.319 114.643, 315.081 115.235, 328.500 115.348 L 346.500 115.500 346.500 113 L 346.500 110.500 327.500 109.833 C 317.050 109.467, 304.900 108.454, 300.500 107.584 C 290.972 105.698, 276.473 105.529, 273.096 107.265 M 226.709 107.624 C 226.319 108.014, 226 115.900, 226 125.148 L 226 141.962 223.453 142.601 C 222.053 142.953, 220.786 143.074, 220.639 142.870 C 219.673 141.533, 212.556 123.063, 212.045 120.568 C 211.550 118.146, 210.900 117.500, 208.959 117.500 C 205.055 117.500, 205.477 121.201, 210.889 134.459 C 215.429 145.580, 215.667 146.579, 214.271 148.709 C 212.206 151.861, 211.417 151.621, 208.460 146.937 C 206.811 144.324, 205.289 142.989, 204.198 143.197 C 201.405 143.729, 201.723 147.317, 204.958 151.783 C 206.631 154.093, 208 156.451, 208 157.023 C 208 157.595, 207.048 160.861, 205.883 164.282 C 204.325 168.859, 203.630 173.961, 203.247 183.613 C 202.527 201.777, 200.882 200.627, 227.338 200.451 C 240.536 200.364, 248.475 199.925, 249.154 199.246 C 249.856 198.544, 250.073 193.094, 249.787 183.339 C 249.327 167.640, 247.398 159.176, 242.812 152.736 L 240.787 149.892 243.962 140.800 C 246.801 132.670, 246.976 131.548, 245.619 130.190 C 243.310 127.881, 241.414 130.073, 238.859 138.005 C 236.769 144.496, 236.563 144.758, 234.357 143.753 C 232.084 142.717, 232.040 142.398, 231.772 125.100 C 231.512 108.247, 231.413 107.488, 229.459 107.208 C 228.336 107.047, 227.099 107.235, 226.709 107.624 M 362.818 111.900 C 356.152 116.128, 352.732 123.540, 352.196 134.919 C 351.852 142.209, 352.334 145.771, 355.396 158.590 C 359.398 175.343, 359.878 183.430, 357.222 189.339 L 355.497 193.179 352.707 190.984 C 351.172 189.777, 348.186 185.349, 346.072 181.144 C 339.057 167.193, 330.651 162.258, 324.455 168.455 C 322.494 170.415, 322 171.930, 322 175.977 C 322 180.901, 322.212 181.271, 329.446 189.007 C 341.928 202.354, 348.773 216.414, 346.118 223.250 C 345.530 224.762, 344.596 226, 344.042 226 C 343.487 226, 341.851 223.637, 340.407 220.750 C 335.437 210.819, 331.106 208.508, 327.073 213.635 C 324.365 217.077, 324.457 220.053, 327.652 232.319 C 329.281 238.573, 330.353 245.481, 330.432 250.230 C 330.575 258.777, 331.900 261.528, 334.583 258.846 C 337.058 256.371, 336.554 244.050, 333.483 231.934 C 332.059 226.316, 331.038 220.546, 331.214 219.110 C 331.512 216.678, 331.694 216.807, 333.881 221 C 339.758 232.266, 344.109 234.706, 349.013 229.486 C 351.875 226.439, 352.882 217.295, 351.009 211.356 C 348.899 204.667, 342.016 194.024, 335.019 186.633 C 331.305 182.710, 327.972 178.551, 327.611 177.391 C 326.651 174.306, 327.888 172, 330.503 172 C 333.671 172, 338.033 177.279, 342.446 186.454 C 346.377 194.627, 350.107 197.989, 355.250 197.996 C 358.996 198.001, 361.593 195.111, 363.445 188.874 C 365.775 181.027, 365.361 174.758, 361.500 159.429 C 357.813 144.789, 357.009 134.108, 359.044 126.781 C 360.380 121.972, 364.519 117.099, 368.780 115.318 C 371.791 114.061, 372.550 114.102, 375.827 115.704 C 381.567 118.511, 383.513 123.445, 383.438 135 C 383.383 143.504, 382.885 146.012, 378.688 158.932 C 373.339 175.400, 372.933 179.648, 376.333 183.601 C 380.515 188.463, 384.275 187.352, 399.781 176.673 C 404.949 173.114, 407.539 171.933, 409.645 172.173 C 412.265 172.473, 412.522 172.870, 412.772 177 C 412.961 180.134, 412.433 182.489, 411.031 184.759 C 407.524 190.439, 402.316 192.751, 384.500 196.542 C 377.463 198.039, 375.988 198.755, 372.250 202.490 C 368.656 206.081, 368 207.359, 368 210.765 C 368 215.058, 369.243 216.501, 378.973 223.494 C 384.115 227.190, 387.240 232.063, 386.818 235.729 C 386.376 239.576, 382.557 239.836, 374.409 236.574 C 370.768 235.117, 365.988 234, 363.389 234 C 359.503 234, 358.279 234.521, 355.400 237.400 C 352.449 240.351, 352 241.453, 352 245.753 L 352 250.706 347.161 250.241 C 342.802 249.823, 342.106 250.050, 340.161 252.523 C 338.972 254.034, 338 256.559, 338 258.135 C 338 260.498, 338.423 261, 340.417 261 C 342.143 261, 343.086 260.242, 343.718 258.346 C 344.524 255.929, 345.084 255.684, 350.017 255.596 C 354.740 255.512, 355.594 255.180, 356.701 253 C 357.399 251.625, 357.977 248.598, 357.985 246.273 C 357.997 242.911, 358.497 241.721, 360.427 240.456 C 363.108 238.699, 365.248 239.061, 374.787 242.882 C 381.443 245.549, 386.003 245.572, 389.328 242.957 C 396.834 237.053, 392.327 225.340, 379 216.116 C 372.807 211.830, 372.426 210.056, 376.819 205.970 C 378.881 204.052, 382.179 202.886, 390.434 201.153 C 402.948 198.528, 409.370 195.621, 413.798 190.577 C 422.042 181.188, 419.640 166, 409.911 166 C 406.346 166, 399.037 169.562, 392.740 174.369 C 386.926 178.806, 382.217 181.252, 380.971 180.482 C 379.061 179.302, 380.088 173.281, 384.634 159 C 387.953 148.572, 389.384 142.253, 389.729 136.500 C 391.006 115.241, 377.303 102.714, 362.818 111.900 M 152.750 118.900 C 146.825 129.779, 147.758 132.477, 158.500 135.521 C 161.800 136.456, 164.852 137.546, 165.283 137.943 C 167.177 139.691, 164.092 142.549, 156.550 146.033 C 147.807 150.073, 145.638 151.884, 146.180 154.694 C 146.647 157.121, 150.919 159.009, 159.039 160.377 L 165.816 161.519 156.158 163.916 C 143.804 166.983, 138.834 169.124, 136.152 172.534 C 133.434 175.989, 133.427 178.427, 136.127 181.127 C 139.298 184.298, 147.781 183.269, 161.393 178.064 C 167.384 175.773, 173.234 174.034, 174.393 174.199 C 178.271 174.753, 170.301 179.434, 159.500 182.947 C 140.879 189.002, 120.405 200.674, 121.197 204.784 C 121.787 207.846, 124.720 207.179, 131.659 202.404 C 140.047 196.633, 149.267 192.345, 162.861 187.894 C 175.530 183.746, 181 179.690, 181 174.445 C 181 171.925, 180.355 170.623, 178.504 169.411 C 175.307 167.316, 171.745 167.963, 158.274 173.086 C 148.342 176.863, 139.055 178.337, 140.563 175.898 C 141.637 174.160, 147.243 172.137, 159.714 168.988 C 174.931 165.145, 177.725 162.634, 172.545 157.455 C 170.605 155.514, 169.061 155, 165.170 155 C 162.464 155, 158.796 154.709, 157.019 154.354 C 153.808 153.712, 153.832 153.687, 160.745 150.485 C 168.619 146.838, 171 144.156, 171 138.932 C 171 134.293, 169.111 132.653, 161.250 130.471 C 157.813 129.517, 155.008 128.233, 155.017 127.618 C 155.026 127.003, 156.369 124.250, 158 121.500 C 161.665 115.322, 161.927 111.997, 158.750 112.007 C 157 112.012, 155.666 113.544, 152.750 118.900 M 50.393 126.978 C 46.342 128.615, 42.215 135.011, 40.123 142.891 C 37.102 154.275, 34 171.477, 34 176.851 C 34 185.441, 37.159 185.988, 49.978 179.618 C 60.640 174.320, 66.139 170.621, 71.924 164.855 C 79.432 157.372, 81.243 149.152, 76.441 144.350 C 74.189 142.099, 73.347 141.871, 69.441 142.457 L 65 143.123 64.968 137.311 C 64.951 134.115, 64.388 130.786, 63.718 129.913 C 60.955 126.314, 55.183 125.043, 50.393 126.978 M 19 129.781 C 19 133.318, 29.926 144.626, 32.419 143.670 C 35.243 142.586, 34.102 139.525, 29 134.500 C 26.250 131.791, 24 128.996, 24 128.288 C 24 127.579, 22.875 127, 21.500 127 C 19.433 127, 19 127.481, 19 129.781 M 130 130.900 C 126.027 131.430, 125.500 131.793, 125.500 134 C 125.500 136.453, 125.631 136.495, 132.500 136.240 C 144.108 135.809, 146 135.278, 146 132.455 C 146 130.116, 145.729 130.007, 140.250 130.150 C 137.088 130.233, 132.475 130.570, 130 130.900 M 49.685 134.962 C 47.983 136.986, 46.378 141.344, 44.625 148.712 C 42.151 159.103, 38.918 177.220, 39.440 177.763 C 39.999 178.344, 51.418 172.767, 57.386 168.998 C 60.881 166.790, 65.824 162.757, 68.371 160.035 C 72.129 156.017, 73 154.398, 73 151.432 L 73 147.777 69.250 148.452 C 65.808 149.070, 63 151.200, 63 153.191 C 63 153.636, 61.816 154, 60.369 154 C 57.877 154, 57.774 153.803, 58.407 150.250 C 60.907 136.245, 60.126 132, 55.054 132 C 53.094 132, 51.384 132.944, 49.685 134.962 M 18.677 141.713 C 18.396 142.168, 18.016 153.201, 17.833 166.231 C 17.510 189.200, 17.564 189.986, 19.603 192.036 C 20.760 193.199, 23.546 194.398, 25.794 194.699 C 30.497 195.330, 30.792 195.830, 30.226 202.192 L 29.808 206.883 24.931 206.305 C 20.260 205.752, 20.007 205.850, 18.949 208.614 C 18.311 210.283, 17.983 215.857, 18.172 221.832 C 18.548 233.679, 19.719 235.626, 25.791 234.503 L 29.083 233.894 28.791 242.197 L 28.500 250.500 25 250.828 C 19.203 251.372, 18 253.246, 18 261.732 C 18 268.602, 18.217 269.371, 20.923 272.077 C 23.064 274.218, 24.803 275, 27.423 275 L 31 275 31 281.500 L 31 288 26.455 288 C 22.962 288, 21.341 288.568, 19.455 290.455 C 17.182 292.727, 17 293.636, 17 302.732 C 17 315.630, 17.870 317, 26.057 317 L 32 317 32 325.611 L 32 334.223 28.623 333.589 C 23.822 332.688, 20.445 334.284, 19.123 338.078 C 18.505 339.849, 18 345.956, 18 351.649 C 18 363.906, 19.177 366, 26.066 366 C 33.210 366, 34 366.980, 34 375.844 C 34 385.268, 33.007 386.883, 26.460 388.106 C 18.682 389.559, 17.500 391.391, 17.500 401.992 C 17.500 413.346, 18.265 414.280, 28.013 414.831 C 36.058 415.285, 36.342 415.658, 35.809 425.053 L 35.500 430.500 29.038 430.803 C 25.484 430.970, 21.997 431.588, 21.288 432.176 C 19.620 433.560, 19.508 453.196, 21.150 456.316 C 22.825 459.499, 23.923 459.968, 29.750 459.985 L 35 460 34.986 466.250 C 34.963 476.752, 34.788 477, 27.383 477 C 21.317 477, 21 477.119, 21 479.393 C 21 480.709, 21.712 482.059, 22.582 482.393 C 25.608 483.554, 35.473 482.957, 37.404 481.495 C 39.556 479.867, 40.850 473.624, 40.940 464.441 C 41.022 456.173, 39.805 454.758, 32.134 454.203 C 26.025 453.761, 26 453.747, 25.991 450.630 C 25.987 448.908, 25.699 445.138, 25.352 442.250 L 24.721 437 29.814 437 C 39.154 437, 42.005 434.122, 41.994 424.703 C 41.987 417.712, 40.388 412.385, 37.739 410.529 C 36.338 409.548, 33.288 409, 29.234 409 L 22.912 409 23.206 401.775 L 23.500 394.549 27.880 393.805 C 33.623 392.828, 36.845 390.616, 38.584 386.454 C 40.332 382.269, 40.419 369.398, 38.721 366 C 37.120 362.795, 31.549 360.004, 26.750 360.002 L 23 360 23.074 354.250 C 23.115 351.087, 23.459 346.475, 23.839 344 L 24.530 339.500 28.745 339.815 C 32.199 340.074, 33.432 339.659, 35.572 337.518 C 38.097 334.994, 38.173 334.570, 37.842 324.863 C 37.526 315.573, 37.313 314.669, 35.011 312.806 C 33.061 311.229, 31.499 310.890, 27.812 311.244 C 23.350 311.673, 23.088 311.561, 22.802 309.098 C 22.636 307.669, 22.651 303.688, 22.835 300.250 L 23.171 294 27.631 294 C 31.082 294, 32.670 293.421, 34.649 291.442 C 37.038 289.053, 37.183 288.363, 36.847 280.972 C 36.427 271.726, 35.218 269.933, 28.823 269.072 C 24.873 268.540, 24.509 268.229, 23.666 264.662 C 22.344 259.066, 23.993 256, 28.324 256 C 33.638 256, 34.679 253.914, 34.860 242.896 C 35 234.424, 34.763 232.969, 32.854 230.541 C 31.040 228.236, 30.145 227.877, 27.344 228.332 L 24 228.874 24 220.456 L 24 212.038 28.318 212.630 C 34.749 213.512, 36 211.787, 36 202.039 C 36 192.552, 34.607 190.316, 28 189.192 L 23.500 188.427 23.500 164.964 C 23.500 141.697, 23.482 141.497, 21.344 141.193 C 20.159 141.024, 18.959 141.258, 18.677 141.713 M 219.207 152.416 C 212.333 158.864, 209.736 166.722, 209.182 182.750 L 208.759 195 212.254 195 C 214.177 195, 217.156 194.719, 218.875 194.375 C 221.490 193.852, 222 193.289, 222 190.924 C 222 176.092, 231.632 166.479, 239.614 173.344 C 242.128 175.507, 242.391 176.454, 243.016 185.594 L 243.692 195.500 243.822 184 C 243.968 171.027, 243.097 166.114, 239.263 158.284 C 235.892 151.400, 231.963 148, 227.380 148 C 224.660 148, 222.902 148.949, 219.207 152.416 M 189.113 151.364 C 188.266 152.385, 188.360 154.707, 189.491 160.614 C 192.055 174.017, 190.994 184.035, 186.479 189.023 C 185.538 190.063, 181.688 192.091, 177.924 193.529 C 166.527 197.884, 163.316 203.364, 160.950 222.500 C 159.498 234.244, 159.530 264.895, 161.004 273.020 C 162.476 281.137, 164.829 285.709, 169.886 290.278 C 178.134 297.730, 190.128 298.676, 200.151 292.665 C 211.246 286.011, 214.645 274.285, 213.676 246 C 213.268 234.102, 212.538 227.295, 211.056 221.594 C 207.208 206.785, 203.925 203.670, 191.617 203.155 C 183.869 202.831, 183.187 202.972, 180.153 205.525 C 175.809 209.180, 174.350 213.094, 172.403 226.311 C 170.298 240.604, 170.892 268.989, 173.444 276 C 177.743 287.813, 187.441 291.594, 195.578 284.629 C 203.784 277.605, 207.535 264.530, 206.659 246 C 205.698 225.663, 201.466 216, 193.521 216 C 188.364 216, 184.630 219.770, 182.405 227.221 C 179.670 236.384, 179.603 269.220, 182.312 273.353 C 183.751 275.549, 184.758 276.054, 187.213 275.809 C 193.639 275.167, 197.008 265.249, 196.986 247.040 C 196.970 232.913, 196.540 231, 193.383 231 L 191 231 191 245.318 C 191 255.898, 190.562 261.055, 189.322 265.068 C 187.692 270.342, 187.623 270.413, 186.940 267.500 C 185.876 262.960, 185.885 240.271, 186.954 233.743 C 188.352 225.211, 189.924 222.500, 193.472 222.500 C 196.196 222.500, 196.560 222.952, 198.306 228.500 C 201.096 237.367, 201.729 255.624, 199.581 265.279 C 197.705 273.713, 193.571 280.452, 189.271 282.087 C 185.851 283.387, 182.319 280.983, 179.500 275.435 C 177.680 271.854, 177.500 269.522, 177.500 249.500 C 177.500 231.856, 177.855 225.989, 179.292 219.867 C 181.599 210.042, 183.275 208.443, 191.028 208.671 C 197.847 208.871, 200.457 210.050, 202.400 213.808 C 205.781 220.345, 207.151 228.672, 207.702 246.022 C 208.595 274.175, 206.189 282.946, 196.132 288.200 C 185.028 294, 173.205 289.914, 168.498 278.649 C 164.129 268.193, 164.535 223.687, 169.131 209.225 C 170.647 204.455, 174.583 200.249, 178.277 199.451 C 187.037 197.561, 192.993 192.131, 195.475 183.771 C 197.398 177.297, 197.395 172.527, 195.461 161.436 C 193.589 150.700, 191.895 148.012, 189.113 151.364 M 101.465 154.952 C 97.699 156.478, 96.535 158.983, 96.517 165.603 C 96.503 170.796, 96.894 172.334, 98.682 174.124 C 101.257 176.702, 105.743 176.870, 109.326 174.522 C 112.169 172.659, 112.967 170.339, 112.986 163.885 C 113.010 155.951, 108.200 152.222, 101.465 154.952 M 102.667 160.667 C 101.819 161.514, 101.790 169.457, 102.631 170.298 C 102.979 170.645, 104.104 170.480, 105.131 169.930 C 107.823 168.489, 107.853 160, 105.167 160 C 104.158 160, 103.033 160.300, 102.667 160.667 M 259.567 173.892 C 259.225 174.445, 259.415 177.840, 259.990 181.437 C 261.997 194.001, 258.709 199.792, 245.755 206.509 C 241.765 208.577, 237.037 211.358, 235.249 212.687 C 226.735 219.016, 226.962 229.705, 235.726 235.153 C 238.856 237.100, 240.780 237.486, 247 237.418 C 256.142 237.317, 260.833 236.055, 267.965 231.778 C 277.421 226.107, 283.358 216.190, 284.661 203.889 C 285.119 199.566, 284.737 196.698, 282.995 191.389 C 280.220 182.934, 279.512 182, 275.878 182 C 273.475 182, 273 182.413, 273 184.500 C 273 185.902, 273.579 187, 274.317 187 C 275.990 187, 279 196.421, 279 201.656 C 279 207.722, 276.397 215.192, 272.510 220.283 C 262.327 233.619, 235 236.265, 235 223.916 C 235 219.971, 238.071 217.001, 246.633 212.666 C 262.151 204.810, 266.089 199.510, 265.882 186.761 C 265.715 176.546, 264.937 173.564, 262.338 173.193 C 261.156 173.024, 259.909 173.338, 259.567 173.892 M 230.448 179.439 C 229.525 180.848, 228.535 184.925, 228.248 188.500 L 227.726 195 232.304 195 C 234.822 195, 237.044 194.662, 237.242 194.250 C 237.441 193.838, 237.355 189.900, 237.051 185.500 C 236.551 178.235, 236.299 177.471, 234.313 177.189 C 232.853 176.981, 231.568 177.729, 230.448 179.439 M 100.667 181.667 C 99.232 183.101, 100.160 185.375, 103.925 189.652 C 120.610 208.607, 106.261 241.624, 81.502 241.248 C 69.020 241.059, 60.889 235.102, 57.490 223.655 C 54.784 214.542, 56.095 207.585, 61.768 200.958 C 66.452 195.486, 72.096 192.795, 80 192.263 C 88.744 191.676, 94.198 194.470, 98.620 201.804 C 103.685 210.202, 103.748 218.314, 98.802 225.273 C 93.054 233.360, 77.817 234.275, 69.697 227.020 C 66.996 224.607, 66.500 223.464, 66.500 219.655 C 66.500 214.522, 68.749 210.824, 74.092 207.169 C 78.586 204.095, 83.449 204.764, 87.250 208.981 C 90.736 212.848, 90.776 216.245, 87.365 218.927 C 84.239 221.386, 82.683 221.528, 81.004 219.505 C 80.003 218.299, 80.091 217.510, 81.458 215.424 C 83.474 212.347, 82.851 210, 80.017 210 C 77.827 210, 74.010 215.227, 74.004 218.234 C 74.002 219.188, 75.237 221.302, 76.750 222.931 C 82.771 229.419, 93.854 225.627, 95.567 216.494 C 96.458 211.746, 92.969 204.762, 88.250 201.845 C 74.492 193.343, 55.216 210.397, 61.789 225.256 C 66.594 236.118, 82.656 241.208, 94.500 235.623 C 103.410 231.421, 107.940 223.930, 107.978 213.337 C 107.996 208.310, 107.400 206.016, 104.743 200.883 C 99.163 190.104, 90.299 185.176, 78.657 186.383 C 59.357 188.384, 46.670 205.487, 51.309 223.252 C 55.572 239.577, 66.933 247.782, 83.912 246.799 C 93.418 246.249, 99.998 242.971, 107.019 235.289 C 119.576 221.549, 120.209 199.235, 108.413 186.115 C 104.040 181.251, 102.161 180.172, 100.667 181.667 M 408.162 205.750 C 408.498 211.605, 409.329 214.035, 414.427 224.075 C 420.805 236.635, 421.033 238.549, 416.743 243.486 L 414.500 246.067 410.539 244.034 C 401.267 239.274, 390.600 243.213, 390.600 251.396 C 390.600 259.452, 398.782 261.837, 409.026 256.767 L 414.166 254.224 416.079 257.362 C 418.122 260.713, 418.436 262.766, 417.202 264.707 C 416.610 265.639, 415.532 265.592, 412.468 264.501 C 407.317 262.666, 403.507 262.660, 397.391 264.476 C 391.757 266.150, 387.848 269.724, 385.496 275.354 C 383.431 280.299, 384.290 284.225, 388.150 287.473 C 390.685 289.606, 392.162 290, 397.626 290 C 405.476 290, 408.091 288.748, 414.458 281.942 L 419.353 276.709 421.642 279.370 C 425.407 283.747, 426.725 291.877, 424.363 296.153 C 424.165 296.511, 421.864 296.141, 419.251 295.329 C 404.388 290.710, 388 299.276, 388 311.664 C 388 325.056, 407.981 327.114, 420.123 314.972 C 423.980 311.115, 425 310.506, 425 312.059 C 425 315.410, 420.978 322.782, 416.802 327.085 C 410.890 333.177, 404.170 335.828, 390.328 337.528 C 374.618 339.457, 373.446 339.754, 369.976 342.674 C 366.056 345.972, 365.728 351, 369.433 351 C 370.987 351, 372.094 350.278, 372.500 348.999 C 373.473 345.934, 375.658 345.226, 389.328 343.541 C 411.005 340.869, 420.305 335.590, 427.332 321.969 C 430.684 315.473, 431.086 313.973, 430.534 310.020 C 429.702 304.062, 429.703 299.800, 430.537 292.356 C 431.396 284.689, 430.108 280.543, 425.094 274.834 C 422.173 271.508, 421.470 270.035, 422.073 268.500 C 423.761 264.207, 423.073 257.387, 420.584 253.719 L 418.168 250.158 420.225 248.329 C 422.679 246.148, 425.947 239.355, 425.978 236.374 C 425.990 235.205, 423.271 228.824, 419.935 222.194 C 415.502 213.383, 413.715 208.641, 413.295 204.570 C 412.768 199.467, 412.513 199, 410.247 199 C 407.823 199, 407.782 199.132, 408.162 205.750 M 140.341 204.039 C 133.247 207.479, 122.194 217.878, 116.114 226.832 C 113.930 230.048, 109.823 237.206, 106.988 242.737 C 101.804 252.853, 100.974 257.189, 104.107 257.786 C 105.256 258.004, 107.074 255.351, 110.485 248.477 C 117.319 234.707, 123.707 225.460, 131.605 217.902 C 138.074 211.712, 145 206.971, 145 208.733 C 145 209.164, 138.933 217.838, 131.519 228.009 C 124.104 238.179, 118.029 247.287, 118.019 248.250 C 118.008 249.213, 117.550 250, 117 250 C 116.450 250, 116 251.125, 116 252.500 C 116 254.795, 116.368 255, 120.485 255 C 123.930 255, 127.181 253.840, 134.500 250 C 144.724 244.636, 147.350 243.942, 146.810 246.747 C 146.611 247.779, 142.440 250.649, 136.616 253.760 C 121.971 261.583, 115 268.276, 115 274.515 C 115 280.790, 118.500 281.575, 128.500 277.540 C 136.485 274.319, 144.796 272.902, 143.511 274.982 C 143.077 275.684, 139.433 277.778, 135.414 279.635 C 127.801 283.153, 125 285.866, 125 289.723 C 125 292.733, 129.286 292.915, 130.605 289.960 C 131.105 288.838, 134.872 286.251, 138.975 284.210 C 147.810 279.816, 150.856 276.336, 149.426 272.270 C 147.517 266.841, 139.597 266.852, 126.102 272.303 C 119.195 275.093, 119.098 274.094, 125.671 267.879 C 129.426 264.329, 142.875 256, 144.853 256 C 145.406 256, 147.465 254.484, 149.429 252.632 C 153.973 248.346, 154.279 244.151, 150.277 241.003 C 146.636 238.139, 142.820 238.895, 132.250 244.576 C 127.713 247.015, 124 248.801, 124 248.546 C 124 248.290, 129.689 240.300, 136.642 230.791 C 150.442 211.916, 152.442 208.290, 151.477 203.896 C 150.649 200.127, 148.344 200.156, 140.341 204.039 M 218.622 208.180 C 217.608 211.810, 216 221.994, 216 224.790 C 216 229.524, 218.858 235.762, 222.075 238.053 C 223.641 239.169, 227.496 240.967, 230.642 242.049 C 236.655 244.118, 240 246.453, 240 248.582 C 240 250.536, 235.421 253.699, 229.974 255.509 C 222.946 257.843, 219 261.821, 219 266.572 C 219 271.678, 221.093 273.645, 229.044 276.013 C 240.177 279.329, 240.726 282.216, 231.052 286.557 C 220.005 291.515, 214.250 300.793, 215.267 312.007 C 216.276 323.139, 222.168 329.668, 235.174 334.067 C 244.861 337.344, 255.256 337.735, 263.628 335.136 C 279.036 330.353, 287.458 319.913, 291.433 300.670 C 295.673 280.143, 291.115 263.755, 279.686 258.434 C 267.493 252.757, 258.285 257.005, 251.362 271.500 C 243.950 287.020, 246.729 305.168, 257.313 310.356 C 268.717 315.946, 281.964 304.248, 281.990 288.566 C 282.011 275.676, 273.716 268.271, 266.091 274.372 C 264.010 276.037, 260.021 285.091, 260.010 288.173 C 259.997 291.750, 264.505 297, 267.589 297 C 270.663 297, 270.943 293.070, 268 291.232 C 266.900 290.545, 266.022 288.974, 266.048 287.742 C 266.119 284.407, 269.264 278.573, 271.190 278.202 C 276.068 277.263, 278.033 290.095, 274.171 297.665 C 268.289 309.194, 257.167 308.762, 253.968 296.881 C 251.248 286.782, 255.477 271.300, 262.683 264.973 C 269.331 259.137, 279.479 261.812, 284 270.591 C 286.244 274.949, 286.499 276.629, 286.491 286.973 C 286.475 305.849, 281.690 317.989, 271.503 324.998 C 264.328 329.934, 259.088 331.317, 249.670 330.757 C 229.701 329.571, 220.031 321.704, 221.200 307.598 C 221.834 299.959, 225.246 295.793, 234.530 291.325 C 242.405 287.534, 244.816 284.386, 243.588 279.494 C 242.571 275.444, 239.590 273.237, 232.040 270.943 C 224.564 268.673, 223.663 268.043, 224.555 265.716 C 225.119 264.247, 226.532 263.445, 237.317 258.471 C 244.525 255.146, 247.082 251.025, 245.021 246.051 C 243.214 241.688, 238.753 238.275, 232.472 236.449 C 228.845 235.394, 226.204 233.843, 224.413 231.714 C 221.880 228.704, 221.785 228.198, 222.494 221.523 C 223.861 208.643, 223.765 207.538, 221.246 207.180 C 220 207.003, 218.826 207.450, 218.622 208.180 M 391 213.441 C 391 214.784, 391.407 216.134, 391.905 216.441 C 392.402 216.748, 394.206 219.475, 395.913 222.500 C 398.376 226.864, 399.532 228, 401.509 228 C 404.587 228, 404.855 225.173, 402.152 221.210 C 401.136 219.719, 399.224 216.816, 397.902 214.757 C 394.997 210.230, 391 209.468, 391 213.441 M 281.251 230.545 C 274.336 232.407, 269.155 235.097, 259.697 241.735 C 254.520 245.369, 252 247.765, 252.207 248.856 C 252.808 252.012, 256.564 251.159, 263.030 246.399 C 266.537 243.817, 272.353 240.308, 275.954 238.602 C 282.144 235.669, 283.152 235.500, 294.500 235.500 C 305.009 235.500, 307.157 235.797, 311.787 237.889 C 318.043 240.716, 321 244.094, 321 248.412 C 321 254.883, 315.228 259, 306.158 259 C 300.710 259, 293.563 256.819, 290.792 254.311 C 289.103 252.783, 289.093 252.554, 290.647 250.838 C 291.902 249.451, 293.753 249, 298.186 249 C 302.717 249, 304.207 248.623, 304.694 247.355 C 305.797 244.480, 302.147 242.798, 295.749 243.235 C 288.671 243.718, 284 247.401, 284 252.500 C 284 260.708, 301.292 267.453, 313.705 264.087 C 326.962 260.493, 331.365 246.039, 321.845 237.363 C 313.755 229.990, 295.007 226.841, 281.251 230.545 M 397.973 248.821 C 394.428 251.691, 395.946 254.420, 400.600 253.547 C 404.986 252.724, 409 250.962, 409 249.859 C 409 249.407, 407.762 248.763, 406.250 248.426 C 404.738 248.090, 402.775 247.621, 401.889 247.384 C 401.004 247.147, 399.241 247.794, 397.973 248.821 M 37.845 256.637 C 32.230 261.625, 31.402 263.590, 34.181 265.342 C 35.548 266.205, 36.855 265.479, 41.181 261.451 C 50.306 252.957, 47.138 248.384, 37.845 256.637 M 362.994 255.734 C 360.512 258.890, 360.881 263.325, 363.875 266.319 C 366.129 268.573, 373.125 270.240, 376.779 269.393 C 383.567 267.819, 385.230 264.827, 382.950 258.287 C 381.606 254.432, 378.376 253, 371.026 253 C 365.810 253, 364.902 253.309, 362.994 255.734 M 95.651 260.250 C 95.334 262.587, 94.772 273.725, 94.403 285 C 94.034 296.275, 93.365 306.481, 92.917 307.681 C 92.296 309.342, 90.956 310.029, 87.301 310.561 C 78.859 311.790, 75 314.828, 75 320.247 C 75 323.310, 79.499 327.595, 86.771 331.457 C 90.636 333.510, 92.599 335.198, 92.806 336.645 C 93.095 338.674, 92.644 338.809, 84.467 339.145 C 76.819 339.459, 75.603 339.772, 73.912 341.861 C 72.676 343.386, 72 345.779, 72 348.625 C 72 355.280, 76.165 359.236, 87 362.877 L 95.500 365.732 86.101 365.219 C 75.049 364.615, 71.147 366.063, 68.439 371.771 C 66.436 375.990, 66.951 383.183, 69.453 385.948 C 72.021 388.786, 79.661 391.674, 87.958 392.942 C 92.060 393.569, 95.595 394.262, 95.814 394.480 C 96.033 394.699, 92.901 395.884, 88.856 397.112 C 76.832 400.764, 73.132 406.438, 78.564 412.894 C 83.198 418.401, 95.947 419.830, 104.038 415.750 C 112.858 411.303, 114.419 402.058, 111.174 373.500 C 108.046 345.971, 107.897 339.963, 109.488 305.500 C 111.393 264.225, 111.481 268, 108.611 268 C 105.451 268, 105.219 269.440, 104.008 296.537 C 102.534 329.527, 102.757 352.553, 104.702 368 C 106.496 382.248, 107.020 401.641, 105.736 406.232 C 105.287 407.835, 103.634 409.669, 101.736 410.670 C 95.237 414.097, 82.500 411.989, 82.500 407.487 C 82.500 405.904, 84.119 404.933, 90.460 402.715 C 99.743 399.467, 102 397.737, 102 393.868 C 102 389.986, 99.159 388.486, 89.300 387.163 C 84.790 386.558, 79.390 385.261, 77.300 384.280 C 73.927 382.696, 73.467 382.042, 73.202 378.446 C 72.661 371.082, 76.507 369.553, 91.114 371.327 C 98.673 372.245, 101 371.003, 101 366.051 C 101 362.276, 99.274 361.022, 89.227 357.500 C 79.893 354.228, 76.231 350.997, 77.462 347.120 C 78.073 345.193, 78.862 345, 86.113 345 C 93.250 345, 94.350 344.741, 96.545 342.545 C 101.637 337.454, 98.933 331.228, 89.575 326.493 C 86.552 324.964, 83.119 322.691, 81.945 321.442 C 79.903 319.268, 79.891 319.129, 81.656 318.197 C 82.670 317.662, 86.027 316.704, 89.116 316.069 C 98.651 314.108, 98.934 313.467, 100.012 291.388 C 100.519 280.999, 100.949 268.788, 100.967 264.250 C 100.999 256.212, 100.939 256, 98.614 256 C 96.563 256, 96.146 256.598, 95.651 260.250 M 367 260.472 C 367 262.370, 371.396 264.211, 374.941 263.798 C 376.734 263.589, 377.500 262.901, 377.500 261.500 C 377.500 259.792, 376.733 259.456, 372.250 259.198 C 368.008 258.954, 367 259.198, 367 260.472 M 324.746 265.086 C 315.413 267.285, 298.069 278.751, 298.025 282.750 C 297.984 286.427, 301.227 285.482, 309.179 279.500 C 313.619 276.160, 318.997 273.166, 322.871 271.877 C 334.890 267.877, 348.703 270.691, 357.737 278.979 C 367.963 288.361, 371.504 297.751, 370.811 313.647 C 370.305 325.256, 368.593 329.355, 361.536 335.860 C 348.509 347.868, 331.264 349.470, 317.439 339.958 C 307.614 333.198, 301.665 320.625, 301.609 306.500 C 301.572 297.390, 302.717 294.525, 308.668 288.835 C 319.291 278.678, 334.278 276.672, 347.162 283.685 C 352.947 286.833, 356.064 290.236, 359.719 297.393 C 367.863 313.337, 357.139 331.421, 338.716 332.810 C 331.053 333.387, 325.294 331.128, 320.121 325.515 C 314.983 319.942, 313 315.157, 313 308.338 C 313 301.282, 315.746 295.959, 321.388 292.077 C 327.582 287.815, 333.741 286.306, 338.778 287.815 C 347.374 290.391, 351.940 297.130, 351.978 307.300 C 352.013 316.652, 348.013 322.016, 341.027 321.984 C 333.157 321.947, 324.836 313.775, 326.385 307.604 C 327.393 303.585, 331.376 300, 334.832 300 C 338.114 300, 339.532 301.288, 340.501 305.146 C 341.333 308.465, 339.608 309.663, 336.439 307.967 C 334.522 306.942, 333.774 306.942, 332.534 307.972 C 330.292 309.833, 330.621 310.798, 334.250 313.011 C 338.526 315.618, 340.576 315.515, 343.545 312.545 C 345.394 310.696, 346 309.024, 346 305.768 C 346 300.821, 344.139 297.640, 339.989 295.494 C 329.944 290.300, 317.907 301.515, 321.040 313.149 C 323.859 323.617, 338.950 331.199, 347.800 326.595 C 356.325 322.159, 360.188 310.420, 356.954 298.775 C 355.487 293.491, 350.149 286.911, 345.037 284.083 C 333.486 277.695, 315.893 284.345, 309.438 297.538 C 304.461 307.709, 307.221 320.770, 316.283 329.939 C 323.091 336.827, 327.104 338.478, 337 338.463 C 343.963 338.453, 346.397 338.011, 350.458 336.018 C 366.137 328.323, 372.449 311.104, 365.238 295.694 C 361.163 286.986, 356.093 281.663, 348.158 277.760 C 341.947 274.705, 340.871 274.500, 331.016 274.507 C 321.423 274.513, 320.017 274.764, 315 277.358 C 308.927 280.498, 300.669 287.930, 298.346 292.346 C 294.112 300.396, 295.045 316.197, 300.429 327.629 C 308.218 344.168, 322.382 352.880, 339.675 351.770 C 353.544 350.880, 368.303 341.133, 373.730 329.278 C 375.771 324.820, 376.422 321.554, 376.789 313.925 C 377.312 303.082, 376.098 296.215, 372.296 288.500 C 363.503 270.661, 343.301 260.713, 324.746 265.086 M 44.306 267.421 L 41.500 269.842 41.620 290.671 C 41.790 320.175, 44.665 361.973, 46.677 364.196 C 47.602 365.218, 50.075 366.019, 52.859 366.200 L 57.500 366.500 57.788 375.156 L 58.075 383.812 53.999 384.500 C 46.778 385.720, 46.441 387.079, 47.828 409.352 C 48.484 419.884, 49.016 431.031, 49.011 434.125 C 48.993 443.342, 49.837 446, 52.780 446 L 55.311 446 54.670 431.250 C 54.318 423.137, 53.728 410.538, 53.360 403.250 L 52.691 390 56.346 390 C 62.567 390, 64 387.570, 64 377.020 C 64 371.023, 63.454 366.676, 62.357 363.933 C 60.718 359.837, 60.700 359.827, 55.915 360.163 L 51.117 360.500 50.581 356 C 49.224 344.614, 47.665 311.549, 47.586 292.500 L 47.500 271.500 49.750 271.180 C 51.055 270.995, 52.069 271.415, 52.165 272.180 C 52.256 272.906, 52.384 286.325, 52.451 302 C 52.618 341.151, 54.306 349.500, 62.052 349.500 C 64.806 349.500, 65.746 348.890, 67.444 346 C 69.431 342.617, 69.489 341.337, 69.160 307.659 C 68.834 274.270, 68.897 272.833, 70.660 273.171 C 72.318 273.488, 72.549 274.962, 73 288.112 C 73.554 304.271, 74.177 306, 79.448 306 C 82.714 306, 85.620 303.695, 87.875 299.316 C 89.112 296.914, 89.364 283.774, 88.358 274.147 C 87.771 268.538, 87.509 268, 85.358 268 L 83 268 83 282.277 C 83 294.135, 82.710 296.969, 81.288 298.999 L 79.577 301.443 78.899 298.971 C 78.527 297.612, 78.465 291.245, 78.761 284.823 L 79.300 273.146 76.227 270.073 C 73.218 267.064, 68.950 266.062, 66.400 267.765 C 62.956 270.065, 62.736 272.835, 63.478 304.573 C 64.176 334.425, 63.816 344, 61.995 344 C 59.722 344, 58.687 331.941, 58.347 301.500 L 57.990 269.500 55.439 267.250 C 52.116 264.319, 47.824 264.385, 44.306 267.421 M 397 270.752 C 392.646 272.927, 388.985 279.160, 390.577 281.687 C 391.986 283.926, 396.651 285.136, 400.867 284.356 C 404.459 283.692, 409.716 279.612, 413.096 274.866 L 415.161 271.965 411.613 270.483 C 406.888 268.509, 401.283 268.612, 397 270.752 M 239.212 298.394 C 239.570 303.978, 240.327 306.883, 242.305 310.257 C 247.610 319.310, 255.640 323.752, 264.827 322.716 C 269.727 322.164, 271.548 320.870, 270.664 318.567 C 270.218 317.404, 268.628 317, 264.499 317 C 257.105 317, 252.754 315.024, 249.129 310.019 C 246.110 305.852, 245.644 304.415, 244.503 295.750 C 243.940 291.478, 243.619 291, 241.307 291 L 238.737 291 239.212 298.394 M 133.148 295.913 C 123.163 299.362, 118.907 304.080, 118.210 312.475 C 117.499 321.051, 119.530 326.639, 125.547 332.667 C 131.020 338.151, 137.671 341, 145 341 C 155.895 341, 167 333.773, 167 326.683 C 167 321.931, 165.807 319.078, 162.368 315.603 C 154.162 307.314, 138.472 305.801, 131.634 312.639 C 128.199 316.074, 128.305 319.139, 132.006 323.354 C 139.878 332.320, 152 332.223, 152 323.194 C 152 319.401, 148.541 316.693, 144.315 317.177 C 142.065 317.435, 141.500 318.002, 141.500 320 C 141.500 321.831, 142.102 322.585, 143.750 322.820 C 145.629 323.086, 147.136 325, 145.468 325 C 143.754 325, 138.213 321.954, 136.567 320.107 C 134.823 318.150, 134.785 317.786, 136.179 316.392 C 140.113 312.458, 151.583 313.939, 157.513 319.146 C 165.809 326.430, 158.845 334.832, 144.407 334.956 C 138.108 335.010, 131.880 331.932, 127.608 326.655 C 125.028 323.467, 124.501 321.857, 124.184 316.194 C 123.867 310.537, 124.137 309.084, 125.927 306.813 C 130.947 300.447, 146.764 298.069, 157.464 302.072 C 161.696 303.656, 164.122 305.458, 167.751 309.712 C 178.033 321.767, 181.367 324.999, 185.668 327.081 C 189.672 329.020, 191.094 329.172, 199.210 328.537 L 208.279 327.828 215.389 335.414 C 222.312 342.800, 222.625 343.001, 227.250 343 C 231.580 343, 232 342.790, 232 340.631 C 232 338.675, 231.356 338.157, 228.310 337.663 C 225.354 337.183, 223.194 335.542, 217.451 329.414 L 210.281 321.764 200.280 322.480 C 188.294 323.338, 186.222 322.559, 179.810 314.785 C 169.324 302.070, 164.892 298.336, 157.645 296.108 C 149.218 293.517, 140.293 293.446, 133.148 295.913 M 195 302.250 C 195 304.408, 200.679 310, 202.870 310 C 204.782 310, 210 304.789, 210 302.880 C 210 300.148, 207.293 299.425, 204.963 301.534 C 203.134 303.189, 202.875 303.197, 201.171 301.655 C 198.419 299.164, 195 299.493, 195 302.250 M 402.317 301.228 C 400.566 301.790, 398.011 303.432, 396.638 304.875 C 390.656 311.167, 393.083 317, 401.684 317 C 408.071 317, 413.882 313.955, 418.938 307.958 L 423.152 302.961 419.608 301.481 C 415.617 299.813, 407.104 299.688, 402.317 301.228 M 178.053 304.436 C 176.498 306.309, 177.606 308.292, 183.308 313.845 C 187.812 318.232, 191.500 319.133, 191.500 315.847 C 191.500 314.116, 181.679 303, 180.151 303 C 179.653 303, 178.709 303.646, 178.053 304.436 M 174.481 331.394 C 167.530 334.422, 162.951 342.947, 164.496 349.981 C 165.440 354.278, 171.105 359.664, 176.243 361.150 L 180.500 362.381 171.500 363.269 C 149.304 365.458, 132.791 359.370, 128.678 347.481 C 127.307 343.518, 124.716 341.884, 122.817 343.783 C 121.156 345.444, 124.075 352.804, 128.298 357.601 C 138.854 369.593, 156.046 371.745, 195.714 366.041 C 227.366 361.490, 238.364 362.048, 242.537 368.416 C 244.076 370.765, 244.089 371.215, 242.683 373.361 C 240.434 376.794, 235.867 377.284, 224.096 375.359 L 213.692 373.657 211.346 376.384 C 210.056 377.884, 209 379.839, 209 380.727 C 209 383.711, 217.369 390.392, 224.854 393.384 C 233.561 396.864, 239.727 401.153, 241.060 404.657 C 242.468 408.360, 241.213 413.514, 238.161 416.567 C 235.724 419.003, 235.009 419.169, 228.369 418.833 C 219.925 418.407, 214.001 415.631, 194.295 402.867 C 178.990 392.954, 169.891 388.560, 166.455 389.422 C 162.255 390.476, 160 393.538, 160 398.184 C 160 401.876, 160.562 402.905, 164.781 406.934 C 167.411 409.445, 177.630 416.450, 187.490 422.500 C 208.568 435.433, 216.810 442.806, 222.021 453.392 C 224.685 458.803, 225.363 461.408, 225.391 466.333 C 225.523 490.423, 202.488 503.630, 186.325 488.732 C 178.392 481.419, 174.161 471.784, 172.021 456.153 C 169.874 440.472, 166.694 434, 161.135 434 C 159.433 434, 157.405 435.004, 155.924 436.580 C 153.644 439.006, 153.469 440.035, 152.983 453.886 C 152.487 468.005, 152.331 468.886, 149.189 475.268 C 145.255 483.259, 142.122 486, 136.922 486 C 131.622 486, 130 483.407, 130 474.934 C 130 467.162, 131.943 460.967, 139.208 445.575 C 145.664 431.896, 146.586 425.495, 142.663 421.572 C 136.488 415.397, 131.373 419.978, 125.993 436.500 C 120.291 454.012, 114.379 462, 107.120 462 C 95.265 462, 97.637 448.424, 113.296 426.653 C 124.177 411.525, 125.644 409.032, 127.571 402.404 C 130.556 392.135, 128.036 375.138, 120.034 351.562 C 118.365 346.647, 117 340.909, 117 338.812 C 117 335.458, 116.713 335, 114.607 335 C 110.016 335, 109.815 340.650, 114.002 352.006 C 119.857 367.886, 122.397 379.609, 122.451 391 C 122.510 403.569, 121.880 405.090, 109.806 421.517 C 99.396 435.683, 94.700 445.353, 94.167 453.724 C 93.772 459.920, 93.819 460.054, 97.766 464.001 C 101.192 467.427, 102.381 468, 106.067 468 C 117.428 468, 124.584 459.562, 131.508 438 C 133.759 430.990, 136.760 425, 138.020 425 C 140.675 425, 138.691 433.024, 133.074 445.003 C 126.372 459.296, 124 467.249, 124 475.426 C 124 485.728, 127.817 491.020, 135.740 491.701 C 141.792 492.222, 146.344 489.956, 150.639 484.282 C 156.416 476.652, 158.236 470.108, 158.903 454.580 C 159.327 444.686, 159.866 440.540, 160.764 440.242 C 162.647 439.619, 164.702 445.475, 165.955 455.033 C 167.371 465.840, 170.397 476.126, 174.053 482.558 C 185.196 502.166, 206.069 506.691, 220.572 492.645 C 225.013 488.343, 226 487.761, 226.001 489.443 C 226.001 490.575, 227.351 494.353, 229.001 497.840 C 230.650 501.327, 232 504.798, 232 505.555 C 232 507.713, 228.599 508.998, 222.816 509.024 C 210.384 509.082, 204 512.501, 204 519.102 C 204 526.578, 213.259 529.169, 226.953 525.525 C 229.953 524.727, 232.598 524.265, 232.832 524.499 C 233.066 524.732, 232.749 526.940, 232.128 529.405 C 230.349 536.471, 230.693 540.363, 233.314 542.826 C 238.579 547.772, 246.452 544.072, 247.799 536.020 L 248.548 531.541 254.188 538.609 C 264.165 551.114, 268.831 553.573, 272.858 548.453 C 277.867 542.086, 276.738 535.608, 269.329 528.199 C 266.342 525.212, 264.034 522.675, 264.199 522.562 C 264.365 522.449, 266.598 521.155, 269.162 519.687 C 277.254 515.056, 280 512.217, 280 508.484 C 280 506.035, 279.267 504.567, 277.250 502.974 C 273.155 499.742, 266.243 500.589, 258.185 505.313 C 254.724 507.341, 251.519 509, 251.062 509 C 250.604 509, 249.495 506.753, 248.597 504.008 C 243.006 486.912, 234.321 477.079, 229.272 482.128 C 228.580 482.820, 228.735 481.239, 229.674 478.037 C 232.205 469.403, 231.212 458.902, 227.068 450.485 C 222.265 440.731, 211.598 430.393, 197.675 422 C 179.976 411.331, 168.790 403.670, 166.629 400.739 C 164.713 398.141, 164.693 397.878, 166.293 396.279 C 167.892 394.680, 168.331 394.745, 173.733 397.395 C 176.891 398.944, 185.034 403.812, 191.828 408.212 C 211.010 420.637, 218.701 424.217, 227.411 424.776 C 238.842 425.510, 244.713 421.684, 246.866 412.099 C 249.019 402.519, 243.073 394.751, 229.130 388.927 C 224.618 387.042, 219.480 384.239, 217.713 382.697 L 214.500 379.894 219.500 380.697 C 222.250 381.139, 228.700 381.500, 233.834 381.500 C 243.111 381.500, 243.185 381.480, 246.084 378.234 C 251.354 372.332, 249.413 364.286, 241.668 359.934 C 235.738 356.601, 222.429 356.232, 204.500 358.903 C 187.603 361.421, 187.474 361.423, 192.500 359.134 C 196.797 357.177, 202.903 351.022, 205.469 346.060 C 206.339 344.377, 207.758 343, 208.622 343 C 209.486 343, 212.287 344.845, 214.847 347.100 C 221.460 352.928, 224.706 354.455, 227.639 353.119 C 229.238 352.390, 230 351.205, 230 349.446 C 230 347.191, 229.627 346.888, 227.165 347.147 C 224.977 347.376, 223.095 346.359, 218.915 342.689 C 215.937 340.074, 212.424 337.659, 211.110 337.323 C 207.452 336.389, 203.725 338.183, 201.506 341.948 C 193.210 356.022, 178.656 360.403, 171.282 351.046 C 169.199 348.403, 169.789 343.405, 172.573 340.096 C 176.060 335.951, 181.743 334.448, 186.463 336.420 C 189.537 337.705, 190 338.347, 190 341.327 C 190 347.250, 183.840 349.432, 183.184 343.741 C 182.936 341.597, 182.341 341, 180.453 341 C 175.590 341, 176.018 348.924, 181.021 351.511 C 186.570 354.380, 191.547 352.711, 194.506 346.989 C 197.452 341.291, 195.434 334.310, 190.033 331.517 C 186.460 329.669, 178.582 329.607, 174.481 331.394 M 287.061 334.090 C 284.619 334.569, 279.444 336.852, 275.561 339.165 C 263.388 346.413, 255.864 350, 252.834 350 C 250.035 350, 249.937 349.850, 250.564 346.511 C 251.088 343.717, 250.866 342.886, 249.454 342.344 C 247.228 341.490, 244 345.226, 244 348.656 C 244 351.762, 248.197 356, 251.273 356 C 255.520 356, 263.381 353.144, 269.500 349.379 C 281.584 341.943, 285.953 339.911, 291.184 339.296 C 296.257 338.700, 296.432 338.755, 295 340.513 C 294.175 341.526, 285.625 346.135, 276 350.754 C 266.375 355.374, 257.262 360.328, 255.750 361.764 C 252.312 365.027, 252.033 370.033, 255.117 373.117 C 258.758 376.758, 264.034 375.283, 285.325 364.674 C 295.871 359.419, 305.625 354.844, 307 354.508 C 309.442 353.911, 309.453 353.934, 307.500 355.505 C 306.400 356.390, 299.064 360.290, 291.197 364.172 C 275.644 371.847, 268.021 376.990, 263.750 382.687 C 258.985 389.044, 260.977 395, 267.866 395 C 271.659 395, 285.457 389.820, 296.981 384.070 C 310.343 377.402, 314 374.996, 314 372.874 C 314 369.489, 311.383 369.748, 304.140 373.852 C 292.483 380.458, 272.646 389, 268.963 389 C 265.862 389, 266.604 387.562, 272.475 382.197 C 276.301 378.700, 282.656 374.850, 293.577 369.414 C 312.977 359.756, 317 356.971, 317 353.194 C 317 344.627, 307.165 346.488, 281.608 359.892 C 267.438 367.325, 261.805 369.523, 259.346 368.579 C 256.320 367.418, 260.177 364.881, 278.478 355.994 C 298.282 346.378, 302 343.708, 302 339.104 C 302 333.637, 297.343 332.073, 287.061 334.090 M 149.562 346.947 C 146.986 349.176, 144.456 351, 143.939 351 C 143.423 351, 143 352.125, 143 353.500 C 143 355.491, 143.502 356, 145.467 356 C 148.334 356, 158.500 347.465, 158.500 345.058 C 158.500 341.943, 154.323 342.826, 149.562 346.947 M 399.380 349.436 C 397.664 350.183, 394.785 352.629, 392.983 354.872 L 389.706 358.949 386.318 355.975 C 381.538 351.778, 375.507 351.790, 370.994 356.006 L 367.777 359.011 364.354 356.006 C 362.341 354.239, 359.811 353.002, 358.215 353.004 C 354.710 353.009, 349.364 356.278, 348.522 358.931 C 347.896 360.902, 346 361.868, 346 360.216 C 346 358.635, 340.090 356, 336.546 356 C 328.899 356, 324 361.057, 324 368.950 C 324 372.603, 324.245 373, 326.500 373 C 328.487 373, 329 372.497, 329 370.547 C 329 366.610, 331.036 363.228, 334.193 361.920 C 336.732 360.869, 337.490 360.973, 339.814 362.696 C 341.291 363.791, 343.009 366.220, 343.631 368.094 C 345.067 372.417, 349.174 373.003, 349.990 369 C 350.828 364.890, 354.319 359.958, 356.838 359.326 C 360.656 358.368, 365.290 363.694, 365.407 369.177 C 365.491 373.097, 365.733 373.500, 368 373.500 C 370.249 373.500, 370.556 373.009, 371.061 368.613 C 371.503 364.767, 372.305 363.117, 374.827 360.863 C 376.589 359.289, 378.519 358, 379.116 358 C 380.981 358, 387 364.702, 387 366.778 C 387 369.722, 389.595 371.581, 391.500 370 C 392.325 369.315, 393 367.879, 393 366.808 C 393 364.389, 398.410 356.386, 400.972 355.015 C 406.825 351.883, 413.274 357.083, 414.488 365.915 C 415.119 370.502, 415.435 371, 417.714 371 C 420.179 371, 420.230 370.856, 419.813 365.093 C 419.298 357.968, 416.187 352.742, 410.790 349.932 C 406.462 347.679, 403.695 347.558, 399.380 349.436 M 339.176 374.070 C 323.259 377.202, 309.384 390.920, 303.952 408.896 C 301.896 415.697, 301.782 417.347, 302.531 429.396 C 302.979 436.603, 303.250 444.690, 303.133 447.368 C 302.930 452.034, 300.144 459.175, 298.014 460.491 C 297.456 460.836, 297 462.216, 297 463.559 C 297 467.280, 300.948 466.800, 303.701 462.743 C 308.903 455.081, 309.252 452.960, 308.518 433.542 C 307.899 417.192, 308.021 414.914, 309.812 409.252 C 315.283 391.961, 328.828 380.539, 345.345 379.290 C 354.193 378.621, 358.829 379.947, 364.011 384.629 C 369.710 389.777, 372.157 396.466, 372.190 406.984 C 372.221 416.713, 370.108 423.165, 365.196 428.342 C 358.767 435.117, 347.837 437.508, 342.275 433.356 C 338.348 430.424, 334.988 423.054, 334.853 417.076 C 334.762 413.041, 335.274 411.329, 337.410 408.529 C 340.942 403.899, 343.454 402.675, 347.864 403.434 C 355.030 404.668, 356.432 404.565, 356.791 402.777 C 357.010 401.682, 355.926 400.316, 353.818 399.030 C 345.973 394.247, 335.996 398.316, 330.803 408.418 C 326.548 416.692, 330.189 430.791, 338.270 437.331 C 343.150 441.281, 351.664 442.164, 358.756 439.455 C 365.016 437.065, 372.246 430.119, 375.142 423.714 C 377.180 419.207, 377.500 416.940, 377.500 407 C 377.500 396.615, 377.240 394.945, 374.818 389.778 L 372.136 384.056 375.818 383.034 C 377.843 382.471, 382.875 382.013, 387 382.015 C 396.492 382.021, 402.887 384.792, 408.734 391.435 C 413.964 397.377, 416.439 404.434, 416.474 413.500 C 416.496 419.328, 416.049 421.267, 413.808 425.080 C 412.327 427.599, 410.407 430.247, 409.541 430.966 C 407.140 432.959, 400.256 432.581, 397.171 430.286 C 392.553 426.852, 393.209 416, 398.035 416 C 400.817 416, 400.746 411.372, 397.951 410.484 C 393.227 408.985, 388 415.989, 388 423.820 C 388 434.793, 402.682 442.058, 412.071 435.731 C 419.535 430.701, 423.841 418.810, 422.071 408.114 C 419.333 391.564, 411.082 381.405, 397.071 377.332 C 390.735 375.490, 377.968 375.950, 371.549 378.251 C 367.837 379.582, 367.392 379.527, 364.181 377.348 C 357.993 373.148, 349.510 372.036, 339.176 374.070 M 80.405 378.387 C 79.331 381.185, 80.688 382.684, 85.358 383.860 C 91.677 385.451, 97.508 385.297, 99 383.500 C 101.078 380.996, 98.555 379.326, 91.741 378.692 C 88.308 378.373, 84.493 377.811, 83.262 377.442 C 81.687 376.971, 80.841 377.251, 80.405 378.387 M 62.763 395.565 C 57.703 398.311, 58.389 404.304, 64.405 409.924 C 67.959 413.245, 67.674 415.657, 62.991 421.890 C 58.343 428.075, 57.542 430.547, 58.315 436.310 C 59.143 442.491, 63.417 446, 70.115 446 C 79.293 446, 84.916 441.926, 85.732 434.684 C 86.162 430.874, 85.845 429.866, 83.364 427.141 C 81.789 425.411, 79.056 423.719, 77.290 423.381 C 74.607 422.867, 73.581 423.265, 71.040 425.806 C 66.329 430.517, 67.442 437.880, 72.702 436.794 C 74.056 436.514, 74.436 435.623, 74.242 433.183 C 73.953 429.541, 76.061 427.975, 78.513 430.011 C 80.975 432.054, 80.354 436.538, 77.333 438.518 C 74.093 440.641, 67.856 440.955, 65.629 439.107 C 62.715 436.688, 63.528 430.285, 67.345 425.603 C 74.990 416.224, 74.973 412.239, 67.256 403.851 C 65 401.398, 64.949 401.128, 66.575 400.218 C 67.541 399.677, 70.049 399.465, 72.148 399.747 C 75.177 400.153, 76.104 399.893, 76.644 398.485 C 78.197 394.437, 68.572 392.413, 62.763 395.565 M 257.500 399.195 C 256.400 399.819, 255.169 400.818, 254.765 401.415 C 253.294 403.589, 254.056 407.954, 256.379 410.655 C 258.473 413.089, 259.601 413.469, 265.773 413.817 C 271.880 414.162, 273.059 413.941, 274.893 412.107 C 276.052 410.948, 277 409.167, 277 408.149 C 277 404.470, 274.848 400.252, 272.403 399.138 C 269.211 397.683, 260.104 397.718, 257.500 399.195 M 284.374 400.468 C 283.450 402.875, 292.094 413.443, 295.291 413.816 C 297.615 414.088, 298 413.768, 298 411.566 C 298 410.155, 297.592 409, 297.094 409 C 296.595 409, 294.571 406.750, 292.595 404 C 288.963 398.944, 285.525 397.467, 284.374 400.468 M 261.057 403.965 C 260.315 404.423, 259.985 405.519, 260.323 406.399 C 261.188 408.652, 271 408.716, 271 406.469 C 271 405.626, 270.438 404.765, 269.750 404.555 C 266.279 403.494, 262.260 403.221, 261.057 403.965 M 232.929 408.180 C 229.809 412.097, 225.582 412.358, 219.066 409.034 C 214.299 406.602, 212 406.921, 212 410.015 C 212 412.937, 220.900 416.977, 227.368 416.990 C 231.712 416.999, 232.662 416.574, 236.198 413.037 C 240.398 408.837, 240.917 405.697, 237.490 405.227 C 236.236 405.055, 234.549 406.147, 232.929 408.180 M 164 415.284 C 164 416.812, 165.077 418.188, 167.250 419.437 C 178.376 425.835, 196.659 438.805, 203.323 445.028 C 212.763 453.844, 216 459.586, 216 467.516 C 216 477.107, 211.249 482.415, 203.223 481.790 C 199.868 481.529, 199.500 481.740, 199.500 483.928 C 199.500 488.913, 209.743 488.611, 215.883 483.445 C 222.400 477.961, 223.881 464.567, 219.022 455.044 C 214.261 445.711, 200.499 433.527, 180.170 420.648 C 167.363 412.535, 164 411.419, 164 415.284 M 265 417.691 C 250.115 420.183, 242.530 429.570, 242.530 445.500 C 242.530 454.676, 244.911 461.213, 250.301 466.838 C 258.675 475.574, 267.885 476.241, 275.872 468.689 C 280.691 464.132, 282.952 458.631, 282.978 451.398 C 283.004 444.086, 280.550 439.725, 274.470 436.282 C 268.095 432.671, 263.529 433.634, 257.636 439.835 C 251.284 446.517, 253.884 457.115, 261.823 456.900 C 268.184 456.728, 270.500 455.675, 270.500 452.955 C 270.500 450.619, 270.245 450.516, 265.250 450.822 C 260.018 451.142, 260 451.133, 260 448.160 C 260 446.057, 260.907 444.414, 263.077 442.589 C 266.916 439.359, 269.425 439.324, 273.519 442.447 C 279.561 447.055, 278.844 457.392, 272.008 464.227 C 269.233 467.003, 267.398 468, 265.068 468 C 258.613 468, 252.632 462.841, 249.461 454.537 C 246.124 445.800, 249.145 432.178, 255.533 427.153 C 258.755 424.618, 268.073 422.603, 272.624 423.457 C 280.121 424.864, 288.139 436.259, 289.544 447.505 C 291.276 461.367, 282.844 478.509, 271.621 483.942 C 266.572 486.385, 258.195 486.669, 254.069 484.536 C 247.351 481.062, 244.962 475.972, 240.440 455.503 C 238.982 448.905, 236.963 441.888, 235.953 439.909 C 233.682 435.456, 227.372 429.782, 225.164 430.207 C 222.114 430.794, 222.652 434.089, 226.287 437.085 C 230.566 440.612, 232.313 444.856, 235.441 459.326 C 238.732 474.547, 241.239 480.852, 245.744 485.242 C 259.202 498.356, 280.628 491.849, 290.471 471.658 C 296.838 458.598, 297.066 446.148, 291.168 433.545 C 287.442 425.583, 282.108 420.407, 275.655 418.490 C 270.616 416.994, 269.614 416.919, 265 417.691 M 419.357 431.992 C 415.797 433.428, 414 437.012, 414 442.675 C 414 448.421, 415.451 452.576, 417.770 453.465 C 420.371 454.463, 425.746 452.899, 428.015 450.484 C 429.769 448.617, 430.200 446.954, 430.200 442.056 C 430.200 432.380, 426.623 429.060, 419.357 431.992 M 369.500 436.302 C 363.493 439.179, 356.733 446.250, 355.016 451.451 C 353.006 457.542, 354.170 464.632, 357.773 468.234 C 359.692 470.154, 361.410 471.057, 362.411 470.673 C 364.590 469.836, 364.407 466.679, 362.057 464.551 C 354.168 457.412, 365.824 440, 378.492 440 C 384.740 440, 384.401 441.540, 374.659 457.418 C 370.131 464.798, 369.199 469.128, 371.411 472.504 C 373.822 476.184, 378.728 475.888, 383.929 471.750 C 400.139 458.854, 398.940 459.575, 404.243 459.536 C 407.952 459.509, 409.539 459.955, 410.373 461.259 C 412.223 464.146, 409.263 467.915, 399.976 474.500 C 395.321 477.800, 389.147 482.775, 386.256 485.557 C 381.583 490.052, 381 491.070, 381 494.734 C 381 500.523, 383.815 502.527, 393.031 503.299 C 399.594 503.850, 403 505.109, 403 506.986 C 403 507.393, 400.127 507.957, 396.615 508.239 C 387.150 508.998, 382 512.843, 382 519.147 C 382 521.162, 386.626 526.341, 390.524 528.691 C 392.364 529.801, 392.306 529.886, 389.673 529.941 C 387.912 529.978, 385.700 531.146, 383.806 533.040 C 381.254 535.592, 380.869 536.593, 381.405 539.276 C 381.757 541.034, 383.330 544.072, 384.902 546.028 L 387.760 549.585 384.880 552.808 C 380.298 557.937, 381.324 564, 386.775 564 C 388.778 564, 389.105 563.562, 388.858 561.210 C 388.683 559.541, 389.457 557.168, 390.783 555.305 C 393.824 551.034, 393.570 547.592, 389.873 542.992 C 386.228 538.456, 386.575 536.463, 391.182 535.483 C 400.415 533.519, 400.228 527.547, 390.750 521.662 C 389.238 520.722, 388 519.315, 388 518.534 C 388 516.090, 392.222 514, 397.157 514 C 406.415 514, 410.560 510.180, 408.003 504.007 C 406.300 499.896, 403.983 498.778, 394.581 497.534 C 389.717 496.891, 386.493 495.980, 386.225 495.174 C 385.633 493.399, 392.769 486.725, 402.686 479.778 C 411.881 473.338, 415.834 468.797, 416.656 463.730 C 417.123 460.857, 416.706 459.703, 414.188 456.887 C 411.337 453.698, 410.784 453.501, 404.731 453.517 C 397.560 453.536, 394.458 455.100, 385.084 463.425 C 375.149 472.249, 373.089 471.117, 379.653 460.441 C 389.915 443.749, 390.496 441.850, 386.691 437.427 C 383.341 433.533, 376.250 433.069, 369.500 436.302 M 106.039 441.131 C 103.303 447.490, 102.560 451.842, 103.424 456.444 C 103.973 459.372, 104.524 460, 106.545 460 C 108.864 460, 109.001 459.682, 109.022 454.250 C 109.036 450.699, 109.800 446.833, 111.022 444.141 C 113.716 438.205, 113.608 436, 110.623 436 C 108.716 436, 107.810 437.015, 106.039 441.131 M 420.667 437.667 C 419.641 438.692, 419.877 448, 420.929 448 C 422.672 448, 425 444.861, 425 442.510 C 425 437.972, 422.810 435.524, 420.667 437.667 M 187.041 446.619 C 178.868 453.496, 179.125 464.119, 187.658 472.186 C 195.214 479.329, 206.009 478.010, 209.560 469.510 C 211.614 464.595, 211.353 461.102, 208.507 455.389 C 205.827 450.011, 202.505 447.036, 197.101 445.172 C 192.147 443.464, 190.511 443.699, 187.041 446.619 M 189.246 452.239 C 181.567 460.412, 195.213 476.787, 203.117 468.883 C 207.983 464.017, 202.371 452.014, 194.496 450.446 C 192.144 449.978, 191.003 450.368, 189.246 452.239 M 61.089 453.643 C 47.534 460.398, 39.708 480.766, 39.628 509.500 C 39.589 523.347, 41.567 533.310, 46.127 542.250 C 49.109 548.094, 57.685 556.807, 63.215 559.609 C 78.071 567.137, 94.922 556.727, 101.049 536.238 C 102.704 530.704, 104.534 529.106, 106.716 531.288 C 108.148 532.720, 108.199 533.986, 107.166 542.394 C 105.360 557.093, 105.578 560.668, 108.455 563.545 C 113.359 568.450, 118.062 566.286, 122.448 557.108 C 124.054 553.749, 125.847 551.002, 126.434 551.004 C 127.020 551.007, 129.525 552.355, 132 554 C 134.475 555.645, 137.703 556.993, 139.173 556.996 C 143.561 557.003, 147.563 552.696, 150.573 544.727 C 152.074 540.752, 154.135 536.306, 155.151 534.846 C 157.456 531.537, 157.512 529.134, 155.304 528.286 C 152.869 527.352, 149.334 532.162, 145.587 541.511 C 141.892 550.729, 140.176 552.248, 136.241 549.782 C 125.394 542.985, 123.100 543.421, 118 553.249 C 112.520 563.810, 111.762 562.639, 112.497 544.750 C 112.841 536.362, 112.758 529.024, 112.312 528.442 C 110.729 526.380, 106.526 524, 104.465 524 C 101.639 524, 97.519 528.615, 95.984 533.500 C 92.411 544.870, 84.766 553.909, 76.941 556.016 C 71.343 557.523, 65.282 555.280, 58.950 549.357 C 49.285 540.316, 45.582 529.132, 45.588 509 C 45.595 487.676, 49.513 472.972, 57.565 464.060 C 62.781 458.287, 66.247 456.673, 72.205 457.246 C 85.621 458.535, 92.156 473.007, 92.077 501.250 C 92.028 518.552, 90.753 526.843, 86.929 534.714 C 83.048 542.702, 79.268 545.500, 72.355 545.500 C 66.320 545.500, 63.654 543.615, 61.001 537.472 C 53.729 520.635, 54.138 493.575, 61.896 478.205 C 67.090 467.917, 72.009 466.269, 76.994 473.150 C 80.363 477.801, 81.048 484.059, 78.574 487.590 C 77.790 488.710, 74.011 490.857, 70.176 492.362 C 62.327 495.441, 59.832 498.777, 61.606 503.822 C 63.010 507.814, 66.505 509.186, 73.750 508.590 C 78.995 508.158, 80 508.329, 80 509.654 C 80 510.997, 79.058 511.132, 73.708 510.559 C 68.199 509.969, 67.078 510.150, 64.708 512.015 C 62.590 513.681, 62 514.996, 62 518.050 C 62 522.921, 64.218 524.519, 72.307 525.473 C 76.062 525.916, 77.978 526.572, 77.728 527.329 C 77.107 529.214, 72.797 530.969, 68.750 530.985 C 65.421 530.998, 65 531.280, 65 533.500 C 65 535.869, 65.294 536, 70.596 536 C 79.642 536, 85.479 531.109, 83.420 525.254 C 82.275 521.997, 79.083 520.268, 72.750 519.473 C 69.513 519.067, 68 518.410, 68 517.411 C 68 516.206, 69.146 516.062, 74.416 516.602 C 80.414 517.216, 81 517.090, 83.416 514.675 C 86.355 511.736, 86.711 508.460, 84.443 505.223 C 83.055 503.240, 82.021 503, 74.870 503 C 67.883 503, 66.895 502.783, 67.179 501.311 C 67.361 500.363, 69.730 498.717, 72.573 497.561 C 75.361 496.427, 78.780 494.746, 80.171 493.825 C 83.438 491.661, 86 486.208, 86 481.415 C 86 473.366, 78.072 463, 71.916 463 C 65.432 463, 60.648 467.246, 56.047 477.083 C 48.383 493.468, 47.991 519.538, 55.122 538.597 C 61.309 555.134, 81.344 556.213, 90.549 540.506 C 95.711 531.698, 97.136 524.936, 97.713 506.500 C 98.692 475.230, 93.416 459.828, 79.507 453.351 C 72.913 450.281, 67.670 450.364, 61.089 453.643 M 323.176 457.041 C 305.094 460.720, 290.997 476.456, 285.951 498.594 C 282.001 515.926, 282.381 558.809, 286.521 562.950 C 287.826 564.255, 288.181 564.248, 289.537 562.892 C 290.858 561.570, 290.913 560.320, 289.924 553.950 C 288.243 543.117, 289.204 509.594, 291.471 500 C 295.347 483.593, 303.513 471.898, 315.156 466.080 C 330.368 458.478, 343.464 462.368, 353.158 477.366 C 360.926 489.384, 364.445 507.011, 365.622 539.792 L 366.312 559 363.763 559 C 362.361 559, 360.941 558.288, 360.607 557.418 C 360.273 556.548, 359.995 549.911, 359.990 542.668 C 359.970 517.282, 357.604 499.519, 352.915 489.543 C 350.056 483.460, 342.733 475.426, 337.613 472.755 C 332.305 469.986, 324 469.878, 318.500 472.506 C 312.037 475.595, 303.443 484.913, 299.534 493.070 C 293.681 505.283, 292.664 512.208, 293.244 535.886 C 293.523 547.263, 294.242 557.732, 294.850 559.250 C 295.859 561.772, 296.396 562, 301.320 562 C 305.456 562, 307.114 561.531, 308.537 559.959 C 310.251 558.065, 310.298 557.219, 309.183 548.209 C 306.212 524.212, 309.229 506.655, 317.658 498.879 C 321.799 495.059, 324.902 494.658, 330.076 497.273 C 339.110 501.838, 342.065 511.261, 342.769 537.750 L 343.227 555 340.756 555 C 338.334 555, 338.273 554.801, 337.606 544.750 C 336.553 528.857, 334.939 516.888, 333.297 512.783 C 330.704 506.303, 323.078 503.156, 318.217 506.561 C 314.041 509.486, 312.942 513.345, 312.312 527.289 C 311.602 543.026, 312.564 555.421, 314.658 557.515 C 316.596 559.453, 321.963 559.415, 324.777 557.443 C 326.915 555.946, 327 555.281, 327 540.066 C 327 527.223, 326.718 524.011, 325.500 523 C 324.297 522.002, 323.674 522.025, 322.357 523.119 C 320.922 524.310, 320.787 526.277, 321.288 538.661 C 321.758 550.253, 321.608 552.936, 320.468 553.374 C 318.266 554.219, 317.699 548.518, 318.192 530.483 C 318.655 513.560, 319.294 511, 323.050 511 C 325.774 511, 328.683 515.402, 329.487 520.738 C 329.881 523.357, 330.770 532.621, 331.463 541.325 C 332.882 559.164, 333.230 559.933, 340.236 560.723 C 344.187 561.168, 344.918 560.920, 346.839 558.477 C 348.795 555.991, 349 554.529, 349 543.089 C 349 513.007, 344.131 497.679, 332.729 491.862 C 327.429 489.158, 319.565 489.629, 315.385 492.900 C 311.008 496.325, 307.181 502.622, 304.719 510.446 C 302.776 516.624, 302.530 519.363, 302.745 532.500 C 302.879 540.750, 303.104 549.515, 303.245 551.978 C 303.444 555.482, 303.139 556.528, 301.841 556.784 C 300.456 557.058, 300.060 555.821, 299.448 549.306 C 298.137 535.337, 298.571 515.058, 300.339 507.750 C 304.517 490.474, 317.100 476, 327.941 476 C 337.042 476, 347.306 486.966, 350.873 500.500 C 352.458 506.517, 353.989 524.936, 354.072 539 C 354.156 553.131, 355.102 561.502, 356.809 563.209 C 357.448 563.848, 360.634 564.563, 363.889 564.798 C 372.343 565.410, 372.408 565.211, 371.546 541.589 C 370.038 500.255, 365.206 481.046, 352.943 467.628 C 344.811 458.731, 333.917 454.856, 323.176 457.041 M 160.523 490.250 C 160.138 502.488, 159.975 524.221, 160.161 538.547 C 160.458 561.385, 160.717 564.925, 162.264 567.283 C 165.446 572.134, 168.553 573.388, 178.460 573.821 C 187.110 574.200, 187.797 574.079, 190.565 571.699 L 193.500 569.176 193.795 541.625 C 194.048 517.978, 193.864 513.638, 192.496 510.993 C 189.536 505.268, 181.147 502.245, 175.945 505.030 C 171.516 507.400, 171 510.529, 171 535.027 L 171 558.154 173.923 561.077 C 177.178 564.332, 180.066 564.791, 182.429 562.429 C 183.690 561.167, 184.041 558.013, 184.208 546.429 C 184.591 519.936, 184.827 522.500, 182 522.500 L 179.500 522.500 179 540.500 C 178.322 564.921, 176.651 561.516, 176.571 535.548 C 176.498 512.089, 176.853 510, 180.908 510 C 182.487 510, 184.821 510.844, 186.095 511.876 L 188.411 513.751 188.144 540.126 C 187.985 555.779, 187.474 566.906, 186.888 567.500 C 185.615 568.788, 174.335 568.519, 170.732 567.115 C 169.210 566.521, 167.522 564.874, 166.982 563.453 C 166.390 561.897, 166 542.406, 166 514.435 L 166 468 163.611 468 L 161.223 468 160.523 490.250 M 424.346 476.917 C 413.054 482.080, 409.792 501.354, 416.124 525.500 C 417.855 532.100, 419.487 538.984, 419.750 540.798 L 420.230 544.096 416.475 541.548 C 411.925 538.460, 406.752 538.244, 402.304 540.956 C 397.239 544.045, 395.670 547.216, 396.246 553.204 C 396.661 557.531, 397.322 558.907, 400.291 561.628 C 404.861 565.816, 409.954 566.819, 415.746 564.672 L 420.118 563.052 419.432 565.276 C 417.351 572.026, 414.650 574.940, 407.574 578.070 C 402.818 580.174, 399.363 580.397, 383 579.658 C 379.901 579.518, 379.500 579.783, 379.500 581.972 C 379.500 584.113, 380.103 584.556, 384 585.273 C 386.475 585.728, 392.550 585.936, 397.500 585.735 C 407.104 585.346, 411.594 583.737, 417.910 578.422 C 423.855 573.420, 425.085 569.434, 425.519 553.760 C 425.881 540.673, 425.709 538.985, 423.046 529.500 C 418.728 514.124, 417.599 505.125, 418.987 497.155 C 420.548 488.188, 423.328 483.486, 428.226 481.526 C 431.343 480.279, 432.070 479.513, 431.817 477.741 C 431.400 474.822, 429.410 474.602, 424.346 476.917 M 107.004 476.742 C 102.456 477.290, 101 478.595, 101 482.122 C 101 484.366, 101.456 485, 103.071 485 C 104.211 485, 105.818 484.325, 106.643 483.500 C 107.468 482.675, 109.798 481.994, 111.821 481.986 C 117.895 481.964, 120 481.037, 120 478.383 C 120 476.184, 119.633 476.012, 115.250 476.160 C 112.638 476.248, 108.927 476.510, 107.004 476.742 M 114.568 484.890 C 114.074 485.689, 117.900 502.468, 121.606 515.750 C 122.032 517.278, 122.998 518, 124.617 518 C 127.856 518, 127.691 515.792, 123.165 498.500 C 119.971 486.299, 119.223 484.461, 117.344 484.193 C 116.159 484.024, 114.909 484.337, 114.568 484.890 M 232 489.029 C 232 490.144, 233.350 493.731, 235 497 C 241.340 509.559, 238.120 513.756, 221.144 515.063 C 211.383 515.815, 208.265 517.196, 210.001 520 C 211.203 521.941, 218.352 521.760, 226.734 519.577 C 230.162 518.684, 234.088 518.235, 235.457 518.579 C 238.832 519.426, 239.589 523.985, 237.612 531.555 C 236.003 537.714, 236.485 539.438, 239.644 538.830 C 241.065 538.557, 241.651 537.242, 242.143 533.218 C 243.666 520.774, 248.319 522.254, 262.805 539.789 C 265.173 542.655, 267.527 545, 268.036 545 C 269.369 545, 270.324 540.425, 269.596 537.526 C 268.767 534.222, 257.614 525, 254.448 525 C 252.555 525, 252 524.475, 252 522.683 C 252 520.754, 252.911 520.078, 257.429 518.654 C 263.559 516.722, 275.308 509.307, 274.447 507.914 C 273.124 505.774, 266.803 507.185, 258.681 511.433 C 253.545 514.120, 249.426 515.663, 248.225 515.349 C 246.376 514.865, 244 511.222, 244 508.870 C 244 508.300, 242.642 504.441, 240.982 500.295 C 236.590 489.328, 232 483.570, 232 489.029 M 26.449 497.630 C 25.396 507.463, 26.528 567.972, 27.826 571.198 C 30.115 576.890, 31.642 577.199, 60.279 577.764 C 74.718 578.050, 89.563 577.959, 93.266 577.562 C 99.480 576.896, 100 576.658, 100 574.472 L 100 572.103 67.549 571.801 C 42.586 571.570, 34.798 571.200, 33.799 570.201 C 32.791 569.192, 32.422 560.182, 32.152 529.951 L 31.805 491 29.482 491 C 27.357 491, 27.099 491.563, 26.449 497.630 M 101 492.992 C 101 494.087, 104.481 501.962, 108.735 510.492 C 115.304 523.661, 116.812 526, 118.735 526 C 122.378 526, 121.594 523.208, 113.265 506.508 C 106.696 493.339, 105.188 491, 103.265 491 C 101.670 491, 101 491.589, 101 492.992 M 133.622 505.484 C 129.276 518.063, 129.110 520, 132.378 520 C 134.502 520, 135.146 518.874, 138.378 509.516 C 142.724 496.937, 142.890 495, 139.622 495 C 137.498 495, 136.854 496.126, 133.622 505.484 M 142.750 513.509 C 135.662 520.307, 134.088 524, 138.279 524 C 141.357 524, 153.335 511.976, 152.836 509.386 C 152.170 505.928, 149.529 507.007, 142.750 513.509 M 146.500 523.407 C 140.317 527.762, 139.326 529.542, 142.108 531.296 C 144.526 532.821, 157 524.439, 157 521.288 C 157 517.794, 153.453 518.510, 146.500 523.407 M 125.376 521.765 C 123.305 523.119, 120.008 529.472, 120.004 532.115 C 119.999 535.739, 123.575 540, 126.622 540 C 129.887 540, 134.681 537.464, 135.970 535.055 C 136.537 533.997, 137 531.335, 137 529.138 C 137 526.016, 136.426 524.693, 134.365 523.073 C 131.729 520.999, 127.491 520.383, 125.376 521.765 M 127.035 528.934 C 125.753 531.330, 125.691 534, 126.918 534 C 129.550 534, 131 532.541, 131 529.893 C 131 526.518, 128.635 525.946, 127.035 528.934 M 34.709 532.624 C 34.319 533.014, 34 539.348, 34 546.699 C 34 567.866, 36.056 570.325, 53.306 569.787 C 62.370 569.504, 62.500 569.465, 62.500 567 C 62.500 564.528, 62.386 564.494, 52.210 564 C 44.559 563.628, 41.679 563.115, 40.976 562 C 39.970 560.404, 39.745 557.140, 39.594 542 C 39.507 533.235, 39.342 532.477, 37.459 532.208 C 36.336 532.047, 35.099 532.235, 34.709 532.624 M 205.858 543.250 C 199.519 549.109, 197 554.439, 197 561.992 C 197 569.586, 198.933 574.314, 204.265 579.760 C 214.402 590.113, 233.079 590.825, 241.205 581.168 C 244.790 576.907, 246.311 571.758, 245.800 565.604 C 245.245 558.907, 242.449 553.385, 237.694 549.594 C 234.477 547.029, 232.836 546.500, 227.107 546.176 C 217.102 545.611, 210.948 549.095, 207.538 557.254 C 205.066 563.172, 205.544 567.411, 209.148 571.516 C 213.274 576.215, 217.231 578.169, 222.791 578.253 C 226.700 578.312, 227.729 577.867, 230.274 575.019 C 232.800 572.192, 233.148 571.140, 232.689 567.721 C 232.008 562.642, 229.765 560.120, 227.557 561.953 C 226.445 562.875, 226.178 564.263, 226.602 566.915 C 227.421 572.037, 225.354 573.722, 220.158 572.166 C 218.080 571.543, 215.333 569.919, 214.053 568.557 C 212.133 566.512, 211.823 565.356, 212.281 561.941 C 212.998 556.598, 216.129 553.348, 221.706 552.158 C 232.591 549.837, 240 556.058, 240 567.518 C 240 576.885, 234.612 581.990, 224.718 581.996 C 211.879 582.005, 202.782 573.972, 202.666 562.526 C 202.599 555.931, 205.133 550.884, 210.561 546.796 C 213.417 544.646, 214.949 542.718, 214.969 541.250 C 215.019 537.583, 211.046 538.455, 205.858 543.250 M 403.084 547.621 C 400.563 550.825, 401.138 554.528, 404.655 557.750 C 407.557 560.408, 410.925 560.604, 415.599 558.386 C 420.181 556.212, 420.218 552.573, 415.702 548.196 C 411.364 543.991, 406.127 543.752, 403.084 547.621 M 248 548.021 C 248 549.133, 249.203 551.860, 250.673 554.082 C 254.196 559.405, 254.892 567.077, 252.466 573.825 C 249.412 582.316, 253.494 585.659, 257.063 577.591 C 261.189 568.264, 260.532 558.748, 255.177 550.252 C 252.208 545.540, 248 544.232, 248 548.021 M 264.366 554.487 C 264.052 555.306, 264.292 557.398, 264.898 559.137 C 266.412 563.480, 266.278 568.959, 264.538 573.892 C 262.819 578.765, 263.391 581.001, 266.357 580.999 C 268.112 580.997, 268.817 579.918, 270.250 575.042 C 272.495 567.403, 272.434 562.553, 270.027 557.250 C 268.086 552.974, 265.442 551.684, 264.366 554.487 M 147.986 562.250 C 147.958 571.147, 148.161 571, 135.883 571 C 125.112 571, 125 571.024, 125 573.361 C 125 575.462, 125.577 575.791, 130.250 576.352 C 138.016 577.285, 149.285 577.105, 151 576.021 C 152.091 575.332, 152.596 572.745, 152.853 566.537 L 153.205 558 150.603 558 C 148.210 558, 147.999 558.342, 147.986 562.250 M 424.526 572.715 C 423.492 578.223, 421.589 581.311, 416.431 585.852 C 410.703 590.894, 402.698 594, 395.431 594 C 391.365 594, 389.781 594.407, 389.336 595.567 C 388.274 598.335, 390.837 599.503, 397.805 599.426 C 413.232 599.254, 430 585.512, 430 573.040 C 430 569.448, 429.735 569, 427.611 569 C 425.647 569, 425.099 569.660, 424.526 572.715 M 296.287 572.450 C 290.746 574.182, 282.869 578.682, 269.920 587.512 C 264.100 591.480, 256.900 595.516, 253.920 596.481 C 246.983 598.727, 245.173 600.299, 246.995 602.494 C 249.592 605.623, 260.712 601.232, 273.410 592.065 C 283.694 584.641, 298.133 576.989, 301.774 577.033 L 304.500 577.067 302 579.045 C 291.053 587.709, 290.215 589.074, 293.829 592.345 C 297.455 595.626, 306.161 593.523, 321.618 585.632 C 328.877 581.927, 337.753 579.584, 340.516 580.644 C 343.258 581.697, 340.168 583.891, 332.790 586.132 C 328.970 587.293, 325.606 588.863, 325.315 589.621 C 325.024 590.379, 324.159 591, 323.393 591 C 322.594 591, 322 592.011, 322 593.368 C 322 595.398, 322.821 595.966, 327.750 597.345 C 330.913 598.230, 334.400 598.768, 335.500 598.543 C 336.600 598.317, 342.900 597.601, 349.500 596.951 C 362.756 595.647, 367.130 596.265, 373.092 600.283 C 377.462 603.228, 377.833 605.408, 374.353 607.687 C 369.554 610.829, 356.848 609.895, 332.384 604.600 C 301.909 598.004, 290.903 596.802, 279.500 598.825 C 276.146 599.419, 275.500 599.920, 275.500 601.925 L 275.500 604.317 291 604.459 C 305.692 604.594, 307.594 604.852, 327.500 609.421 C 343.387 613.067, 351.224 614.363, 359.690 614.744 C 372.902 615.338, 374.836 614.961, 379.482 610.882 C 383.817 607.075, 384.090 603.449, 380.374 599.033 C 374.488 592.037, 364.481 589.300, 350.744 590.927 C 345.660 591.529, 339.250 592.225, 336.500 592.472 L 331.500 592.923 336.939 590.958 C 343.971 588.418, 347 585.564, 347 581.481 C 347 576.294, 344.297 574.699, 336.294 575.165 C 330.583 575.497, 327.587 576.460, 317.500 581.204 C 310.900 584.308, 304.150 587.154, 302.500 587.528 C 299.614 588.183, 299.652 588.104, 303.500 585.474 C 308.685 581.930, 310 580.207, 310 576.964 C 310 571.465, 304.857 569.772, 296.287 572.450 M 360.090 576.497 C 354.864 583.419, 354.521 584.358, 356.591 586.076 C 358.088 587.318, 358.759 586.921, 362.673 582.486 C 367.119 577.448, 368.730 573.991, 367.535 572.057 C 366.205 569.905, 364.134 571.140, 360.090 576.497 M 50.190 581.068 C 40.637 582.948, 33 589.805, 33 596.500 C 33 601.219, 36.813 606.238, 41.688 607.937 C 47.650 610.014, 52.063 608.353, 60.244 600.952 C 68.439 593.539, 70.286 593.464, 71.018 600.510 C 71.678 606.869, 72.248 607.694, 76.951 609.104 C 82.529 610.775, 85.328 609.672, 92.537 602.965 C 100.110 595.920, 102.356 595.535, 107.747 600.356 C 112.635 604.726, 115.175 606, 119 606 C 123.049 606, 125.448 604.696, 131.207 599.360 C 137.830 593.225, 139.463 593.498, 147 602 C 155.722 611.838, 159.834 611.581, 164.937 600.877 C 166.425 597.754, 168.265 595.358, 169.326 595.162 C 170.351 594.972, 173.640 596.770, 176.826 599.260 C 187.703 607.764, 189.011 607.845, 197 600.500 C 200.290 597.475, 203.459 595, 204.041 595 C 206.047 595, 210.508 597.829, 213.500 601 C 219.862 607.741, 226.288 608.866, 231.077 604.077 C 234.850 600.303, 235.226 595, 231.719 595 C 230.103 595, 229.108 595.875, 228.306 598 C 226.582 602.568, 223.140 602.013, 216.629 596.117 C 207.092 587.480, 200.947 587.441, 193.292 595.967 C 189.828 599.826, 186.769 601.054, 185.547 599.075 C 183.857 596.341, 172.513 589, 169.978 589 C 166.085 589, 161.637 593.043, 159.567 598.463 C 158.614 600.958, 157.370 603, 156.802 603 C 156.234 603, 152.784 599.850, 149.134 596 C 140.492 586.882, 136.694 586.675, 127.758 594.830 C 119.769 602.121, 118.368 602.169, 110.810 595.412 C 106.911 591.927, 101.660 590.338, 97.939 591.519 C 96.709 591.910, 92.826 594.905, 89.310 598.177 C 84.255 602.880, 82.349 604.059, 80.208 603.812 C 78.011 603.559, 77.448 602.934, 77.226 600.500 C 76.511 592.678, 73.956 588.996, 69.250 589.005 C 66.027 589.011, 63.424 590.615, 55.055 597.750 C 48.229 603.569, 44.444 604.444, 41 601 C 36.842 596.842, 39.154 591.379, 46.500 588.003 C 50.688 586.078, 76.809 585.547, 100.974 586.894 C 117.884 587.837, 120.645 587.784, 121.939 586.490 C 123.247 585.182, 123.250 584.826, 121.964 583.575 C 119.239 580.921, 61.226 578.895, 50.190 581.068" stroke="none" fill="#000101" fill-rule="evenodd"/></svg>